<svg xmlns="http://www.w3.org/2000/svg" xmlns:xlink="http://www.w3.org/1999/xlink" version="1.1" width="29.0377000000" height="24.5895000000">
  <title><![CDATA[Business interaction 2]]></title>
  <g transform=" scale(1.000000) ">
    <path xmlns="http://www.w3.org/2000/svg" d="  M12.0990,24.5895 L12.0990,0.0000 C12.0990,0.0000 0.0000,0.0000 0.0000,12.2947 C0.0000,24.5895 12.0990,24.5895 12.0990,24.5895 Z" style="fill-rule: evenodd; fill: #ffffaf; "/>
    <g xmlns="http://www.w3.org/2000/svg" id="Layer1031">
      <path d="  M12.0990,24.5895 L12.0990,0.0000 C12.0990,0.0000 0.0000,0.0000 0.0000,12.2947 C0.0000,24.5895 12.0990,24.5895 12.0990,24.5895 Z" style="stroke-width: 0.5617; stroke-linecap: butt; stroke-linejoin: miter; fill-rule: evenodd; fill: #000000; fill-opacity: 0.0000; "/>
      <path d="  M12.0990,24.5895 L12.0990,0.0000 C12.0990,0.0000 0.0000,0.0000 0.0000,12.2947 C0.0000,24.5895 12.0990,24.5895 12.0990,24.5895 Z" style="stroke-width: 0.5617; stroke: #000000; stroke-dasharray: none; stroke-linecap: butt; stroke-linejoin: miter; fill: none; fill-opacity: 0.0000; "/>
    </g>
    <path xmlns="http://www.w3.org/2000/svg" d="  M16.9388,24.5895 L16.9388,0.0000 C16.9388,0.0000 29.0378,0.0000 29.0378,12.2947 C29.0378,24.5895 16.9388,24.5895 16.9388,24.5895 Z" style="fill-rule: evenodd; fill: #ffffaf; "/>
    <g xmlns="http://www.w3.org/2000/svg" id="Layer1032">
      <path d="  M16.9388,24.5895 L16.9388,0.0000 C16.9388,0.0000 29.0378,0.0000 29.0378,12.2947 C29.0378,24.5895 16.9388,24.5895 16.9388,24.5895 Z" style="stroke-width: 0.5617; stroke-linecap: butt; stroke-linejoin: miter; fill-rule: evenodd; fill: #000000; fill-opacity: 0.0000; "/>
      <path d="  M16.9388,24.5895 L16.9388,0.0000 C16.9388,0.0000 29.0378,0.0000 29.0378,12.2947 C29.0378,24.5895 16.9388,24.5895 16.9388,24.5895 Z" style="stroke-width: 0.5617; stroke: #000000; stroke-dasharray: none; stroke-linecap: butt; stroke-linejoin: miter; fill: none; fill-opacity: 0.0000; "/>
    </g>
    <!--converted by libvisio2svg-->
  </g>
</svg>
