<svg xmlns="http://www.w3.org/2000/svg" xmlns:xlink="http://www.w3.org/1999/xlink" version="1.1" width="72.2835000000" height="29.7637000000">
  <title><![CDATA[Business function]]></title>
  <g transform=" scale(1.000000) ">
    <path xmlns="http://www.w3.org/2000/svg" d="  M5.3153,0.0000 L66.9683,0.0000 C69.9038,0.0000 72.2835,2.3797 72.2835,5.3145 L72.2835,24.4485 C72.2835,27.3840 69.9038,29.7637 66.9683,29.7637 L5.3153,29.7637 C2.3798,29.7637 0.0000,27.3840 0.0000,24.4485 L0.0000,5.3145 C0.0000,2.3797 2.3798,0.0000 5.3153,0.0000 Z" style="fill-rule: evenodd; fill: #ffffaf; "/>
    <g xmlns="http://www.w3.org/2000/svg" id="Layer1025">
      <path d="  M5.3153,0.0000 L66.9683,0.0000 C69.9038,0.0000 72.2835,2.3797 72.2835,5.3145 L72.2835,24.4485 C72.2835,27.3840 69.9038,29.7637 66.9683,29.7637 L5.3153,29.7637 C2.3798,29.7637 0.0000,27.3840 0.0000,24.4485 L0.0000,5.3145 C0.0000,2.3797 2.3798,0.0000 5.3153,0.0000 Z" style="stroke-width: 0.6375; stroke-linecap: butt; stroke-linejoin: miter; fill-rule: evenodd; fill: #000000; fill-opacity: 0.0000; "/>
      <path d="  M5.3153,0.0000 L66.9683,0.0000 C69.9038,0.0000 72.2835,2.3797 72.2835,5.3145 L72.2835,24.4485 C72.2835,27.3840 69.9038,29.7637 66.9683,29.7637 L5.3153,29.7637 C2.3798,29.7637 0.0000,27.3840 0.0000,24.4485 L0.0000,5.3145 C0.0000,2.3797 2.3798,0.0000 5.3153,0.0000 Z" style="stroke-width: 0.6375; stroke: #000000; stroke-dasharray: none; stroke-linecap: butt; stroke-linejoin: miter; fill: none; fill-opacity: 0.0000; "/>
    </g>
    <g xmlns="http://www.w3.org/2000/svg" id="Layer1026">
      <path d="  M63.8580,8.4218 L63.8580,4.6890 L66.9878,2.1998 L70.1183,4.6890 L70.1183,8.4218 L66.9878,5.9333 L63.8580,8.4218 Z" style="stroke-width: 0.4740; stroke-linecap: butt; stroke-linejoin: miter; fill-rule: evenodd; fill: #000000; fill-opacity: 0.0000; "/>
      <path d="  M63.8580,8.4218 L63.8580,4.6890 L66.9878,2.1998 L70.1183,4.6890 L70.1183,8.4218 L66.9878,5.9333 L63.8580,8.4218 Z" style="stroke-width: 0.4740; stroke: #000000; stroke-dasharray: none; stroke-linecap: butt; stroke-linejoin: miter; fill: none; fill-opacity: 0.0000; "/>
    </g>
    <text xmlns="http://www.w3.org/2000/svg" x="4.0000" y="14.8819">
      <tspan font-family="Arial" font-size="8.0000" fill="#000000" fill-opacity="1.0000" stroke-opacity="1.0000">
Business</tspan>
      <tspan font-family="Arial" font-size="8.0000" fill="#000000" fill-opacity="1.0000" stroke-opacity="1.0000">
function</tspan>
    </text>
    <!--converted by libvisio2svg-->
  </g>
</svg>
