<svg xmlns="http://www.w3.org/2000/svg" xmlns:xlink="http://www.w3.org/1999/xlink" version="1.1" width="72.2835000000" height="29.7637000000">
  <title><![CDATA[Business interaction]]></title>
  <g transform=" scale(1.000000) ">
    <path xmlns="http://www.w3.org/2000/svg" d="  M5.3152,0.0000 L66.9682,0.0000 C69.9037,0.0000 72.2835,2.3790 72.2835,5.3145 L72.2835,24.4485 C72.2835,27.3840 69.9037,29.7637 66.9682,29.7637 L5.3152,29.7637 C2.3797,29.7637 0.0000,27.3840 0.0000,24.4485 L0.0000,5.3145 C0.0000,2.3790 2.3797,0.0000 5.3152,0.0000 Z" style="fill-rule: evenodd; fill: #ffffaf; "/>
    <g xmlns="http://www.w3.org/2000/svg" id="Layer1028">
      <path d="  M5.3152,0.0000 L66.9682,0.0000 C69.9037,0.0000 72.2835,2.3790 72.2835,5.3145 L72.2835,24.4485 C72.2835,27.3840 69.9037,29.7637 66.9682,29.7637 L5.3152,29.7637 C2.3797,29.7637 0.0000,27.3840 0.0000,24.4485 L0.0000,5.3145 C0.0000,2.3790 2.3797,0.0000 5.3152,0.0000 Z" style="stroke-width: 0.6375; stroke-linecap: butt; stroke-linejoin: miter; fill-rule: evenodd; fill: #000000; fill-opacity: 0.0000; "/>
      <path d="  M5.3152,0.0000 L66.9682,0.0000 C69.9037,0.0000 72.2835,2.3790 72.2835,5.3145 L72.2835,24.4485 C72.2835,27.3840 69.9037,29.7637 66.9682,29.7637 L5.3152,29.7637 C2.3797,29.7637 0.0000,27.3840 0.0000,24.4485 L0.0000,5.3145 C0.0000,2.3790 2.3797,0.0000 5.3152,0.0000 Z" style="stroke-width: 0.6375; stroke: #000000; stroke-dasharray: none; stroke-linecap: butt; stroke-linejoin: miter; fill: none; fill-opacity: 0.0000; "/>
    </g>
    <g xmlns="http://www.w3.org/2000/svg" id="Layer1029">
      <path d="  M66.4755,8.4555 L66.4755,2.3078 C66.4755,2.3078 63.8835,2.3078 63.8835,5.3820 C63.8835,8.4555 66.4755,8.4555 66.4755,8.4555 Z" style="stroke-width: 0.3427; stroke-linecap: butt; stroke-linejoin: miter; fill-rule: evenodd; fill: #000000; fill-opacity: 0.0000; "/>
      <path d="  M66.4755,8.4555 L66.4755,2.3078 C66.4755,2.3078 63.8835,2.3078 63.8835,5.3820 C63.8835,8.4555 66.4755,8.4555 66.4755,8.4555 Z" style="stroke-width: 0.3427; stroke: #000000; stroke-dasharray: none; stroke-linecap: butt; stroke-linejoin: miter; fill: none; fill-opacity: 0.0000; "/>
    </g>
    <g xmlns="http://www.w3.org/2000/svg" id="Layer1030">
      <path d="  M67.5128,8.4555 L67.5128,2.3078 C67.5128,2.3078 70.1055,2.3078 70.1055,5.3820 C70.1055,8.4555 67.5128,8.4555 67.5128,8.4555 Z" style="stroke-width: 0.3427; stroke-linecap: butt; stroke-linejoin: miter; fill-rule: evenodd; fill: #000000; fill-opacity: 0.0000; "/>
      <path d="  M67.5128,8.4555 L67.5128,2.3078 C67.5128,2.3078 70.1055,2.3078 70.1055,5.3820 C70.1055,8.4555 67.5128,8.4555 67.5128,8.4555 Z" style="stroke-width: 0.3427; stroke: #000000; stroke-dasharray: none; stroke-linecap: butt; stroke-linejoin: miter; fill: none; fill-opacity: 0.0000; "/>
    </g>
    <text xmlns="http://www.w3.org/2000/svg" x="4.0000" y="14.8819">
      <tspan font-family="Arial" font-size="8.0000" fill="#000000" fill-opacity="1.0000" stroke-opacity="1.0000">
Business</tspan>
      <tspan font-family="Arial" font-size="8.0000" fill="#000000" fill-opacity="1.0000" stroke-opacity="1.0000">
interaction</tspan>
    </text>
    <!--converted by libvisio2svg-->
  </g>
</svg>
