<svg xmlns="http://www.w3.org/2000/svg" xmlns:xlink="http://www.w3.org/1999/xlink" version="1.1" width="42.5198000000" height="21.2602000000">
  <title><![CDATA[Business role 2]]></title>
  <g transform=" scale(1.000000) ">
    <path xmlns="http://www.w3.org/2000/svg" d="  M36.1417,0.0000 L6.3780,0.0000 C2.8552,0.0000 0.0000,4.7595 0.0000,10.6305 C0.0000,16.5007 2.8552,21.2602 6.3780,21.2602 L36.1417,21.2602 Z" style="fill-rule: evenodd; fill: #ffffaf; "/>
    <g xmlns="http://www.w3.org/2000/svg" id="Layer1008">
      <path d="  M36.1417,0.0000 L6.3780,0.0000 C2.8552,0.0000 0.0000,4.7595 0.0000,10.6305 C0.0000,16.5007 2.8552,21.2602 6.3780,21.2602 L36.1417,21.2602 Z" style="stroke-width: 0.6375; stroke-linecap: butt; stroke-linejoin: miter; fill-rule: evenodd; fill: #000000; fill-opacity: 0.0000; "/>
      <path d="  M36.1417,0.0000 L6.3780,0.0000 C2.8552,0.0000 0.0000,4.7595 0.0000,10.6305 C0.0000,16.5007 2.8552,21.2602 6.3780,21.2602 L36.1417,21.2602" style="stroke-width: 0.6375; stroke: #000000; stroke-dasharray: none; stroke-linecap: butt; stroke-linejoin: miter; fill: none; fill-opacity: 0.0000; "/>
    </g>
    <path xmlns="http://www.w3.org/2000/svg" d="  M42.5197,10.6305 C42.5197,16.5007 39.6637,21.2602 36.1417,21.2602 C32.6190,21.2602 29.7637,16.5007 29.7637,10.6305 C29.7637,4.7595 32.6190,0.0000 36.1417,0.0000 C39.6637,0.0000 42.5197,4.7595 42.5197,10.6305 Z" style="fill-rule: evenodd; fill: #ffffaf; "/>
    <g xmlns="http://www.w3.org/2000/svg" id="Layer1009">
      <path d="  M42.5197,10.6305 C42.5197,16.5007 39.6637,21.2602 36.1417,21.2602 C32.6190,21.2602 29.7637,16.5007 29.7637,10.6305 C29.7637,4.7595 32.6190,0.0000 36.1417,0.0000 C39.6637,0.0000 42.5197,4.7595 42.5197,10.6305 Z" style="stroke-width: 0.6375; stroke-linecap: butt; stroke-linejoin: miter; fill-rule: evenodd; fill: #000000; fill-opacity: 0.0000; "/>
      <path d="  M42.5197,10.6305 C42.5197,16.5007 39.6637,21.2602 36.1417,21.2602 C32.6190,21.2602 29.7637,16.5007 29.7637,10.6305 C29.7637,4.7595 32.6190,0.0000 36.1417,0.0000 C39.6637,0.0000 42.5197,4.7595 42.5197,10.6305 Z" style="stroke-width: 0.6375; stroke: #000000; stroke-dasharray: none; stroke-linecap: butt; stroke-linejoin: miter; fill: none; fill-opacity: 0.0000; "/>
    </g>
    <!--converted by libvisio2svg-->
  </g>
</svg>
