<svg xmlns="http://www.w3.org/2000/svg" xmlns:xlink="http://www.w3.org/1999/xlink" version="1.1" width="24.6885000000" height="37.7542000000">
  <title><![CDATA[Business actor 2]]></title>
  <g transform=" scale(1.000000) ">
    <path xmlns="http://www.w3.org/2000/svg" d="  M11.5215,17.3265 C12.5677,17.5807 12.0247,17.6040 13.1670,17.3265 L13.1670,19.3695 L24.6885,19.3695 L24.6885,20.0505 L13.1670,20.0505 L13.1670,26.1787 L24.6885,37.0732 L23.8657,37.7542 L12.3442,26.8597 L0.8227,37.7542 L0.0000,37.0732 L11.5215,26.1787 L11.5215,20.0505 L0.0000,20.0505 L0.0000,19.3695 L11.5215,19.3695 L11.5215,17.3265 Z" style="fill-rule: evenodd; fill: #000000; "/>
    <g xmlns="http://www.w3.org/2000/svg" id="Layer1003">
      <path d="  M11.5215,17.3265 C12.5677,17.5807 12.0247,17.6040 13.1670,17.3265 L13.1670,19.3695 L24.6885,19.3695 L24.6885,20.0505 L13.1670,20.0505 L13.1670,26.1787 L24.6885,37.0732 L23.8657,37.7542 L12.3442,26.8597 L0.8227,37.7542 L0.0000,37.0732 L11.5215,26.1787 L11.5215,20.0505 L0.0000,20.0505 L0.0000,19.3695 L11.5215,19.3695 L11.5215,17.3265 Z" style="stroke-width: 0.6975; stroke-linecap: butt; stroke-linejoin: miter; fill-rule: evenodd; fill: #000000; fill-opacity: 0.0000; "/>
      <path d="  M11.5215,17.3265 C12.5677,17.5807 12.0247,17.6040 13.1670,17.3265 L13.1670,19.3695 L24.6885,19.3695 L24.6885,20.0505 L13.1670,20.0505 L13.1670,26.1787 L24.6885,37.0732 L23.8657,37.7542 L12.3442,26.8597 L0.8227,37.7542 L0.0000,37.0732 L11.5215,26.1787 L11.5215,20.0505 L0.0000,20.0505 L0.0000,19.3695 L11.5215,19.3695 L11.5215,17.3265 Z" style="stroke-width: 0.6975; stroke: #000000; stroke-dasharray: none; stroke-linecap: butt; stroke-linejoin: miter; fill: none; fill-opacity: 0.0000; "/>
    </g>
    <path xmlns="http://www.w3.org/2000/svg" d="  M22.0350,8.0078 C22.0365,12.4305 17.6745,16.0162 12.2925,16.0162 C6.9112,16.0162 2.5485,12.4305 2.5500,8.0078 C2.5485,3.5858 6.9112,0.0000 12.2925,0.0000 C17.6745,0.0000 22.0365,3.5858 22.0350,8.0078 Z" style="fill-rule: evenodd; fill: #ffffff; "/>
    <g xmlns="http://www.w3.org/2000/svg" id="Layer1004">
      <path d="  M22.0350,8.0078 C22.0365,12.4305 17.6745,16.0162 12.2925,16.0162 C6.9112,16.0162 2.5485,12.4305 2.5500,8.0078 C2.5485,3.5858 6.9112,0.0000 12.2925,0.0000 C17.6745,0.0000 22.0365,3.5858 22.0350,8.0078 Z" style="stroke-width: 0.6975; stroke-linecap: butt; stroke-linejoin: miter; fill-rule: evenodd; fill: #ffffff; fill-opacity: 0.0000; "/>
      <path d="  M22.0350,8.0078 C22.0365,12.4305 17.6745,16.0162 12.2925,16.0162 C6.9112,16.0162 2.5485,12.4305 2.5500,8.0078 C2.5485,3.5858 6.9112,0.0000 12.2925,0.0000 C17.6745,0.0000 22.0365,3.5858 22.0350,8.0078 Z" style="stroke-width: 0.6975; stroke: #000000; stroke-dasharray: none; stroke-linecap: butt; stroke-linejoin: miter; fill: none; fill-opacity: 0.0000; "/>
    </g>
    <!--converted by libvisio2svg-->
  </g>
</svg>
