<svg xmlns:xlink="http://www.w3.org/1999/xlink" xmlns="http://www.w3.org/2000/svg" version="1.1" width="8.5043000000"
     height="5.1855000000">
    <title><![CDATA[Gap 2]]></title>
    <g transform=" scale(1.000000) ">
        <g xmlns="http://www.w3.org/2000/svg" id="Layer1000">
            <path d="  M6.8033,2.5927 C6.8033,4.0247 5.6610,5.1855 4.2518,5.1855 C2.8433,5.1855 1.7010,4.0247 1.7010,2.5927 C1.7010,1.1610 2.8433,0.0000 4.2518,0.0000 C5.6610,0.0000 6.8033,1.1610 6.8033,2.5927 Z"
                  style="stroke-width: 0.6375; stroke-linecap: butt; stroke-linejoin: miter; fill-rule: evenodd; fill: #000000; fill-opacity: 0.0000; "/>
            <path d="  M6.8033,2.5927 C6.8033,4.0247 5.6610,5.1855 4.2518,5.1855 C2.8433,5.1855 1.7010,4.0247 1.7010,2.5927 C1.7010,1.1610 2.8433,0.0000 4.2518,0.0000 C5.6610,0.0000 6.8033,1.1610 6.8033,2.5927 Z"
                  style="stroke-width: 0.6375; stroke: #000000; stroke-dasharray: none; stroke-linecap: butt; stroke-linejoin: miter; fill: none; fill-opacity: 0.0000; "/>
        </g>
        <g xmlns="http://www.w3.org/2000/svg" id="Layer1001">
            <path d="  M0.0000,1.7287 L8.5043,1.7287"
                  style="stroke-width: 0.6375; stroke-linecap: butt; stroke-linejoin: miter; fill-rule: evenodd; fill: #000000; fill-opacity: 0.0000; "/>
            <path d="  M0.0000,1.7287 L8.5043,1.7287"
                  style="stroke-width: 0.6375; stroke: #000000; stroke-dasharray: none; stroke-linecap: butt; stroke-linejoin: miter; fill: none; fill-opacity: 0.0000; "/>
        </g>
        <!--converted by libvisio2svg-->
    </g>
</svg>
