<svg xmlns="http://www.w3.org/2000/svg" xmlns:xlink="http://www.w3.org/1999/xlink" version="1.1" width="42.5197000000" height="21.2595000000">
  <title><![CDATA[Implementation event 2]]></title>
  <g transform=" scale(1.000000) ">
    <path xmlns="http://www.w3.org/2000/svg" d="  M0.0000,0.0000 L31.8900,0.0000 C37.7602,0.0000 42.5197,4.7588 42.5197,10.6298 C42.5197,16.5000 37.7602,21.2595 31.8900,21.2595 L0.0000,21.2595 L6.3780,10.6298 L0.0000,0.0000 Z" style="fill-rule: evenodd; fill: #ffe0e0; "/>
    <g xmlns="http://www.w3.org/2000/svg" id="Layer1003">
      <path d="  M0.0000,0.0000 L31.8900,0.0000 C37.7602,0.0000 42.5197,4.7588 42.5197,10.6298 C42.5197,16.5000 37.7602,21.2595 31.8900,21.2595 L0.0000,21.2595 L6.3780,10.6298 L0.0000,0.0000 Z" style="stroke-width: 0.6375; stroke-linecap: butt; stroke-linejoin: miter; fill-rule: evenodd; fill: #000000; fill-opacity: 0.0000; "/>
      <path d="  M0.0000,0.0000 L31.8900,0.0000 C37.7602,0.0000 42.5197,4.7588 42.5197,10.6298 C42.5197,16.5000 37.7602,21.2595 31.8900,21.2595 L0.0000,21.2595 L6.3780,10.6298 L0.0000,0.0000 Z" style="stroke-width: 0.6375; stroke: #000000; stroke-dasharray: none; stroke-linecap: butt; stroke-linejoin: miter; fill: none; fill-opacity: 0.0000; "/>
    </g>
    <!--converted by libvisio2svg-->
  </g>
</svg>
