<svg xmlns="http://www.w3.org/2000/svg" xmlns:xlink="http://www.w3.org/1999/xlink" version="1.1" width="85.0387000000" height="34.0155000000">
  <title><![CDATA[Work package]]></title>
  <g transform=" scale(1.000000) ">
    <path xmlns="http://www.w3.org/2000/svg" d="  M5.3145,0.0000 L79.7242,0.0000 C82.6597,0.0000 85.0387,2.3790 85.0387,5.3145 L85.0387,28.7002 C85.0387,31.6357 82.6597,34.0155 79.7242,34.0155 L5.3145,34.0155 C2.3790,34.0155 0.0000,31.6357 0.0000,28.7002 L0.0000,5.3145 C0.0000,2.3790 2.3790,0.0000 5.3145,0.0000 Z" style="fill-rule: evenodd; fill: #ffe0e0; "/>
    <g xmlns="http://www.w3.org/2000/svg" id="Layer1000">
      <path d="  M5.3145,0.0000 L79.7242,0.0000 C82.6597,0.0000 85.0387,2.3790 85.0387,5.3145 L85.0387,28.7002 C85.0387,31.6357 82.6597,34.0155 79.7242,34.0155 L5.3145,34.0155 C2.3790,34.0155 0.0000,31.6357 0.0000,28.7002 L0.0000,5.3145 C0.0000,2.3790 2.3790,0.0000 5.3145,0.0000 Z" style="stroke-width: 0.6375; stroke-linecap: butt; stroke-linejoin: miter; fill-rule: evenodd; fill: #000000; fill-opacity: 0.0000; "/>
      <path d="  M5.3145,0.0000 L79.7242,0.0000 C82.6597,0.0000 85.0387,2.3790 85.0387,5.3145 L85.0387,28.7002 C85.0387,31.6357 82.6597,34.0155 79.7242,34.0155 L5.3145,34.0155 C2.3790,34.0155 0.0000,31.6357 0.0000,28.7002 L0.0000,5.3145 C0.0000,2.3790 2.3790,0.0000 5.3145,0.0000 Z" style="stroke-width: 0.6375; stroke: #000000; stroke-dasharray: none; stroke-linecap: butt; stroke-linejoin: miter; fill: none; fill-opacity: 0.0000; "/>
    </g>
    <text xmlns="http://www.w3.org/2000/svg" x="4.0000" y="17.0078">
      <tspan font-family="Arial" font-size="8.0000" fill="#000000" fill-opacity="1.0000" stroke-opacity="1.0000">
Work</tspan>
      <tspan font-family="Arial" font-size="8.0000" fill="#000000" fill-opacity="1.0000" stroke-opacity="1.0000">
package</tspan>
    </text>
    <!--converted by libvisio2svg-->
  </g>
</svg>
