<svg xmlns="http://www.w3.org/2000/svg" xmlns:xlink="http://www.w3.org/1999/xlink" version="1.1" width="72.2835000000" height="29.7637000000">
  <title><![CDATA[Equipment]]></title>
  <g transform=" scale(1.000000) ">
    <path xmlns="http://www.w3.org/2000/svg" d="  M0.0000,6.3780 L6.3780,0.0000 L72.2835,0.0000 L72.2835,23.3858 L65.9055,29.7637 L0.0000,29.7637 L0.0000,6.3780 Z" style="fill-rule: evenodd; fill: #afffaf; "/>
    <g xmlns="http://www.w3.org/2000/svg" id="Layer1003">
      <path d="  M0.0000,6.3780 L6.3780,0.0000 L72.2835,0.0000 L72.2835,23.3858 L65.9055,29.7637 L0.0000,29.7637 L0.0000,6.3780 Z" style="stroke-width: 0.6375; stroke-linecap: round; stroke-linejoin: round; fill-rule: evenodd; fill: #000000; fill-opacity: 0.0000; "/>
      <path d="  M0.0000,6.3780 L6.3780,0.0000 L72.2835,0.0000 L72.2835,23.3858 L65.9055,29.7637 L0.0000,29.7637 L0.0000,6.3780 Z" style="stroke-width: 0.6375; stroke: #000000; stroke-dasharray: none; stroke-linecap: round; stroke-linejoin: round; fill: none; fill-opacity: 0.0000; "/>
    </g>
    <g xmlns="http://www.w3.org/2000/svg" id="Layer1004">
      <path d="  M0.0000,6.3780 L65.9055,6.3780 L65.9055,29.7637 Z M65.9055,6.3780 L72.2835,0.0000 Z" style="stroke-width: 0.6375; stroke-linecap: round; stroke-linejoin: round; fill-rule: evenodd; fill: #000000; fill-opacity: 0.0000; "/>
      <path d="  M0.0000,6.3780 L65.9055,6.3780 L65.9055,29.7637 M65.9055,6.3780 L72.2835,0.0000" style="stroke-width: 0.6375; stroke: #000000; stroke-dasharray: none; stroke-linecap: round; stroke-linejoin: round; fill: none; fill-opacity: 0.0000; "/>
    </g>
    <g xmlns="http://www.w3.org/2000/svg" id="Layer1005">
      <path d="  M57.7162,16.9372 C57.3825,16.8660 57.1162,16.7805 57.1005,16.7400 C57.0892,16.7092 57.1357,16.3620 57.1845,16.1212 C57.2002,16.0432 57.1927,16.0343 57.0525,15.9540 C56.9707,15.9075 56.8560,15.8265 56.7975,15.7732 L56.6917,15.6765 L56.3677,15.8138 C56.1892,15.8895 56.0227,15.9510 55.9972,15.9510 C55.9155,15.9502 55.5007,15.3217 55.5007,15.1995 C55.5007,15.1793 55.6357,15.0713 55.8015,14.9587 L56.1015,14.7547 L56.0670,14.5725 C56.0482,14.4728 56.0235,14.3325 56.0115,14.2605 L55.9905,14.1292 L55.6530,14.0100 C55.3177,13.8915 55.3147,13.8900 55.3155,13.8075 C55.3162,13.6800 55.4107,13.2780 55.4760,13.1265 C55.5435,12.9675 55.5225,12.9712 55.9747,13.0455 C56.1555,13.0747 56.3047,13.0958 56.3070,13.0920 C56.3385,13.0320 56.4892,12.8430 56.5830,12.7447 L56.7045,12.6172 L56.5530,12.3112 C56.4697,12.1425 56.4015,11.9895 56.4015,11.9715 C56.4015,11.8913 57.0547,11.5252 57.1980,11.5252 C57.2550,11.5252 57.3045,11.5740 57.4747,11.7983 C57.5887,11.9490 57.6847,12.0750 57.6877,12.0795 C57.6907,12.0840 57.7447,12.0742 57.8085,12.0585 C57.8722,12.0420 58.0237,12.0210 58.1445,12.0105 L58.3650,11.9918 L58.4895,11.6722 C58.5945,11.4037 58.6245,11.3505 58.6755,11.3430 C58.8037,11.3250 59.5275,11.5125 59.5635,11.5740 C59.5695,11.5837 59.5485,11.7495 59.5162,11.9415 L59.4570,12.2918 L59.6032,12.3795 C59.6827,12.4275 59.7937,12.5078 59.8492,12.5580 L59.9497,12.6495 L60.2640,12.5137 C60.4365,12.4395 60.6015,12.3780 60.6315,12.3780 C60.6952,12.3780 60.7245,12.4095 60.9060,12.6712 C60.9825,12.7815 61.0380,12.8520 61.0297,12.8280 C61.0215,12.8047 61.0065,12.6892 60.9967,12.5723 L60.9780,12.3600 L60.8557,12.3285 C60.7882,12.3105 60.6855,12.2745 60.6270,12.2490 L60.5212,12.2018 L60.3097,12.3697 C60.1935,12.4627 60.0862,12.5385 60.0712,12.5377 C59.9932,12.5377 59.5275,12.1125 59.5275,12.0420 C59.5275,12.0232 59.6047,11.9190 59.7000,11.8102 L59.8717,11.6115 L59.7907,11.4285 C59.7457,11.3280 59.6992,11.2275 59.6880,11.2050 C59.6737,11.1765 59.5905,11.1577 59.3962,11.1390 C59.2035,11.1195 59.1195,11.1007 59.1045,11.0723 C59.0505,10.9688 59.0527,10.4475 59.1075,10.3927 C59.1142,10.3860 59.2492,10.3650 59.4075,10.3462 L59.6947,10.3125 L59.7405,10.1753 C59.7660,10.1002 59.8072,10.0080 59.8320,9.9698 L59.8770,9.9000 L59.6865,9.6878 L59.4952,9.4748 L59.5492,9.4005 C59.6580,9.2490 59.9805,8.9662 60.0442,8.9662 C60.0615,8.9662 60.1747,9.0420 60.2947,9.1358 L60.5130,9.3045 L60.7155,9.2160 C60.8272,9.1665 60.9315,9.1268 60.9472,9.1260 C60.9652,9.1260 60.9892,9.0165 61.0072,8.8545 C61.0245,8.7052 61.0447,8.5762 61.0530,8.5680 C61.0612,8.5598 61.2285,8.5530 61.4250,8.5530 C61.7010,8.5530 61.7865,8.5612 61.8037,8.5897 C61.8165,8.6108 61.8345,8.7068 61.8442,8.8035 C61.8765,9.1335 61.8795,9.1403 61.9867,9.1710 C62.0400,9.1868 62.1382,9.2205 62.2042,9.2460 L62.3250,9.2932 L62.5357,9.1298 C62.6512,9.0398 62.7630,8.9662 62.7832,8.9662 C62.8635,8.9662 63.3157,9.3885 63.3157,9.4635 C63.3157,9.4860 63.2362,9.5932 63.1395,9.7020 L62.9640,9.9000 L63.0472,10.0815 C63.0930,10.1812 63.1305,10.2765 63.1305,10.2922 C63.1305,10.3095 63.2242,10.3282 63.3622,10.3380 C63.7260,10.3650 63.7305,10.3672 63.7492,10.4805 C63.7702,10.6073 63.7702,10.8975 63.7492,11.0235 L63.7335,11.1217 L63.5572,11.1383 C63.4612,11.1472 63.3285,11.1607 63.2625,11.1682 L63.1432,11.1832 L63.0600,11.3828 L62.9760,11.5822 L63.1590,11.7847 C63.2595,11.8957 63.3420,12.0000 63.3420,12.0150 C63.3420,12.0660 62.8725,12.5115 62.8192,12.5115 C62.7907,12.5115 62.6692,12.4380 62.5500,12.3488 L62.3325,12.1860 L62.1817,12.2520 C62.0985,12.2887 61.9987,12.3262 61.9605,12.3353 C61.8832,12.3533 61.8772,12.3743 61.8427,12.7320 C61.8225,12.9502 61.8360,12.9443 61.3777,12.9330 L61.0462,12.9247 L61.0942,13.0050 C61.1212,13.0485 61.1430,13.1025 61.1422,13.1250 C61.1422,13.1468 61.0035,13.2592 60.8355,13.3747 C60.5527,13.5683 60.5302,13.5900 60.5437,13.6545 C60.5520,13.6927 60.5737,13.8270 60.5917,13.9530 L60.6240,14.1810 L60.9652,14.2980 C61.1527,14.3625 61.3117,14.4247 61.3185,14.4360 C61.3620,14.5065 61.1400,15.2768 61.0680,15.3045 C61.0350,15.3172 60.4560,15.2460 60.3465,15.2153 C60.3210,15.2077 60.2932,15.2287 60.2752,15.2677 C60.2587,15.3037 60.1800,15.4110 60.0990,15.5070 L59.9527,15.6803 L60.1005,15.9892 C60.1815,16.1595 60.2415,16.3147 60.2340,16.3357 C60.2115,16.3943 59.9130,16.5870 59.6692,16.7002 C59.5470,16.7572 59.4367,16.8037 59.4247,16.8037 C59.4127,16.8037 59.3100,16.6807 59.1960,16.5300 C59.0820,16.3800 58.9815,16.2480 58.9710,16.2360 C58.9612,16.2248 58.8772,16.2337 58.7835,16.2562 C58.6897,16.2780 58.5435,16.2967 58.4587,16.2967 C58.3335,16.2967 58.3012,16.3057 58.2915,16.3440 C58.2510,16.4970 58.0245,16.9770 57.9907,16.9815 C57.9690,16.9845 57.8452,16.9643 57.7162,16.9372 Z" style="stroke-width: 0.4237; stroke-linecap: round; stroke-linejoin: round; fill-rule: evenodd; fill: #000000; fill-opacity: 0.0000; "/>
      <path d="  M57.7162,16.9372 C57.3825,16.8660 57.1162,16.7805 57.1005,16.7400 C57.0892,16.7092 57.1357,16.3620 57.1845,16.1212 C57.2002,16.0432 57.1927,16.0343 57.0525,15.9540 C56.9707,15.9075 56.8560,15.8265 56.7975,15.7732 L56.6917,15.6765 L56.3677,15.8138 C56.1892,15.8895 56.0227,15.9510 55.9972,15.9510 C55.9155,15.9502 55.5007,15.3217 55.5007,15.1995 C55.5007,15.1793 55.6357,15.0713 55.8015,14.9587 L56.1015,14.7547 L56.0670,14.5725 C56.0482,14.4728 56.0235,14.3325 56.0115,14.2605 L55.9905,14.1292 L55.6530,14.0100 C55.3177,13.8915 55.3147,13.8900 55.3155,13.8075 C55.3162,13.6800 55.4107,13.2780 55.4760,13.1265 C55.5435,12.9675 55.5225,12.9712 55.9747,13.0455 C56.1555,13.0747 56.3047,13.0958 56.3070,13.0920 C56.3385,13.0320 56.4892,12.8430 56.5830,12.7447 L56.7045,12.6172 L56.5530,12.3112 C56.4697,12.1425 56.4015,11.9895 56.4015,11.9715 C56.4015,11.8913 57.0547,11.5252 57.1980,11.5252 C57.2550,11.5252 57.3045,11.5740 57.4747,11.7983 C57.5887,11.9490 57.6847,12.0750 57.6877,12.0795 C57.6907,12.0840 57.7447,12.0742 57.8085,12.0585 C57.8722,12.0420 58.0237,12.0210 58.1445,12.0105 L58.3650,11.9918 L58.4895,11.6722 C58.5945,11.4037 58.6245,11.3505 58.6755,11.3430 C58.8037,11.3250 59.5275,11.5125 59.5635,11.5740 C59.5695,11.5837 59.5485,11.7495 59.5162,11.9415 L59.4570,12.2918 L59.6032,12.3795 C59.6827,12.4275 59.7937,12.5078 59.8492,12.5580 L59.9497,12.6495 L60.2640,12.5137 C60.4365,12.4395 60.6015,12.3780 60.6315,12.3780 C60.6952,12.3780 60.7245,12.4095 60.9060,12.6712 C60.9825,12.7815 61.0380,12.8520 61.0297,12.8280 C61.0215,12.8047 61.0065,12.6892 60.9967,12.5723 L60.9780,12.3600 L60.8557,12.3285 C60.7882,12.3105 60.6855,12.2745 60.6270,12.2490 L60.5212,12.2018 L60.3097,12.3697 C60.1935,12.4627 60.0862,12.5385 60.0712,12.5377 C59.9932,12.5377 59.5275,12.1125 59.5275,12.0420 C59.5275,12.0232 59.6047,11.9190 59.7000,11.8102 L59.8717,11.6115 L59.7907,11.4285 C59.7457,11.3280 59.6992,11.2275 59.6880,11.2050 C59.6737,11.1765 59.5905,11.1577 59.3962,11.1390 C59.2035,11.1195 59.1195,11.1007 59.1045,11.0723 C59.0505,10.9688 59.0527,10.4475 59.1075,10.3927 C59.1142,10.3860 59.2492,10.3650 59.4075,10.3462 L59.6947,10.3125 L59.7405,10.1753 C59.7660,10.1002 59.8072,10.0080 59.8320,9.9698 L59.8770,9.9000 L59.6865,9.6878 L59.4952,9.4748 L59.5492,9.4005 C59.6580,9.2490 59.9805,8.9662 60.0442,8.9662 C60.0615,8.9662 60.1747,9.0420 60.2947,9.1358 L60.5130,9.3045 L60.7155,9.2160 C60.8272,9.1665 60.9315,9.1268 60.9472,9.1260 C60.9652,9.1260 60.9892,9.0165 61.0072,8.8545 C61.0245,8.7052 61.0447,8.5762 61.0530,8.5680 C61.0612,8.5598 61.2285,8.5530 61.4250,8.5530 C61.7010,8.5530 61.7865,8.5612 61.8037,8.5897 C61.8165,8.6108 61.8345,8.7068 61.8442,8.8035 C61.8765,9.1335 61.8795,9.1403 61.9867,9.1710 C62.0400,9.1868 62.1382,9.2205 62.2042,9.2460 L62.3250,9.2932 L62.5357,9.1298 C62.6512,9.0398 62.7630,8.9662 62.7832,8.9662 C62.8635,8.9662 63.3157,9.3885 63.3157,9.4635 C63.3157,9.4860 63.2362,9.5932 63.1395,9.7020 L62.9640,9.9000 L63.0472,10.0815 C63.0930,10.1812 63.1305,10.2765 63.1305,10.2922 C63.1305,10.3095 63.2242,10.3282 63.3622,10.3380 C63.7260,10.3650 63.7305,10.3672 63.7492,10.4805 C63.7702,10.6073 63.7702,10.8975 63.7492,11.0235 L63.7335,11.1217 L63.5572,11.1383 C63.4612,11.1472 63.3285,11.1607 63.2625,11.1682 L63.1432,11.1832 L63.0600,11.3828 L62.9760,11.5822 L63.1590,11.7847 C63.2595,11.8957 63.3420,12.0000 63.3420,12.0150 C63.3420,12.0660 62.8725,12.5115 62.8192,12.5115 C62.7907,12.5115 62.6692,12.4380 62.5500,12.3488 L62.3325,12.1860 L62.1817,12.2520 C62.0985,12.2887 61.9987,12.3262 61.9605,12.3353 C61.8832,12.3533 61.8772,12.3743 61.8427,12.7320 C61.8225,12.9502 61.8360,12.9443 61.3777,12.9330 L61.0462,12.9247 L61.0942,13.0050 C61.1212,13.0485 61.1430,13.1025 61.1422,13.1250 C61.1422,13.1468 61.0035,13.2592 60.8355,13.3747 C60.5527,13.5683 60.5302,13.5900 60.5437,13.6545 C60.5520,13.6927 60.5737,13.8270 60.5917,13.9530 L60.6240,14.1810 L60.9652,14.2980 C61.1527,14.3625 61.3117,14.4247 61.3185,14.4360 C61.3620,14.5065 61.1400,15.2768 61.0680,15.3045 C61.0350,15.3172 60.4560,15.2460 60.3465,15.2153 C60.3210,15.2077 60.2932,15.2287 60.2752,15.2677 C60.2587,15.3037 60.1800,15.4110 60.0990,15.5070 L59.9527,15.6803 L60.1005,15.9892 C60.1815,16.1595 60.2415,16.3147 60.2340,16.3357 C60.2115,16.3943 59.9130,16.5870 59.6692,16.7002 C59.5470,16.7572 59.4367,16.8037 59.4247,16.8037 C59.4127,16.8037 59.3100,16.6807 59.1960,16.5300 C59.0820,16.3800 58.9815,16.2480 58.9710,16.2360 C58.9612,16.2248 58.8772,16.2337 58.7835,16.2562 C58.6897,16.2780 58.5435,16.2967 58.4587,16.2967 C58.3335,16.2967 58.3012,16.3057 58.2915,16.3440 C58.2510,16.4970 58.0245,16.9770 57.9907,16.9815 C57.9690,16.9845 57.8452,16.9643 57.7162,16.9372 Z" style="stroke-width: 0.4237; stroke: #000000; stroke-dasharray: none; stroke-linecap: round; stroke-linejoin: round; fill: none; fill-opacity: 0.0000; "/>
    </g>
    <g xmlns="http://www.w3.org/2000/svg" id="Layer1006">
      <path d="  M58.1107,15.3893 C57.7927,15.3353 57.4627,15.1613 57.2865,14.9550 C57.2347,14.8943 57.1500,14.7570 57.0975,14.6505 C56.8110,14.0685 57.0750,13.3448 57.6825,13.0448 C58.1205,12.8280 58.5457,12.8295 58.9972,13.0500 C59.4307,13.2615 59.7262,13.7873 59.6737,14.2545 C59.6550,14.4210 59.5770,14.6580 59.4967,14.7908 C59.4015,14.9490 59.1712,15.1537 58.9845,15.2460 C58.6882,15.3930 58.4070,15.4388 58.1107,15.3893 Z" style="stroke-width: 0.4237; stroke-linecap: round; stroke-linejoin: round; fill-rule: evenodd; fill: #000000; fill-opacity: 0.0000; "/>
      <path d="  M58.1107,15.3893 C57.7927,15.3353 57.4627,15.1613 57.2865,14.9550 C57.2347,14.8943 57.1500,14.7570 57.0975,14.6505 C56.8110,14.0685 57.0750,13.3448 57.6825,13.0448 C58.1205,12.8280 58.5457,12.8295 58.9972,13.0500 C59.4307,13.2615 59.7262,13.7873 59.6737,14.2545 C59.6550,14.4210 59.5770,14.6580 59.4967,14.7908 C59.4015,14.9490 59.1712,15.1537 58.9845,15.2460 C58.6882,15.3930 58.4070,15.4388 58.1107,15.3893 Z" style="stroke-width: 0.4237; stroke: #000000; stroke-dasharray: none; stroke-linecap: round; stroke-linejoin: round; fill: none; fill-opacity: 0.0000; "/>
    </g>
    <g xmlns="http://www.w3.org/2000/svg" id="Layer1007">
      <path d="  M61.1167,11.7285 C60.9112,11.6715 60.7905,11.5995 60.6247,11.4330 C60.4147,11.2238 60.3412,11.0430 60.3412,10.7385 C60.3412,10.4700 60.4125,10.2720 60.5752,10.0898 C60.8265,9.8085 61.1047,9.6975 61.5060,9.7185 C61.7145,9.7298 61.7790,9.7447 61.9252,9.8175 C62.2747,9.9908 62.4922,10.3005 62.5155,10.6583 C62.5312,10.9132 62.4862,11.0910 62.3565,11.2867 C62.1045,11.6678 61.5757,11.8560 61.1167,11.7285 Z" style="stroke-width: 0.4237; stroke-linecap: round; stroke-linejoin: round; fill-rule: evenodd; fill: #000000; fill-opacity: 0.0000; "/>
      <path d="  M61.1167,11.7285 C60.9112,11.6715 60.7905,11.5995 60.6247,11.4330 C60.4147,11.2238 60.3412,11.0430 60.3412,10.7385 C60.3412,10.4700 60.4125,10.2720 60.5752,10.0898 C60.8265,9.8085 61.1047,9.6975 61.5060,9.7185 C61.7145,9.7298 61.7790,9.7447 61.9252,9.8175 C62.2747,9.9908 62.4922,10.3005 62.5155,10.6583 C62.5312,10.9132 62.4862,11.0910 62.3565,11.2867 C62.1045,11.6678 61.5757,11.8560 61.1167,11.7285 Z" style="stroke-width: 0.4237; stroke: #000000; stroke-dasharray: none; stroke-linecap: round; stroke-linejoin: round; fill: none; fill-opacity: 0.0000; "/>
    </g>
    <text xmlns="http://www.w3.org/2000/svg" x="4.0000" y="14.8819">
      <tspan font-family="Arial" font-size="8.0000" fill="#000000" fill-opacity="1.0000" stroke-opacity="1.0000">
Equipment</tspan>
    </text>
    <!--converted by libvisio2svg-->
  </g>
</svg>
