<?xml version="1.0" encoding="UTF-8"?>
<svg xmlns="http://www.w3.org/2000/svg" xmlns:xlink="http://www.w3.org/1999/xlink" width="160" height="95" viewBox="0 0 160 95"><defs><marker id="arrowhead" markerWidth="8" markerHeight="8" refX="6" refY="4" orient="auto"><polygon points="0 0, 8 4, 0 8" fill="black" /></marker><marker id="arrow-filled" markerWidth="8" markerHeight="8" refX="6" refY="4" orient="auto"><polygon points="0 0, 8 4, 0 8" fill="black" /></marker><marker id="arrow-hollow" markerWidth="8" markerHeight="8" refX="6" refY="4" orient="auto"><polygon points="0 0, 8 4, 0 8" fill="none" stroke="black" stroke-width="1" /></marker><marker id="diamond-filled" markerWidth="8" markerHeight="8" refX="4" refY="4" orient="auto"><polygon points="4 0, 8 4, 4 8, 0 4" fill="black" /></marker><marker id="diamond-hollow" markerWidth="8" markerHeight="8" refX="4" refY="4" orient="auto"><polygon points="4 0, 8 4, 4 8, 0 4" fill="none" stroke="black" stroke-width="1" /></marker></defs><rect x="0" y="0" width="160" height="95" fill="white" stroke="none" /><g class="node"><rect x="20" y="20" width="120" height="55" fill="#daf0f8" stroke="none" /><rect x="20" y="20" width="120" height="55" fill="none" stroke="black" stroke-width="1" /><path d="M 118 31 a -7.5 26.5 -13 22,-13 32,0 a -7.5 26.5 -13 22,-13 10,0 M 123.5 31 a -7.5 26.5 -13 22,-13 32,0 a -7.5 26.5 -13 22,-13 10,0" fill="none" stroke="black" stroke-width="1" /><text x="80" y="47" text-anchor="middle" font-family="Arial, sans-serif" font-size="10" fill="black">AC</text></g></svg>