<svg xmlns="http://www.w3.org/2000/svg" xmlns:xlink="http://www.w3.org/1999/xlink" version="1.1" width="72.2835000000" height="29.7638000000">
  <title><![CDATA[Location]]></title>
  <g transform=" scale(1.000000) ">
    <path xmlns="http://www.w3.org/2000/svg" d="  M0.0000,0.0000 L72.2835,0.0000 L72.2835,29.7638 L0.0000,29.7638 L0.0000,0.0000 Z" style="fill-rule: evenodd; fill: #ffb973; "/>
    <g xmlns="http://www.w3.org/2000/svg" id="Layer1000">
      <path d="  M0.0000,0.0000 L72.2835,0.0000 L72.2835,29.7638 L0.0000,29.7638 L0.0000,0.0000 Z" style="stroke-width: 0.6375; stroke-linecap: butt; stroke-linejoin: miter; fill-rule: evenodd; fill: #000000; fill-opacity: 0.0000; "/>
      <path d="  M0.0000,0.0000 L72.2835,0.0000 L72.2835,29.7638 L0.0000,29.7638 L0.0000,0.0000 Z" style="stroke-width: 0.6375; stroke: #000000; stroke-dasharray: none; stroke-linecap: butt; stroke-linejoin: miter; fill: none; fill-opacity: 0.0000; "/>
    </g>
    <g xmlns="http://www.w3.org/2000/svg" id="Layer1001">
      <path d="  M67.5105,10.6237 C67.3140,9.6698 66.9683,8.8762 66.5490,8.1405 C66.2385,7.5952 65.8778,7.0912 65.5448,6.5625 C65.4338,6.3855 65.3378,6.1995 65.2305,6.0157 C65.0168,5.6497 64.8435,5.2245 64.8548,4.6732 C64.8653,4.1347 65.0228,3.7027 65.2500,3.3495 C65.6228,2.7682 66.2483,2.2920 67.0868,2.1667 C67.7723,2.0647 68.4150,2.2372 68.8710,2.5012 C69.2438,2.7172 69.5325,3.0052 69.7515,3.3450 C69.9803,3.6990 70.1385,4.1175 70.1513,4.6635 C70.1580,4.9440 70.1123,5.2027 70.0470,5.4180 C69.9810,5.6355 69.8745,5.8170 69.7800,6.0113 C69.5963,6.3908 69.3653,6.7380 69.1328,7.0852 C68.4428,8.1210 67.7940,9.1770 67.5105,10.6237 Z" style="stroke-width: 0.4298; stroke-linecap: butt; stroke-linejoin: miter; fill-rule: evenodd; fill: #000000; fill-opacity: 0.0000; "/>
      <path d="  M67.5105,10.6237 C67.3140,9.6698 66.9683,8.8762 66.5490,8.1405 C66.2385,7.5952 65.8778,7.0912 65.5448,6.5625 C65.4338,6.3855 65.3378,6.1995 65.2305,6.0157 C65.0168,5.6497 64.8435,5.2245 64.8548,4.6732 C64.8653,4.1347 65.0228,3.7027 65.2500,3.3495 C65.6228,2.7682 66.2483,2.2920 67.0868,2.1667 C67.7723,2.0647 68.4150,2.2372 68.8710,2.5012 C69.2438,2.7172 69.5325,3.0052 69.7515,3.3450 C69.9803,3.6990 70.1385,4.1175 70.1513,4.6635 C70.1580,4.9440 70.1123,5.2027 70.0470,5.4180 C69.9810,5.6355 69.8745,5.8170 69.7800,6.0113 C69.5963,6.3908 69.3653,6.7380 69.1328,7.0852 C68.4428,8.1210 67.7940,9.1770 67.5105,10.6237 Z" style="stroke-width: 0.4298; stroke: #000000; stroke-dasharray: none; stroke-linecap: butt; stroke-linejoin: miter; fill: none; fill-opacity: 0.0000; "/>
    </g>
    <text xmlns="http://www.w3.org/2000/svg" x="4.0000" y="14.8819">
      <tspan font-family="Arial" font-size="8.0000" fill="#000000" fill-opacity="1.0000" stroke-opacity="1.0000">
Location</tspan>
    </text>
    <!--converted by libvisio2svg-->
  </g>
</svg>
