<svg xmlns:xlink="http://www.w3.org/1999/xlink" xmlns="http://www.w3.org/2000/svg" version="1.1" width="5.3032000000"
     height="8.5590000000">
    <title><![CDATA[Location 2]]></title>
    <g transform=" scale(1.000000) ">
        <g xmlns="http://www.w3.org/2000/svg" id="Layer1000">
            <path d="  M2.6557,8.5590 C2.4592,7.6051 2.1135,6.8115 1.6942,6.0758 C1.3837,5.5305 1.0230,5.0265 0.6900,4.4978 C0.5790,4.3208 0.4830,4.1348 0.3757,3.9510 C0.1620,3.5850 -0.0113,3.1598 0.0000,2.6085 C0.0105,2.0700 0.1680,1.6380 0.3952,1.2848 C0.7680,0.7035 1.3935,0.2273 2.2320,0.1020 C2.9175,0.0000 3.5602,0.1725 4.0162,0.4365 C4.3890,0.6525 4.6777,0.9405 4.8967,1.2803 C5.1255,1.6343 5.2837,2.0528 5.2965,2.5988 C5.3032,2.8793 5.2575,3.1380 5.1922,3.3533 C5.1262,3.5708 5.0197,3.7523 4.9252,3.9466 C4.7415,4.3261 4.5105,4.6733 4.2780,5.0205 C3.5880,6.0563 2.9392,7.1123 2.6557,8.5590 Z"
                  style="stroke-width: 0.6375; stroke-linecap: butt; stroke-linejoin: miter; fill-rule: evenodd; fill: #000000; fill-opacity: 0.0000; "/>
            <path d="  M2.6557,8.5590 C2.4592,7.6051 2.1135,6.8115 1.6942,6.0758 C1.3837,5.5305 1.0230,5.0265 0.6900,4.4978 C0.5790,4.3208 0.4830,4.1348 0.3757,3.9510 C0.1620,3.5850 -0.0113,3.1598 0.0000,2.6085 C0.0105,2.0700 0.1680,1.6380 0.3952,1.2848 C0.7680,0.7035 1.3935,0.2273 2.2320,0.1020 C2.9175,0.0000 3.5602,0.1725 4.0162,0.4365 C4.3890,0.6525 4.6777,0.9405 4.8967,1.2803 C5.1255,1.6343 5.2837,2.0528 5.2965,2.5988 C5.3032,2.8793 5.2575,3.1380 5.1922,3.3533 C5.1262,3.5708 5.0197,3.7523 4.9252,3.9466 C4.7415,4.3261 4.5105,4.6733 4.2780,5.0205 C3.5880,6.0563 2.9392,7.1123 2.6557,8.5590 Z"
                  style="stroke-width: 0.6375; stroke: #000000; stroke-dasharray: none; stroke-linecap: butt; stroke-linejoin: miter; fill: none; fill-opacity: 0.0000; "/>
        </g>
        <!--converted by libvisio2svg-->
    </g>
</svg>
