<svg xmlns="http://www.w3.org/2000/svg" xmlns:xlink="http://www.w3.org/1999/xlink" version="1.1" width="72.2835000000" height="29.7638000000">
  <title><![CDATA[Artifact]]></title>
  <g transform=" scale(1.000000) ">
    <path xmlns="http://www.w3.org/2000/svg" d="  M0.0000,0.0000 L72.2835,0.0000 L72.2835,29.7637 L0.0000,29.7637 L0.0000,0.0000 Z" style="fill-rule: evenodd; fill: #afffaf; "/>
    <g xmlns="http://www.w3.org/2000/svg" id="Layer1048">
      <path d="  M0.0000,0.0000 L72.2835,0.0000 L72.2835,29.7637 L0.0000,29.7637 L0.0000,0.0000 Z" style="stroke-width: 0.6375; stroke-linecap: butt; stroke-linejoin: miter; fill-rule: evenodd; fill: #000000; fill-opacity: 0.0000; "/>
      <path d="  M0.0000,0.0000 L72.2835,0.0000 L72.2835,29.7637 L0.0000,29.7637 L0.0000,0.0000 Z" style="stroke-width: 0.6375; stroke: #000000; stroke-dasharray: none; stroke-linecap: butt; stroke-linejoin: miter; fill: none; fill-opacity: 0.0000; "/>
    </g>
    <g xmlns="http://www.w3.org/2000/svg" id="Layer1049">
      <path d="  M70.1573,6.3780 L70.1573,10.6297 L63.7793,10.6297 L63.7793,2.1262 L66.9683,2.1262 L70.1573,6.3780 L66.9683,6.3780 L66.9683,2.1262 L70.1573,6.3780 Z" style="stroke-width: 0.4253; stroke-linecap: butt; stroke-linejoin: miter; fill-rule: evenodd; fill: #000000; fill-opacity: 0.0000; "/>
      <path d="  M70.1573,6.3780 L70.1573,10.6297 L63.7793,10.6297 L63.7793,2.1262 L66.9683,2.1262 L70.1573,6.3780 L66.9683,6.3780 L66.9683,2.1262 L70.1573,6.3780 Z" style="stroke-width: 0.4253; stroke: #000000; stroke-dasharray: none; stroke-linecap: butt; stroke-linejoin: miter; fill: none; fill-opacity: 0.0000; "/>
    </g>
    <text xmlns="http://www.w3.org/2000/svg" x="4.0000" y="14.8819">
      <tspan font-family="Arial" font-size="8.0000" fill="#000000" fill-opacity="1.0000" stroke-opacity="1.0000">
Artifact</tspan>
    </text>
    <!--converted by libvisio2svg-->
  </g>
</svg>
