<svg xmlns="http://www.w3.org/2000/svg" xmlns:xlink="http://www.w3.org/1999/xlink" version="1.1" width="72.2835000000" height="29.7637000000">
  <title><![CDATA[Communication network]]></title>
  <g transform=" scale(1.000000) ">
    <path xmlns="http://www.w3.org/2000/svg" d="  M0.0000,0.0000 L72.2835,0.0000 L72.2835,29.7637 L0.0000,29.7637 L0.0000,0.0000 Z" style="fill-rule: evenodd; fill: #afffaf; "/>
    <g xmlns="http://www.w3.org/2000/svg" id="Layer1051">
      <path d="  M0.0000,0.0000 L72.2835,0.0000 L72.2835,29.7637 L0.0000,29.7637 L0.0000,0.0000 Z" style="stroke-width: 0.6375; stroke-linecap: butt; stroke-linejoin: miter; fill-rule: evenodd; fill: #000000; fill-opacity: 0.0000; "/>
      <path d="  M0.0000,0.0000 L72.2835,0.0000 L72.2835,29.7637 L0.0000,29.7637 L0.0000,0.0000 Z" style="stroke-width: 0.6375; stroke: #000000; stroke-dasharray: none; stroke-linecap: butt; stroke-linejoin: miter; fill: none; fill-opacity: 0.0000; "/>
    </g>
    <g xmlns="http://www.w3.org/2000/svg" id="Layer1052">
      <path d="  M64.3410,7.3905 L67.7115,7.4767 L69.5325,3.2565 L66.0532,3.1920 L64.3410,7.3905 Z" style="stroke-width: 0.3900; stroke-linecap: butt; stroke-linejoin: miter; fill-rule: evenodd; fill: #000000; fill-opacity: 0.0000; "/>
      <path d="  M64.3410,7.3905 L67.7115,7.4767 L69.5325,3.2565 L66.0532,3.1920 L64.3410,7.3905 Z" style="stroke-width: 0.3900; stroke: #000000; stroke-dasharray: none; stroke-linecap: butt; stroke-linejoin: miter; fill: none; fill-opacity: 0.0000; "/>
    </g>
    <path xmlns="http://www.w3.org/2000/svg" d="  M65.5905,7.4347 C65.5905,8.0190 65.1900,8.4915 64.6957,8.4915 C64.2022,8.4915 63.8017,8.0182 63.8017,7.4347 C63.8017,6.8505 64.2022,6.3780 64.6957,6.3772 C65.1900,6.3772 65.5905,6.8505 65.5905,7.4340 Z" style="fill-rule: evenodd; fill: #000000; "/>
    <g xmlns="http://www.w3.org/2000/svg" id="Layer1053">
      <path d="  M65.5905,7.4347 C65.5905,8.0190 65.1900,8.4915 64.6957,8.4915 C64.2022,8.4915 63.8017,8.0182 63.8017,7.4347 C63.8017,6.8505 64.2022,6.3780 64.6957,6.3772 C65.1900,6.3772 65.5905,6.8505 65.5905,7.4340 Z" style="stroke-width: 0.3900; stroke-linecap: butt; stroke-linejoin: miter; fill-rule: evenodd; fill: #000000; fill-opacity: 0.0000; "/>
      <path d="  M65.5905,7.4347 C65.5905,8.0190 65.1900,8.4915 64.6957,8.4915 C64.2022,8.4915 63.8017,8.0182 63.8017,7.4347 C63.8017,6.8505 64.2022,6.3780 64.6957,6.3772 C65.1900,6.3772 65.5905,6.8505 65.5905,7.4340" style="stroke-width: 0.3900; stroke: #000000; stroke-dasharray: none; stroke-linecap: butt; stroke-linejoin: miter; fill: none; fill-opacity: 0.0000; "/>
    </g>
    <path xmlns="http://www.w3.org/2000/svg" d="  M66.5737,3.2070 C66.5737,3.7905 66.1732,4.2637 65.6797,4.2637 C65.1855,4.2637 64.7857,3.7905 64.7857,3.2062 C64.7857,2.6227 65.1855,2.1495 65.6797,2.1495 C66.1732,2.1495 66.5737,2.6220 66.5737,3.2062 Z" style="fill-rule: evenodd; fill: #000000; "/>
    <g xmlns="http://www.w3.org/2000/svg" id="Layer1054">
      <path d="  M66.5737,3.2070 C66.5737,3.7905 66.1732,4.2637 65.6797,4.2637 C65.1855,4.2637 64.7857,3.7905 64.7857,3.2062 C64.7857,2.6227 65.1855,2.1495 65.6797,2.1495 C66.1732,2.1495 66.5737,2.6220 66.5737,3.2062 Z" style="stroke-width: 0.3900; stroke-linecap: butt; stroke-linejoin: miter; fill-rule: evenodd; fill: #000000; fill-opacity: 0.0000; "/>
      <path d="  M66.5737,3.2070 C66.5737,3.7905 66.1732,4.2637 65.6797,4.2637 C65.1855,4.2637 64.7857,3.7905 64.7857,3.2062 C64.7857,2.6227 65.1855,2.1495 65.6797,2.1495 C66.1732,2.1495 66.5737,2.6220 66.5737,3.2062" style="stroke-width: 0.3900; stroke: #000000; stroke-dasharray: none; stroke-linecap: butt; stroke-linejoin: miter; fill: none; fill-opacity: 0.0000; "/>
    </g>
    <path xmlns="http://www.w3.org/2000/svg" d="  M70.1512,3.2070 C70.1505,3.7905 69.7500,4.2637 69.2565,4.2637 C68.7630,4.2637 68.3625,3.7905 68.3625,3.2062 C68.3625,2.6227 68.7630,2.1495 69.2565,2.1495 C69.7500,2.1495 70.1505,2.6220 70.1512,3.2062 Z" style="fill-rule: evenodd; fill: #000000; "/>
    <g xmlns="http://www.w3.org/2000/svg" id="Layer1055">
      <path d="  M70.1512,3.2070 C70.1505,3.7905 69.7500,4.2637 69.2565,4.2637 C68.7630,4.2637 68.3625,3.7905 68.3625,3.2062 C68.3625,2.6227 68.7630,2.1495 69.2565,2.1495 C69.7500,2.1495 70.1505,2.6220 70.1512,3.2062 Z" style="stroke-width: 0.3900; stroke-linecap: butt; stroke-linejoin: miter; fill-rule: evenodd; fill: #000000; fill-opacity: 0.0000; "/>
      <path d="  M70.1512,3.2070 C70.1505,3.7905 69.7500,4.2637 69.2565,4.2637 C68.7630,4.2637 68.3625,3.7905 68.3625,3.2062 C68.3625,2.6227 68.7630,2.1495 69.2565,2.1495 C69.7500,2.1495 70.1505,2.6220 70.1512,3.2062" style="stroke-width: 0.3900; stroke: #000000; stroke-dasharray: none; stroke-linecap: butt; stroke-linejoin: miter; fill: none; fill-opacity: 0.0000; "/>
    </g>
    <path xmlns="http://www.w3.org/2000/svg" d="  M69.1672,7.4347 C69.1672,8.0190 68.7667,8.4915 68.2725,8.4915 C67.7790,8.4915 67.3785,8.0182 67.3785,7.4347 C67.3785,6.8505 67.7790,6.3780 68.2725,6.3772 C68.7667,6.3772 69.1672,6.8505 69.1672,7.4340 Z" style="fill-rule: evenodd; fill: #000000; "/>
    <g xmlns="http://www.w3.org/2000/svg" id="Layer1056">
      <path d="  M69.1672,7.4347 C69.1672,8.0190 68.7667,8.4915 68.2725,8.4915 C67.7790,8.4915 67.3785,8.0182 67.3785,7.4347 C67.3785,6.8505 67.7790,6.3780 68.2725,6.3772 C68.7667,6.3772 69.1672,6.8505 69.1672,7.4340 Z" style="stroke-width: 0.3900; stroke-linecap: butt; stroke-linejoin: miter; fill-rule: evenodd; fill: #000000; fill-opacity: 0.0000; "/>
      <path d="  M69.1672,7.4347 C69.1672,8.0190 68.7667,8.4915 68.2725,8.4915 C67.7790,8.4915 67.3785,8.0182 67.3785,7.4347 C67.3785,6.8505 67.7790,6.3780 68.2725,6.3772 C68.7667,6.3772 69.1672,6.8505 69.1672,7.4340" style="stroke-width: 0.3900; stroke: #000000; stroke-dasharray: none; stroke-linecap: butt; stroke-linejoin: miter; fill: none; fill-opacity: 0.0000; "/>
    </g>
    <text xmlns="http://www.w3.org/2000/svg" x="4.0000" y="14.8819">
      <tspan font-family="Arial" font-size="8.0000" fill="#000000" fill-opacity="1.0000" stroke-opacity="1.0000">
Communication</tspan>
      <tspan font-family="Arial" font-size="8.0000" fill="#000000" fill-opacity="1.0000" stroke-opacity="1.0000">
network</tspan>
    </text>
    <!--converted by libvisio2svg-->
  </g>
</svg>
