<svg xmlns="http://www.w3.org/2000/svg" xmlns:xlink="http://www.w3.org/1999/xlink" version="1.1" width="72.2835000000" height="29.7637000000">
  <title><![CDATA[Path]]></title>
  <g transform=" scale(1.000000) ">
    <path xmlns="http://www.w3.org/2000/svg" d="  M0.0000,0.0000 L72.2835,0.0000 L72.2835,29.7638 L0.0000,29.7638 L0.0000,0.0000 Z" style="fill-rule: evenodd; fill: #afffaf; "/>
    <g xmlns="http://www.w3.org/2000/svg" id="Layer1063">
      <path d="  M0.0000,0.0000 L72.2835,0.0000 L72.2835,29.7638 L0.0000,29.7638 L0.0000,0.0000 Z" style="stroke-width: 0.6375; stroke-linecap: butt; stroke-linejoin: miter; fill-rule: evenodd; fill: #000000; fill-opacity: 0.0000; "/>
      <path d="  M0.0000,0.0000 L72.2835,0.0000 L72.2835,29.7638 L0.0000,29.7638 L0.0000,0.0000 Z" style="stroke-width: 0.6375; stroke: #000000; stroke-dasharray: none; stroke-linecap: butt; stroke-linejoin: miter; fill: none; fill-opacity: 0.0000; "/>
    </g>
    <g xmlns="http://www.w3.org/2000/svg" id="Layer1064">
      <path d="  M64.5015,2.4518 C64.5015,2.4518 62.0602,4.4063 62.0602,4.7970 C62.0602,5.1878 64.5015,7.1415 64.5015,7.1415 Z" style="stroke-width: 0.8137; stroke-linecap: butt; stroke-linejoin: miter; fill-rule: evenodd; fill: #000000; fill-opacity: 0.0000; "/>
      <path d="  M64.5015,2.4518 C64.5015,2.4518 62.0602,4.4063 62.0602,4.7970 C62.0602,5.1878 64.5015,7.1415 64.5015,7.1415" style="stroke-width: 0.8137; stroke: #000000; stroke-dasharray: none; stroke-linecap: butt; stroke-linejoin: miter; fill: none; fill-opacity: 0.0000; "/>
    </g>
    <g xmlns="http://www.w3.org/2000/svg" id="Layer1065">
      <path d="  M67.3500,2.4518 C67.3500,2.4518 69.7912,4.4063 69.7912,4.7970 C69.7912,5.1878 67.3500,7.1415 67.3500,7.1415 Z" style="stroke-width: 0.8137; stroke-linecap: butt; stroke-linejoin: miter; fill-rule: evenodd; fill: #000000; fill-opacity: 0.0000; "/>
      <path d="  M67.3500,2.4518 C67.3500,2.4518 69.7912,4.4063 69.7912,4.7970 C69.7912,5.1878 67.3500,7.1415 67.3500,7.1415" style="stroke-width: 0.8137; stroke: #000000; stroke-dasharray: none; stroke-linecap: butt; stroke-linejoin: miter; fill: none; fill-opacity: 0.0000; "/>
    </g>
    <g xmlns="http://www.w3.org/2000/svg" id="Layer1066">
      <path d="  M64.0950,4.7970 C65.3152,4.7970 65.3152,4.7970 65.3152,4.7970 Z" style="stroke-width: 0.8137; stroke-linecap: butt; stroke-linejoin: miter; fill-rule: evenodd; fill: #000000; fill-opacity: 0.0000; "/>
      <path d="  M64.0950,4.7970 C65.3152,4.7970 65.3152,4.7970 65.3152,4.7970" style="stroke-width: 0.8137; stroke: #000000; stroke-dasharray: none; stroke-linecap: butt; stroke-linejoin: miter; fill: none; fill-opacity: 0.0000; "/>
    </g>
    <g xmlns="http://www.w3.org/2000/svg" id="Layer1067">
      <path d="  M66.5362,4.7970 C67.7565,4.7970 67.7565,4.7970 67.7565,4.7970 Z" style="stroke-width: 0.8137; stroke-linecap: butt; stroke-linejoin: miter; fill-rule: evenodd; fill: #000000; fill-opacity: 0.0000; "/>
      <path d="  M66.5362,4.7970 C67.7565,4.7970 67.7565,4.7970 67.7565,4.7970" style="stroke-width: 0.8137; stroke: #000000; stroke-dasharray: none; stroke-linecap: butt; stroke-linejoin: miter; fill: none; fill-opacity: 0.0000; "/>
    </g>
    <text xmlns="http://www.w3.org/2000/svg" x="4.0000" y="14.8819">
      <tspan font-family="Arial" font-size="8.0000" fill="#000000" fill-opacity="1.0000" stroke-opacity="1.0000">
Path</tspan>
    </text>
    <!--converted by libvisio2svg-->
  </g>
</svg>
