<svg xmlns="http://www.w3.org/2000/svg" xmlns:xlink="http://www.w3.org/1999/xlink" version="1.1" width="38.4810000000" height="12.7560000000">
  <title><![CDATA[Path 2]]></title>
  <g transform=" scale(1.000000) ">
    <path xmlns="http://www.w3.org/2000/svg" d="  M38.3745,6.1650 C38.3160,6.1650 38.2680,6.2130 38.2680,6.2715 C38.2680,6.3300 38.3160,6.3780 38.3745,6.3780 C38.4330,6.3780 38.4810,6.3300 38.4810,6.2715 C38.4810,6.2130 38.4330,6.1650 38.3745,6.1650 Z" style="fill-rule: evenodd; fill: #afffff; "/>
    <g xmlns="http://www.w3.org/2000/svg" id="Layer1068">
      <path d="  M38.3745,6.1650 C38.3160,6.1650 38.2680,6.2130 38.2680,6.2715 C38.2680,6.3300 38.3160,6.3780 38.3745,6.3780 C38.4330,6.3780 38.4810,6.3300 38.4810,6.2715 C38.4810,6.2130 38.4330,6.1650 38.3745,6.1650 Z" style="stroke-width: 3.1890; stroke-linecap: butt; stroke-linejoin: miter; fill-rule: evenodd; fill: #000000; fill-opacity: 0.0000; "/>
      <path d="  M38.3745,6.1650 C38.3160,6.1650 38.2680,6.2130 38.2680,6.2715 C38.2680,6.3300 38.3160,6.3780 38.3745,6.3780 C38.4330,6.3780 38.4810,6.3300 38.4810,6.2715 C38.4810,6.2130 38.4330,6.1650 38.3745,6.1650 Z" style="stroke-width: 3.1890; stroke: #000000; stroke-dasharray: 3.1890, 6.3780, 3.1890, 6.3780; stroke-linecap: butt; stroke-linejoin: miter; fill: none; fill-opacity: 0.0000; "/>
    </g>
    <path xmlns="http://www.w3.org/2000/svg" d="  M0.1065,6.1650 C0.0480,6.1650 0.0000,6.2130 0.0000,6.2715 C0.0000,6.3300 0.0480,6.3780 0.1065,6.3780 C0.1650,6.3780 0.2130,6.3300 0.2130,6.2715 C0.2130,6.2130 0.1650,6.1650 0.1065,6.1650 Z" style="fill-rule: evenodd; fill: #afffff; "/>
    <g xmlns="http://www.w3.org/2000/svg" id="Layer1069">
      <path d="  M0.1065,6.1650 C0.0480,6.1650 0.0000,6.2130 0.0000,6.2715 C0.0000,6.3300 0.0480,6.3780 0.1065,6.3780 C0.1650,6.3780 0.2130,6.3300 0.2130,6.2715 C0.2130,6.2130 0.1650,6.1650 0.1065,6.1650 Z" style="stroke-width: 3.1890; stroke-linecap: butt; stroke-linejoin: miter; fill-rule: evenodd; fill: #000000; fill-opacity: 0.0000; "/>
      <path d="  M0.1065,6.1650 C0.0480,6.1650 0.0000,6.2130 0.0000,6.2715 C0.0000,6.3300 0.0480,6.3780 0.1065,6.3780 C0.1650,6.3780 0.2130,6.3300 0.2130,6.2715 C0.2130,6.2130 0.1650,6.1650 0.1065,6.1650 Z" style="stroke-width: 3.1890; stroke: #000000; stroke-dasharray: 3.1890, 6.3780, 3.1890, 6.3780; stroke-linecap: butt; stroke-linejoin: miter; fill: none; fill-opacity: 0.0000; "/>
    </g>
    <g xmlns="http://www.w3.org/2000/svg" id="Layer1070">
      <path d="  M0.2130,6.3780 L38.2680,6.3780 Z" style="stroke-width: 3.1890; stroke-linecap: butt; stroke-linejoin: miter; fill-rule: evenodd; fill: #000000; fill-opacity: 0.0000; "/>
      <path d="  M0.2130,6.3780 L38.2680,6.3780" style="stroke-width: 3.1890; stroke: #000000; stroke-dasharray: 3.1890, 6.3780, 3.1890, 6.3780; stroke-linecap: butt; stroke-linejoin: miter; fill: none; fill-opacity: 0.0000; "/>
    </g>
    <g xmlns="http://www.w3.org/2000/svg" id="Layer1071">
      <path d="  M29.7637,0.0000 L38.2680,6.3780 L29.7637,12.7560 Z" style="stroke-width: 3.1890; stroke-linecap: round; stroke-linejoin: round; fill-rule: evenodd; fill: #000000; fill-opacity: 0.0000; "/>
      <path d="  M29.7637,0.0000 L38.2680,6.3780 L29.7637,12.7560" style="stroke-width: 3.1890; stroke: #000000; stroke-dasharray: none; stroke-linecap: round; stroke-linejoin: round; fill: none; fill-opacity: 0.0000; "/>
    </g>
    <g xmlns="http://www.w3.org/2000/svg" id="Layer1072">
      <path d="  M38.2680,6.3780 L0.2130,6.3780 Z" style="stroke-width: 3.1890; stroke-linecap: butt; stroke-linejoin: miter; fill-rule: evenodd; fill: #000000; fill-opacity: 0.0000; "/>
      <path d="  M38.2680,6.3780 L0.2130,6.3780" style="stroke-width: 3.1890; stroke: #000000; stroke-dasharray: 3.1890, 6.3780, 3.1890, 6.3780; stroke-linecap: butt; stroke-linejoin: miter; fill: none; fill-opacity: 0.0000; "/>
    </g>
    <g xmlns="http://www.w3.org/2000/svg" id="Layer1073">
      <path d="  M8.7165,12.7560 L0.2130,6.3780 L8.7165,0.0000 Z" style="stroke-width: 3.1890; stroke-linecap: round; stroke-linejoin: round; fill-rule: evenodd; fill: #000000; fill-opacity: 0.0000; "/>
      <path d="  M8.7165,12.7560 L0.2130,6.3780 L8.7165,0.0000" style="stroke-width: 3.1890; stroke: #000000; stroke-dasharray: none; stroke-linecap: round; stroke-linejoin: round; fill: none; fill-opacity: 0.0000; "/>
    </g>
    <!--converted by libvisio2svg-->
  </g>
</svg>
