<svg xmlns="http://www.w3.org/2000/svg" xmlns:xlink="http://www.w3.org/1999/xlink" version="1.1" width="51.0233000000" height="29.7637000000">
  <title><![CDATA[System software 2]]></title>
  <g transform=" scale(1.000000) ">
    <path xmlns="http://www.w3.org/2000/svg" d="  M0.0000,6.3780 L6.3780,0.0000 L51.0233,0.0000 L51.0233,23.3858 L44.6453,29.7638 L0.0000,29.7638 L0.0000,6.3780 Z" style="fill-rule: evenodd; fill: #afffaf; "/>
    <g xmlns="http://www.w3.org/2000/svg" id="Layer1015">
      <path d="  M0.0000,6.3780 L6.3780,0.0000 L51.0233,0.0000 L51.0233,23.3858 L44.6453,29.7638 L0.0000,29.7638 L0.0000,6.3780 Z" style="stroke-width: 0.6375; stroke-linecap: round; stroke-linejoin: round; fill-rule: evenodd; fill: #000000; fill-opacity: 0.0000; "/>
      <path d="  M0.0000,6.3780 L6.3780,0.0000 L51.0233,0.0000 L51.0233,23.3858 L44.6453,29.7638 L0.0000,29.7638 L0.0000,6.3780 Z" style="stroke-width: 0.6375; stroke: #000000; stroke-dasharray: none; stroke-linecap: round; stroke-linejoin: round; fill: none; fill-opacity: 0.0000; "/>
    </g>
    <g xmlns="http://www.w3.org/2000/svg" id="Layer1016">
      <path d="  M0.0000,6.3780 L44.6453,6.3780 L44.6453,29.7638 Z M44.6453,6.3780 L51.0233,0.0000 Z" style="stroke-width: 0.6375; stroke-linecap: round; stroke-linejoin: round; fill-rule: evenodd; fill: #000000; fill-opacity: 0.0000; "/>
      <path d="  M0.0000,6.3780 L44.6453,6.3780 L44.6453,29.7638 M44.6453,6.3780 L51.0233,0.0000" style="stroke-width: 0.6375; stroke: #000000; stroke-dasharray: none; stroke-linecap: round; stroke-linejoin: round; fill: none; fill-opacity: 0.0000; "/>
    </g>
    <g xmlns="http://www.w3.org/2000/svg" id="Layer1017">
      <path d="  M35.8493,10.6650 C36.2325,9.7283 37.1678,9.1485 38.1045,8.8755 C39.4200,8.5598 40.9643,9.0293 41.7105,10.2000 C42.3540,11.1495 42.5633,12.4208 42.1035,13.4925 C41.8680,14.0955 41.4615,14.6678 40.8608,14.9490 Z" style="stroke-width: 0.4253; stroke-linecap: butt; stroke-linejoin: miter; fill-rule: evenodd; fill: #000000; fill-opacity: 0.0000; "/>
      <path d="  M35.8493,10.6650 C36.2325,9.7283 37.1678,9.1485 38.1045,8.8755 C39.4200,8.5598 40.9643,9.0293 41.7105,10.2000 C42.3540,11.1495 42.5633,12.4208 42.1035,13.4925 C41.8680,14.0955 41.4615,14.6678 40.8608,14.9490" style="stroke-width: 0.4253; stroke: #000000; stroke-dasharray: none; stroke-linecap: butt; stroke-linejoin: miter; fill: none; fill-opacity: 0.0000; "/>
    </g>
    <g xmlns="http://www.w3.org/2000/svg" id="Layer1018">
      <path d="  M41.1593,13.4970 C41.1593,15.3758 39.6360,16.8983 37.7573,16.8983 C35.8785,16.8983 34.3560,15.3758 34.3560,13.4970 C34.3560,11.6183 35.8785,10.0958 37.7573,10.0958 C39.6360,10.0958 41.1593,11.6183 41.1593,13.4970 Z" style="stroke-width: 0.4253; stroke-linecap: butt; stroke-linejoin: miter; fill-rule: evenodd; fill: #000000; fill-opacity: 0.0000; "/>
      <path d="  M41.1593,13.4970 C41.1593,15.3758 39.6360,16.8983 37.7573,16.8983 C35.8785,16.8983 34.3560,15.3758 34.3560,13.4970 C34.3560,11.6183 35.8785,10.0958 37.7573,10.0958 C39.6360,10.0958 41.1593,11.6183 41.1593,13.4970 Z" style="stroke-width: 0.4253; stroke: #000000; stroke-dasharray: none; stroke-linecap: butt; stroke-linejoin: miter; fill: none; fill-opacity: 0.0000; "/>
    </g>
    <!--converted by libvisio2svg-->
  </g>
</svg>
