<svg xmlns="http://www.w3.org/2000/svg" xmlns:xlink="http://www.w3.org/1999/xlink" version="1.1" width="72.2835000000" height="29.7637000000">
  <title><![CDATA[System software]]></title>
  <g transform=" scale(1.000000) ">
    <path xmlns="http://www.w3.org/2000/svg" d="  M0.0000,0.0000 L72.2835,0.0000 L72.2835,29.7638 L0.0000,29.7638 L0.0000,0.0000 Z" style="fill-rule: evenodd; fill: #afffaf; "/>
    <g xmlns="http://www.w3.org/2000/svg" id="Layer1012">
      <path d="  M0.0000,0.0000 L72.2835,0.0000 L72.2835,29.7638 L0.0000,29.7638 L0.0000,0.0000 Z" style="stroke-width: 0.6375; stroke-linecap: butt; stroke-linejoin: miter; fill-rule: evenodd; fill: #000000; fill-opacity: 0.0000; "/>
      <path d="  M0.0000,0.0000 L72.2835,0.0000 L72.2835,29.7638 L0.0000,29.7638 L0.0000,0.0000 Z" style="stroke-width: 0.6375; stroke: #000000; stroke-dasharray: none; stroke-linecap: butt; stroke-linejoin: miter; fill: none; fill-opacity: 0.0000; "/>
    </g>
    <g xmlns="http://www.w3.org/2000/svg" id="Layer1013">
      <path d="  M64.3207,4.0162 C64.6560,3.1972 65.4742,2.6902 66.2940,2.4510 C67.4452,2.1750 68.7960,2.5860 69.4492,3.6097 C70.0125,4.4407 70.1955,5.5537 69.7935,6.4905 C69.5872,7.0185 69.2317,7.5195 68.7060,7.7655 Z" style="stroke-width: 0.4253; stroke-linecap: butt; stroke-linejoin: miter; fill-rule: evenodd; fill: #000000; fill-opacity: 0.0000; "/>
      <path d="  M64.3207,4.0162 C64.6560,3.1972 65.4742,2.6902 66.2940,2.4510 C67.4452,2.1750 68.7960,2.5860 69.4492,3.6097 C70.0125,4.4407 70.1955,5.5537 69.7935,6.4905 C69.5872,7.0185 69.2317,7.5195 68.7060,7.7655" style="stroke-width: 0.4253; stroke: #000000; stroke-dasharray: none; stroke-linecap: butt; stroke-linejoin: miter; fill: none; fill-opacity: 0.0000; "/>
    </g>
    <g xmlns="http://www.w3.org/2000/svg" id="Layer1014">
      <path d="  M68.9670,6.4950 C68.9670,8.1390 67.6342,9.4710 65.9902,9.4710 C64.3462,9.4710 63.0142,8.1390 63.0142,6.4950 C63.0142,4.8510 64.3462,3.5182 65.9902,3.5182 C67.6342,3.5182 68.9670,4.8510 68.9670,6.4950 Z" style="stroke-width: 0.4253; stroke-linecap: butt; stroke-linejoin: miter; fill-rule: evenodd; fill: #000000; fill-opacity: 0.0000; "/>
      <path d="  M68.9670,6.4950 C68.9670,8.1390 67.6342,9.4710 65.9902,9.4710 C64.3462,9.4710 63.0142,8.1390 63.0142,6.4950 C63.0142,4.8510 64.3462,3.5182 65.9902,3.5182 C67.6342,3.5182 68.9670,4.8510 68.9670,6.4950 Z" style="stroke-width: 0.4253; stroke: #000000; stroke-dasharray: none; stroke-linecap: butt; stroke-linejoin: miter; fill: none; fill-opacity: 0.0000; "/>
    </g>
    <text xmlns="http://www.w3.org/2000/svg" x="4.0000" y="14.8819">
      <tspan font-family="Arial" font-size="8.0000" fill="#000000" fill-opacity="1.0000" stroke-opacity="1.0000">
System</tspan>
      <tspan font-family="Arial" font-size="8.0000" fill="#000000" fill-opacity="1.0000" stroke-opacity="1.0000">
software</tspan>
    </text>
    <!--converted by libvisio2svg-->
  </g>
</svg>
