<svg xmlns="http://www.w3.org/2000/svg" xmlns:xlink="http://www.w3.org/1999/xlink" version="1.1" width="29.5177000000" height="20.4915000000">
  <title><![CDATA[Technology iterface 2]]></title>
  <g transform=" scale(1.000000) ">
    <path xmlns="http://www.w3.org/2000/svg" d="  M9.8392,10.2255 L0.0000,10.2255 Z" style="fill-rule: evenodd; fill: #ffffff; "/>
    <g xmlns="http://www.w3.org/2000/svg" id="Layer1029">
      <path d="  M9.8392,10.2255 L0.0000,10.2255 Z" style="stroke-width: 1.8742; stroke-linecap: butt; stroke-linejoin: miter; fill-rule: evenodd; fill: #000000; fill-opacity: 0.0000; "/>
      <path d="  M9.8392,10.2255 L0.0000,10.2255" style="stroke-width: 1.8742; stroke: #000000; stroke-dasharray: none; stroke-linecap: butt; stroke-linejoin: miter; fill: none; fill-opacity: 0.0000; "/>
    </g>
    <path xmlns="http://www.w3.org/2000/svg" d="  M29.5178,10.2458 C29.5178,15.9038 25.1130,20.4915 19.6785,20.4915 C14.2448,20.4915 9.8393,15.9038 9.8393,10.2458 C9.8393,4.5870 14.2448,0.0000 19.6785,0.0000 C25.1130,0.0000 29.5178,4.5870 29.5178,10.2458 Z" style="fill-rule: evenodd; fill: #ffffff; "/>
    <g xmlns="http://www.w3.org/2000/svg" id="Layer1030">
      <path d="  M29.5178,10.2458 C29.5178,15.9038 25.1130,20.4915 19.6785,20.4915 C14.2448,20.4915 9.8393,15.9038 9.8393,10.2458 C9.8393,4.5870 14.2448,0.0000 19.6785,0.0000 C25.1130,0.0000 29.5178,4.5870 29.5178,10.2458 Z" style="stroke-width: 1.8742; stroke-linecap: butt; stroke-linejoin: miter; fill-rule: evenodd; fill: #000000; fill-opacity: 0.0000; "/>
      <path d="  M29.5178,10.2458 C29.5178,15.9038 25.1130,20.4915 19.6785,20.4915 C14.2448,20.4915 9.8393,15.9038 9.8393,10.2458 C9.8393,4.5870 14.2448,0.0000 19.6785,0.0000 C25.1130,0.0000 29.5178,4.5870 29.5178,10.2458 Z" style="stroke-width: 1.8742; stroke: #000000; stroke-dasharray: none; stroke-linecap: butt; stroke-linejoin: miter; fill: none; fill-opacity: 0.0000; "/>
    </g>
    <!--converted by libvisio2svg-->
  </g>
</svg>
