<svg xmlns="http://www.w3.org/2000/svg" xmlns:xlink="http://www.w3.org/1999/xlink" version="1.1" width="72.2835000000" height="29.7637000000">
  <title><![CDATA[Technology process]]></title>
  <g transform=" scale(1.000000) ">
    <path xmlns="http://www.w3.org/2000/svg" d="  M5.3145,0.0000 L66.9683,0.0000 C69.9038,0.0000 72.2835,2.3798 72.2835,5.3153 L72.2835,24.4492 C72.2835,27.3847 69.9038,29.7637 66.9683,29.7637 L5.3145,29.7637 C2.3798,29.7637 0.0000,27.3847 0.0000,24.4492 L0.0000,5.3153 C0.0000,2.3798 2.3798,0.0000 5.3145,0.0000 Z" style="fill-rule: evenodd; fill: #afffaf; "/>
    <g xmlns="http://www.w3.org/2000/svg" id="Layer1031">
      <path d="  M5.3145,0.0000 L66.9683,0.0000 C69.9038,0.0000 72.2835,2.3798 72.2835,5.3153 L72.2835,24.4492 C72.2835,27.3847 69.9038,29.7637 66.9683,29.7637 L5.3145,29.7637 C2.3798,29.7637 0.0000,27.3847 0.0000,24.4492 L0.0000,5.3153 C0.0000,2.3798 2.3798,0.0000 5.3145,0.0000 Z" style="stroke-width: 0.6375; stroke-linecap: butt; stroke-linejoin: miter; fill-rule: evenodd; fill: #000000; fill-opacity: 0.0000; "/>
      <path d="  M5.3145,0.0000 L66.9683,0.0000 C69.9038,0.0000 72.2835,2.3798 72.2835,5.3153 L72.2835,24.4492 C72.2835,27.3847 69.9038,29.7637 66.9683,29.7637 L5.3145,29.7637 C2.3798,29.7637 0.0000,27.3847 0.0000,24.4492 L0.0000,5.3153 C0.0000,2.3798 2.3798,0.0000 5.3145,0.0000 Z" style="stroke-width: 0.6375; stroke: #000000; stroke-dasharray: none; stroke-linecap: butt; stroke-linejoin: miter; fill: none; fill-opacity: 0.0000; "/>
    </g>
    <g xmlns="http://www.w3.org/2000/svg" id="Layer1032">
      <path d="  M66.8985,5.6430 L61.7325,5.6430 L61.7325,3.9555 L66.8985,3.9555 L66.8985,2.2687 L70.0778,4.7992 L66.8985,7.3305 L66.8985,5.6430 Z" style="stroke-width: 0.4125; stroke-linecap: butt; stroke-linejoin: miter; fill-rule: evenodd; fill: #000000; fill-opacity: 0.0000; "/>
      <path d="  M66.8985,5.6430 L61.7325,5.6430 L61.7325,3.9555 L66.8985,3.9555 L66.8985,2.2687 L70.0778,4.7992 L66.8985,7.3305 L66.8985,5.6430 Z" style="stroke-width: 0.4125; stroke: #000000; stroke-dasharray: none; stroke-linecap: butt; stroke-linejoin: miter; fill: none; fill-opacity: 0.0000; "/>
    </g>
    <text xmlns="http://www.w3.org/2000/svg" x="4.0000" y="14.8819">
      <tspan font-family="Arial" font-size="8.0000" fill="#000000" fill-opacity="1.0000" stroke-opacity="1.0000">
Technology</tspan>
      <tspan font-family="Arial" font-size="8.0000" fill="#000000" fill-opacity="1.0000" stroke-opacity="1.0000">
process</tspan>
    </text>
    <!--converted by libvisio2svg-->
  </g>
</svg>
