<svg xmlns="http://www.w3.org/2000/svg" xmlns:xlink="http://www.w3.org/1999/xlink" version="1.1" width="29.5530000000" height="21.0345000000">
  <title><![CDATA[Technology collaboration 2]]></title>
  <g transform=" scale(1.000000) ">
    <path xmlns="http://www.w3.org/2000/svg" d="  M19.7018,10.5173 C19.7018,16.3260 15.2918,21.0345 9.8513,21.0345 C4.4108,21.0345 0.0000,16.3260 0.0000,10.5173 C0.0000,4.7085 4.4108,0.0000 9.8513,0.0000 C15.2918,0.0000 19.7018,4.7085 19.7018,10.5173 Z" style="fill-rule: evenodd; fill: #afffaf; "/>
    <g xmlns="http://www.w3.org/2000/svg" id="Layer1023">
      <path d="  M19.7018,10.5173 C19.7018,16.3260 15.2918,21.0345 9.8513,21.0345 C4.4108,21.0345 0.0000,16.3260 0.0000,10.5173 C0.0000,4.7085 4.4108,0.0000 9.8513,0.0000 C15.2918,0.0000 19.7018,4.7085 19.7018,10.5173 Z" style="stroke-width: 1.8503; stroke-linecap: butt; stroke-linejoin: miter; fill-rule: evenodd; fill: #000000; fill-opacity: 0.0000; "/>
      <path d="  M19.7018,10.5173 C19.7018,16.3260 15.2918,21.0345 9.8513,21.0345 C4.4108,21.0345 0.0000,16.3260 0.0000,10.5173 C0.0000,4.7085 4.4108,0.0000 9.8513,0.0000 C15.2918,0.0000 19.7018,4.7085 19.7018,10.5173 Z" style="stroke-width: 1.8503; stroke: #000000; stroke-dasharray: none; stroke-linecap: butt; stroke-linejoin: miter; fill: none; fill-opacity: 0.0000; "/>
    </g>
    <path xmlns="http://www.w3.org/2000/svg" d="  M29.5530,10.5173 C29.5530,16.3260 25.1423,21.0345 19.7018,21.0345 C14.2613,21.0345 9.8513,16.3260 9.8513,10.5173 C9.8513,4.7085 14.2613,0.0000 19.7018,0.0000 C25.1423,0.0000 29.5530,4.7085 29.5530,10.5173 Z" style="fill-rule: evenodd; fill: #afffaf; "/>
    <g xmlns="http://www.w3.org/2000/svg" id="Layer1024">
      <path d="  M29.5530,10.5173 C29.5530,16.3260 25.1423,21.0345 19.7018,21.0345 C14.2613,21.0345 9.8513,16.3260 9.8513,10.5173 C9.8513,4.7085 14.2613,0.0000 19.7018,0.0000 C25.1423,0.0000 29.5530,4.7085 29.5530,10.5173 Z" style="stroke-width: 1.8503; stroke-linecap: butt; stroke-linejoin: miter; fill-rule: evenodd; fill: #000000; fill-opacity: 0.0000; "/>
      <path d="  M29.5530,10.5173 C29.5530,16.3260 25.1423,21.0345 19.7018,21.0345 C14.2613,21.0345 9.8513,16.3260 9.8513,10.5173 C9.8513,4.7085 14.2613,0.0000 19.7018,0.0000 C25.1423,0.0000 29.5530,4.7085 29.5530,10.5173 Z" style="stroke-width: 1.8503; stroke: #000000; stroke-dasharray: none; stroke-linecap: butt; stroke-linejoin: miter; fill: none; fill-opacity: 0.0000; "/>
    </g>
    <path xmlns="http://www.w3.org/2000/svg" d="  M14.7878,1.4198 C11.7488,3.3008 9.8775,6.7673 9.8775,10.5173 C9.8768,14.2680 11.7473,17.7345 14.7855,19.6163 C17.8343,17.7413 19.7145,14.2733 19.7198,10.5173 C19.7145,6.7620 17.8350,3.2948 14.7878,1.4198 Z" style="fill-rule: evenodd; fill: #afffaf; "/>
    <g xmlns="http://www.w3.org/2000/svg" id="Layer1025">
      <path d="  M14.7878,1.4198 C11.7488,3.3008 9.8775,6.7673 9.8775,10.5173 C9.8768,14.2680 11.7473,17.7345 14.7855,19.6163 C17.8343,17.7413 19.7145,14.2733 19.7198,10.5173 C19.7145,6.7620 17.8350,3.2948 14.7878,1.4198 Z" style="stroke-width: 1.8503; stroke-linecap: butt; stroke-linejoin: miter; fill-rule: evenodd; fill: #000000; fill-opacity: 0.0000; "/>
      <path d="  M14.7878,1.4198 C11.7488,3.3008 9.8775,6.7673 9.8775,10.5173 C9.8768,14.2680 11.7473,17.7345 14.7855,19.6163 C17.8343,17.7413 19.7145,14.2733 19.7198,10.5173 C19.7145,6.7620 17.8350,3.2948 14.7878,1.4198 Z" style="stroke-width: 1.8503; stroke: #000000; stroke-dasharray: none; stroke-linecap: butt; stroke-linejoin: miter; fill: none; fill-opacity: 0.0000; "/>
    </g>
    <!--converted by libvisio2svg-->
  </g>
</svg>
