<svg xmlns="http://www.w3.org/2000/svg" xmlns:xlink="http://www.w3.org/1999/xlink" version="1.1" width="42.5198000000" height="21.2595000000">
  <title><![CDATA[Technology service 2]]></title>
  <g transform=" scale(1.000000) ">
    <path xmlns="http://www.w3.org/2000/svg" d="  M10.6297,0.0000 C4.7595,0.0000 0.0000,4.7588 0.0000,10.6298 C0.0000,16.5007 4.7595,21.2595 10.6297,21.2595 L31.8900,21.2595 C37.7610,21.2595 42.5198,16.5007 42.5198,10.6298 C42.5198,4.7588 37.7610,0.0000 31.8900,0.0000 L10.6297,0.0000 Z" style="fill-rule: evenodd; fill: #afffaf; "/>
    <g xmlns="http://www.w3.org/2000/svg" id="Layer1044">
      <path d="  M10.6297,0.0000 C4.7595,0.0000 0.0000,4.7588 0.0000,10.6298 C0.0000,16.5007 4.7595,21.2595 10.6297,21.2595 L31.8900,21.2595 C37.7610,21.2595 42.5198,16.5007 42.5198,10.6298 C42.5198,4.7588 37.7610,0.0000 31.8900,0.0000 L10.6297,0.0000 Z" style="stroke-width: 0.6375; stroke-linecap: butt; stroke-linejoin: miter; fill-rule: evenodd; fill: #000000; fill-opacity: 0.0000; "/>
      <path d="  M10.6297,0.0000 C4.7595,0.0000 0.0000,4.7588 0.0000,10.6298 C0.0000,16.5007 4.7595,21.2595 10.6297,21.2595 L31.8900,21.2595 C37.7610,21.2595 42.5198,16.5007 42.5198,10.6298 C42.5198,4.7588 37.7610,0.0000 31.8900,0.0000 L10.6297,0.0000 Z" style="stroke-width: 0.6375; stroke: #000000; stroke-dasharray: none; stroke-linecap: butt; stroke-linejoin: miter; fill: none; fill-opacity: 0.0000; "/>
    </g>
    <!--converted by libvisio2svg-->
  </g>
</svg>
