<svg xmlns="http://www.w3.org/2000/svg" xmlns:xlink="http://www.w3.org/1999/xlink" version="1.1" width="38.2672000000" height="21.2602000000">
  <title><![CDATA[Technology event 2]]></title>
  <g transform=" scale(1.000000) ">
    <path xmlns="http://www.w3.org/2000/svg" d="  M0.0000,0.0000 L27.6375,0.0000 C33.5085,0.0000 38.2672,4.7595 38.2672,10.6305 C38.2672,16.5007 33.5085,21.2602 27.6375,21.2602 L0.0000,21.2602 L6.3780,10.6305 L0.0000,0.0000 Z" style="fill-rule: evenodd; fill: #afffaf; "/>
    <g xmlns="http://www.w3.org/2000/svg" id="Layer1047">
      <path d="  M0.0000,0.0000 L27.6375,0.0000 C33.5085,0.0000 38.2672,4.7595 38.2672,10.6305 C38.2672,16.5007 33.5085,21.2602 27.6375,21.2602 L0.0000,21.2602 L6.3780,10.6305 L0.0000,0.0000 Z" style="stroke-width: 0.6375; stroke-linecap: butt; stroke-linejoin: miter; fill-rule: evenodd; fill: #000000; fill-opacity: 0.0000; "/>
      <path d="  M0.0000,0.0000 L27.6375,0.0000 C33.5085,0.0000 38.2672,4.7595 38.2672,10.6305 C38.2672,16.5007 33.5085,21.2602 27.6375,21.2602 L0.0000,21.2602 L6.3780,10.6305 L0.0000,0.0000 Z" style="stroke-width: 0.6375; stroke: #000000; stroke-dasharray: none; stroke-linecap: butt; stroke-linejoin: miter; fill: none; fill-opacity: 0.0000; "/>
    </g>
    <!--converted by libvisio2svg-->
  </g>
</svg>
