<svg xmlns="http://www.w3.org/2000/svg" xmlns:xlink="http://www.w3.org/1999/xlink" version="1.1" width="72.2835000000" height="29.7637000000">
  <title><![CDATA[Technology function]]></title>
  <g transform=" scale(1.000000) ">
    <path xmlns="http://www.w3.org/2000/svg" d="  M5.3145,0.0000 L66.9683,0.0000 C69.9038,0.0000 72.2835,2.3798 72.2835,5.3153 L72.2835,24.4493 C72.2835,27.3848 69.9038,29.7638 66.9683,29.7638 L5.3145,29.7638 C2.3798,29.7638 0.0000,27.3848 0.0000,24.4493 L0.0000,5.3153 C0.0000,2.3798 2.3798,0.0000 5.3145,0.0000 Z" style="fill-rule: evenodd; fill: #afffaf; "/>
    <g xmlns="http://www.w3.org/2000/svg" id="Layer1034">
      <path d="  M5.3145,0.0000 L66.9683,0.0000 C69.9038,0.0000 72.2835,2.3798 72.2835,5.3153 L72.2835,24.4493 C72.2835,27.3848 69.9038,29.7638 66.9683,29.7638 L5.3145,29.7638 C2.3798,29.7638 0.0000,27.3848 0.0000,24.4493 L0.0000,5.3153 C0.0000,2.3798 2.3798,0.0000 5.3145,0.0000 Z" style="stroke-width: 0.6375; stroke-linecap: butt; stroke-linejoin: miter; fill-rule: evenodd; fill: #000000; fill-opacity: 0.0000; "/>
      <path d="  M5.3145,0.0000 L66.9683,0.0000 C69.9038,0.0000 72.2835,2.3798 72.2835,5.3153 L72.2835,24.4493 C72.2835,27.3848 69.9038,29.7638 66.9683,29.7638 L5.3145,29.7638 C2.3798,29.7638 0.0000,27.3848 0.0000,24.4493 L0.0000,5.3153 C0.0000,2.3798 2.3798,0.0000 5.3145,0.0000 Z" style="stroke-width: 0.6375; stroke: #000000; stroke-dasharray: none; stroke-linecap: butt; stroke-linejoin: miter; fill: none; fill-opacity: 0.0000; "/>
    </g>
    <g xmlns="http://www.w3.org/2000/svg" id="Layer1035">
      <path d="  M63.8573,8.4225 L63.8573,4.6890 L66.9878,2.2005 L70.1183,4.6890 L70.1183,8.4225 L66.9878,5.9340 L63.8573,8.4225 Z" style="stroke-width: 0.4740; stroke-linecap: butt; stroke-linejoin: miter; fill-rule: evenodd; fill: #000000; fill-opacity: 0.0000; "/>
      <path d="  M63.8573,8.4225 L63.8573,4.6890 L66.9878,2.2005 L70.1183,4.6890 L70.1183,8.4225 L66.9878,5.9340 L63.8573,8.4225 Z" style="stroke-width: 0.4740; stroke: #000000; stroke-dasharray: none; stroke-linecap: butt; stroke-linejoin: miter; fill: none; fill-opacity: 0.0000; "/>
    </g>
    <text xmlns="http://www.w3.org/2000/svg" x="4.0000" y="14.8819">
      <tspan font-family="Arial" font-size="8.0000" fill="#000000" fill-opacity="1.0000" stroke-opacity="1.0000">
Technology</tspan>
      <tspan font-family="Arial" font-size="8.0000" fill="#000000" fill-opacity="1.0000" stroke-opacity="1.0000">
function</tspan>
    </text>
    <!--converted by libvisio2svg-->
  </g>
</svg>
