<svg xmlns="http://www.w3.org/2000/svg" xmlns:xlink="http://www.w3.org/1999/xlink" version="1.1" width="72.2835000000" height="29.7637000000">
  <title><![CDATA[Technology interaction]]></title>
  <g transform=" scale(1.000000) ">
    <path xmlns="http://www.w3.org/2000/svg" d="  M5.3145,0.0000 L66.9682,0.0000 C69.9037,0.0000 72.2835,2.3798 72.2835,5.3153 L72.2835,24.4493 C72.2835,27.3848 69.9037,29.7638 66.9682,29.7638 L5.3145,29.7638 C2.3797,29.7638 0.0000,27.3848 0.0000,24.4493 L0.0000,5.3153 C0.0000,2.3798 2.3797,0.0000 5.3145,0.0000 Z" style="fill-rule: evenodd; fill: #afffaf; "/>
    <g xmlns="http://www.w3.org/2000/svg" id="Layer1037">
      <path d="  M5.3145,0.0000 L66.9682,0.0000 C69.9037,0.0000 72.2835,2.3798 72.2835,5.3153 L72.2835,24.4493 C72.2835,27.3848 69.9037,29.7638 66.9682,29.7638 L5.3145,29.7638 C2.3797,29.7638 0.0000,27.3848 0.0000,24.4493 L0.0000,5.3153 C0.0000,2.3798 2.3797,0.0000 5.3145,0.0000 Z" style="stroke-width: 0.6375; stroke-linecap: butt; stroke-linejoin: miter; fill-rule: evenodd; fill: #000000; fill-opacity: 0.0000; "/>
      <path d="  M5.3145,0.0000 L66.9682,0.0000 C69.9037,0.0000 72.2835,2.3798 72.2835,5.3153 L72.2835,24.4493 C72.2835,27.3848 69.9037,29.7638 66.9682,29.7638 L5.3145,29.7638 C2.3797,29.7638 0.0000,27.3848 0.0000,24.4493 L0.0000,5.3153 C0.0000,2.3798 2.3797,0.0000 5.3145,0.0000 Z" style="stroke-width: 0.6375; stroke: #000000; stroke-dasharray: none; stroke-linecap: butt; stroke-linejoin: miter; fill: none; fill-opacity: 0.0000; "/>
    </g>
    <g xmlns="http://www.w3.org/2000/svg" id="Layer1038">
      <path d="  M66.4755,8.4563 L66.4755,2.3085 C66.4755,2.3085 63.8827,2.3085 63.8827,5.3820 C63.8827,8.4563 66.4755,8.4563 66.4755,8.4563 Z" style="stroke-width: 0.3427; stroke-linecap: butt; stroke-linejoin: miter; fill-rule: evenodd; fill: #000000; fill-opacity: 0.0000; "/>
      <path d="  M66.4755,8.4563 L66.4755,2.3085 C66.4755,2.3085 63.8827,2.3085 63.8827,5.3820 C63.8827,8.4563 66.4755,8.4563 66.4755,8.4563 Z" style="stroke-width: 0.3427; stroke: #000000; stroke-dasharray: none; stroke-linecap: butt; stroke-linejoin: miter; fill: none; fill-opacity: 0.0000; "/>
    </g>
    <g xmlns="http://www.w3.org/2000/svg" id="Layer1039">
      <path d="  M67.5127,8.4563 L67.5127,2.3085 C67.5127,2.3085 70.1055,2.3085 70.1055,5.3820 C70.1055,8.4563 67.5127,8.4563 67.5127,8.4563 Z" style="stroke-width: 0.3427; stroke-linecap: butt; stroke-linejoin: miter; fill-rule: evenodd; fill: #000000; fill-opacity: 0.0000; "/>
      <path d="  M67.5127,8.4563 L67.5127,2.3085 C67.5127,2.3085 70.1055,2.3085 70.1055,5.3820 C70.1055,8.4563 67.5127,8.4563 67.5127,8.4563 Z" style="stroke-width: 0.3427; stroke: #000000; stroke-dasharray: none; stroke-linecap: butt; stroke-linejoin: miter; fill: none; fill-opacity: 0.0000; "/>
    </g>
    <text xmlns="http://www.w3.org/2000/svg" x="4.0000" y="14.8819">
      <tspan font-family="Arial" font-size="8.0000" fill="#000000" fill-opacity="1.0000" stroke-opacity="1.0000">
Technology</tspan>
      <tspan font-family="Arial" font-size="8.0000" fill="#000000" fill-opacity="1.0000" stroke-opacity="1.0000">
interaction</tspan>
    </text>
    <!--converted by libvisio2svg-->
  </g>
</svg>
