<svg xmlns="http://www.w3.org/2000/svg" xmlns:xlink="http://www.w3.org/1999/xlink" version="1.1" width="85.0387000000" height="34.0155000000">
  <title><![CDATA[Capability]]></title>
  <g transform=" scale(1.000000) ">
    <path xmlns="http://www.w3.org/2000/svg" d="  M5.3145,0.0000 L79.7242,0.0000 C82.6597,0.0000 85.0387,2.3797 85.0387,5.3145 L85.0387,28.7010 C85.0387,31.6357 82.6597,34.0155 79.7242,34.0155 L5.3145,34.0155 C2.3790,34.0155 0.0000,31.6357 0.0000,28.7010 L0.0000,5.3145 C0.0000,2.3797 2.3790,0.0000 5.3145,0.0000 Z" style="fill-rule: evenodd; fill: #f5deaa; "/>
    <g xmlns="http://www.w3.org/2000/svg" id="Layer1006">
      <path d="  M5.3145,0.0000 L79.7242,0.0000 C82.6597,0.0000 85.0387,2.3797 85.0387,5.3145 L85.0387,28.7010 C85.0387,31.6357 82.6597,34.0155 79.7242,34.0155 L5.3145,34.0155 C2.3790,34.0155 0.0000,31.6357 0.0000,28.7010 L0.0000,5.3145 C0.0000,2.3797 2.3790,0.0000 5.3145,0.0000 Z" style="stroke-width: 0.6375; stroke-linecap: butt; stroke-linejoin: miter; fill-rule: evenodd; fill: #000000; fill-opacity: 0.0000; "/>
      <path d="  M5.3145,0.0000 L79.7242,0.0000 C82.6597,0.0000 85.0387,2.3797 85.0387,5.3145 L85.0387,28.7010 C85.0387,31.6357 82.6597,34.0155 79.7242,34.0155 L5.3145,34.0155 C2.3790,34.0155 0.0000,31.6357 0.0000,28.7010 L0.0000,5.3145 C0.0000,2.3797 2.3790,0.0000 5.3145,0.0000 Z" style="stroke-width: 0.6375; stroke: #000000; stroke-dasharray: none; stroke-linecap: butt; stroke-linejoin: miter; fill: none; fill-opacity: 0.0000; "/>
    </g>
    <g xmlns="http://www.w3.org/2000/svg" id="Layer1007">
      <path d="  M74.5477,7.8202 L77.3130,7.8202 L77.3130,5.0550 L80.0782,5.0550 L80.0782,2.2890 L82.8442,2.2890 L82.8442,10.5855 L74.5477,10.5855 L74.5477,7.8202 Z" style="stroke-width: 0.4253; stroke-linecap: butt; stroke-linejoin: miter; fill-rule: evenodd; fill: #000000; fill-opacity: 0.0000; "/>
      <path d="  M74.5477,7.8202 L77.3130,7.8202 L77.3130,5.0550 L80.0782,5.0550 L80.0782,2.2890 L82.8442,2.2890 L82.8442,10.5855 L74.5477,10.5855 L74.5477,7.8202 Z" style="stroke-width: 0.4253; stroke: #000000; stroke-dasharray: none; stroke-linecap: butt; stroke-linejoin: miter; fill: none; fill-opacity: 0.0000; "/>
    </g>
    <g xmlns="http://www.w3.org/2000/svg" id="Layer1008">
      <path d="  M77.3130,7.8202 L82.8442,7.8202 Z" style="stroke-width: 0.4253; stroke-linecap: butt; stroke-linejoin: miter; fill-rule: evenodd; fill: #000000; fill-opacity: 0.0000; "/>
      <path d="  M77.3130,7.8202 L82.8442,7.8202" style="stroke-width: 0.4253; stroke: #000000; stroke-dasharray: none; stroke-linecap: butt; stroke-linejoin: miter; fill: none; fill-opacity: 0.0000; "/>
    </g>
    <g xmlns="http://www.w3.org/2000/svg" id="Layer1009">
      <path d="  M80.0782,5.0550 L82.8442,5.0550 Z" style="stroke-width: 0.4253; stroke-linecap: butt; stroke-linejoin: miter; fill-rule: evenodd; fill: #000000; fill-opacity: 0.0000; "/>
      <path d="  M80.0782,5.0550 L82.8442,5.0550" style="stroke-width: 0.4253; stroke: #000000; stroke-dasharray: none; stroke-linecap: butt; stroke-linejoin: miter; fill: none; fill-opacity: 0.0000; "/>
    </g>
    <g xmlns="http://www.w3.org/2000/svg" id="Layer1010">
      <path d="  M77.3130,7.8202 L77.3130,10.5855 Z" style="stroke-width: 0.4253; stroke-linecap: butt; stroke-linejoin: miter; fill-rule: evenodd; fill: #000000; fill-opacity: 0.0000; "/>
      <path d="  M77.3130,7.8202 L77.3130,10.5855" style="stroke-width: 0.4253; stroke: #000000; stroke-dasharray: none; stroke-linecap: butt; stroke-linejoin: miter; fill: none; fill-opacity: 0.0000; "/>
    </g>
    <g xmlns="http://www.w3.org/2000/svg" id="Layer1011">
      <path d="  M80.0782,5.0550 L80.0782,10.5855 Z" style="stroke-width: 0.4253; stroke-linecap: butt; stroke-linejoin: miter; fill-rule: evenodd; fill: #000000; fill-opacity: 0.0000; "/>
      <path d="  M80.0782,5.0550 L80.0782,10.5855" style="stroke-width: 0.4253; stroke: #000000; stroke-dasharray: none; stroke-linecap: butt; stroke-linejoin: miter; fill: none; fill-opacity: 0.0000; "/>
    </g>
    <text xmlns="http://www.w3.org/2000/svg" x="4.0000" y="17.0077">
      <tspan font-family="Arial" font-size="8.0000" fill="#000000" fill-opacity="1.0000" stroke-opacity="1.0000">
Capability</tspan>
    </text>
    <!--converted by libvisio2svg-->
  </g>
</svg>
