<svg xmlns="http://www.w3.org/2000/svg" xmlns:xlink="http://www.w3.org/1999/xlink" version="1.1" width="85.0388000000" height="34.0155000000">
  <title><![CDATA[Course of action]]></title>
  <g transform=" scale(1.000000) ">
    <path xmlns="http://www.w3.org/2000/svg" d="  M5.3145,0.0000 L79.7243,0.0000 C82.6598,0.0000 85.0388,2.3798 85.0388,5.3145 L85.0388,28.7003 C85.0388,31.6358 82.6598,34.0155 79.7243,34.0155 L5.3145,34.0155 C2.3790,34.0155 0.0000,31.6358 0.0000,28.7003 L0.0000,5.3145 C0.0000,2.3798 2.3790,0.0000 5.3145,0.0000 Z" style="fill-rule: evenodd; fill: #f5deaa; "/>
    <g xmlns="http://www.w3.org/2000/svg" id="Layer1012">
      <path d="  M5.3145,0.0000 L79.7243,0.0000 C82.6598,0.0000 85.0388,2.3798 85.0388,5.3145 L85.0388,28.7003 C85.0388,31.6358 82.6598,34.0155 79.7243,34.0155 L5.3145,34.0155 C2.3790,34.0155 0.0000,31.6358 0.0000,28.7003 L0.0000,5.3145 C0.0000,2.3798 2.3790,0.0000 5.3145,0.0000 Z" style="stroke-width: 0.6375; stroke-linecap: butt; stroke-linejoin: miter; fill-rule: evenodd; fill: #000000; fill-opacity: 0.0000; "/>
      <path d="  M5.3145,0.0000 L79.7243,0.0000 C82.6598,0.0000 85.0388,2.3798 85.0388,5.3145 L85.0388,28.7003 C85.0388,31.6358 82.6598,34.0155 79.7243,34.0155 L5.3145,34.0155 C2.3790,34.0155 0.0000,31.6358 0.0000,28.7003 L0.0000,5.3145 C0.0000,2.3798 2.3790,0.0000 5.3145,0.0000 Z" style="stroke-width: 0.6375; stroke: #000000; stroke-dasharray: none; stroke-linecap: butt; stroke-linejoin: miter; fill: none; fill-opacity: 0.0000; "/>
    </g>
    <g xmlns="http://www.w3.org/2000/svg" id="Layer1013">
      <path d="  M80.4833,8.5005 C81.6128,8.1818 82.4318,7.3868 82.7573,6.2940 C82.8938,5.8328 82.9328,5.3730 82.8698,4.9673 C82.6958,3.8505 82.0365,2.9618 81.0293,2.4878 C80.5028,2.2395 80.1615,2.1638 79.5705,2.1623 C78.9818,2.1608 78.6473,2.2350 78.1118,2.4878 C77.4225,2.8118 76.9230,3.2985 76.5908,3.9698 C76.3313,4.4918 76.2548,4.8180 76.2563,5.3918 C76.2578,5.9678 76.3358,6.3000 76.5908,6.8130 C77.2943,8.2328 78.9263,8.9400 80.4833,8.5005 Z" style="stroke-width: 0.4140; stroke-linecap: butt; stroke-linejoin: miter; fill-rule: evenodd; fill: #000000; fill-opacity: 0.0000; "/>
      <path d="  M80.4833,8.5005 C81.6128,8.1818 82.4318,7.3868 82.7573,6.2940 C82.8938,5.8328 82.9328,5.3730 82.8698,4.9673 C82.6958,3.8505 82.0365,2.9618 81.0293,2.4878 C80.5028,2.2395 80.1615,2.1638 79.5705,2.1623 C78.9818,2.1608 78.6473,2.2350 78.1118,2.4878 C77.4225,2.8118 76.9230,3.2985 76.5908,3.9698 C76.3313,4.4918 76.2548,4.8180 76.2563,5.3918 C76.2578,5.9678 76.3358,6.3000 76.5908,6.8130 C77.2943,8.2328 78.9263,8.9400 80.4833,8.5005 Z" style="stroke-width: 0.4140; stroke: #000000; stroke-dasharray: none; stroke-linecap: butt; stroke-linejoin: miter; fill: none; fill-opacity: 0.0000; "/>
    </g>
    <path xmlns="http://www.w3.org/2000/svg" d="  M71.3363,11.0790 C71.8913,10.3073 72.5190,9.6728 73.1933,9.2018 C73.5263,8.9693 73.7303,8.8515 73.7535,8.8793 C73.7640,8.8905 73.7603,9.1163 73.7453,9.4238 C73.7318,9.7125 73.7258,9.9758 73.7318,10.0095 C73.7670,10.1955 73.9763,10.2975 74.1345,10.2060 C74.2200,10.1565 76.3140,7.6313 76.3620,7.5195 C76.4235,7.3778 76.3688,7.2113 76.2413,7.1490 C76.1595,7.1093 72.9450,6.6435 72.8775,6.6623 C72.8063,6.6818 72.7275,6.7455 72.6960,6.8108 C72.6615,6.8805 72.6600,7.0253 72.6923,7.0860 C72.7050,7.1100 72.8813,7.3125 73.0838,7.5353 C73.2855,7.7588 73.4513,7.9523 73.4513,7.9658 C73.4513,7.9800 73.3545,8.0423 73.2360,8.1060 C73.0208,8.2208 72.5888,8.5095 72.3720,8.6828 C71.7945,9.1448 71.1983,9.7680 70.7258,10.4040 C70.5645,10.6208 70.1910,11.1885 70.2030,11.1975 C70.2068,11.2005 70.2533,11.2193 70.3058,11.2395 C70.5105,11.3183 70.7175,11.4443 70.8773,11.5868 L70.9515,11.6528 L71.0858,11.4465 C71.1593,11.3333 71.2718,11.1675 71.3363,11.0790 Z" style="fill-rule: evenodd; fill: #000000; "/>
    <g xmlns="http://www.w3.org/2000/svg" id="Layer1014">
      <path d="  M71.3363,11.0790 C71.8913,10.3073 72.5190,9.6728 73.1933,9.2018 C73.5263,8.9693 73.7303,8.8515 73.7535,8.8793 C73.7640,8.8905 73.7603,9.1163 73.7453,9.4238 C73.7318,9.7125 73.7258,9.9758 73.7318,10.0095 C73.7670,10.1955 73.9763,10.2975 74.1345,10.2060 C74.2200,10.1565 76.3140,7.6313 76.3620,7.5195 C76.4235,7.3778 76.3688,7.2113 76.2413,7.1490 C76.1595,7.1093 72.9450,6.6435 72.8775,6.6623 C72.8063,6.6818 72.7275,6.7455 72.6960,6.8108 C72.6615,6.8805 72.6600,7.0253 72.6923,7.0860 C72.7050,7.1100 72.8813,7.3125 73.0838,7.5353 C73.2855,7.7588 73.4513,7.9523 73.4513,7.9658 C73.4513,7.9800 73.3545,8.0423 73.2360,8.1060 C73.0208,8.2208 72.5888,8.5095 72.3720,8.6828 C71.7945,9.1448 71.1983,9.7680 70.7258,10.4040 C70.5645,10.6208 70.1910,11.1885 70.2030,11.1975 C70.2068,11.2005 70.2533,11.2193 70.3058,11.2395 C70.5105,11.3183 70.7175,11.4443 70.8773,11.5868 L70.9515,11.6528 L71.0858,11.4465 C71.1593,11.3333 71.2718,11.1675 71.3363,11.0790 Z" style="stroke-width: 0.4140; stroke-linecap: butt; stroke-linejoin: miter; fill-rule: evenodd; fill: #000000; fill-opacity: 0.0000; "/>
      <path d="  M71.3363,11.0790 C71.8913,10.3073 72.5190,9.6728 73.1933,9.2018 C73.5263,8.9693 73.7303,8.8515 73.7535,8.8793 C73.7640,8.8905 73.7603,9.1163 73.7453,9.4238 C73.7318,9.7125 73.7258,9.9758 73.7318,10.0095 C73.7670,10.1955 73.9763,10.2975 74.1345,10.2060 C74.2200,10.1565 76.3140,7.6313 76.3620,7.5195 C76.4235,7.3778 76.3688,7.2113 76.2413,7.1490 C76.1595,7.1093 72.9450,6.6435 72.8775,6.6623 C72.8063,6.6818 72.7275,6.7455 72.6960,6.8108 C72.6615,6.8805 72.6600,7.0253 72.6923,7.0860 C72.7050,7.1100 72.8813,7.3125 73.0838,7.5353 C73.2855,7.7588 73.4513,7.9523 73.4513,7.9658 C73.4513,7.9800 73.3545,8.0423 73.2360,8.1060 C73.0208,8.2208 72.5888,8.5095 72.3720,8.6828 C71.7945,9.1448 71.1983,9.7680 70.7258,10.4040 C70.5645,10.6208 70.1910,11.1885 70.2030,11.1975 C70.2068,11.2005 70.2533,11.2193 70.3058,11.2395 C70.5105,11.3183 70.7175,11.4443 70.8773,11.5868 L70.9515,11.6528 L71.0858,11.4465 C71.1593,11.3333 71.2718,11.1675 71.3363,11.0790 Z" style="stroke-width: 0.4140; stroke: #000000; stroke-dasharray: none; stroke-linecap: butt; stroke-linejoin: miter; fill: none; fill-opacity: 0.0000; "/>
    </g>
    <path xmlns="http://www.w3.org/2000/svg" d="  M80.3835,5.3963 C80.3835,5.8350 80.0468,6.1905 79.6313,6.1905 C79.2158,6.1905 78.8790,5.8350 78.8790,5.3963 C78.8790,4.9575 79.2158,4.6020 79.6313,4.6020 C80.0468,4.6020 80.3835,4.9575 80.3835,5.3963 Z" style="fill-rule: evenodd; fill: #000000; "/>
    <g xmlns="http://www.w3.org/2000/svg" id="Layer1015">
      <path d="  M80.3835,5.3963 C80.3835,5.8350 80.0468,6.1905 79.6313,6.1905 C79.2158,6.1905 78.8790,5.8350 78.8790,5.3963 C78.8790,4.9575 79.2158,4.6020 79.6313,4.6020 C80.0468,4.6020 80.3835,4.9575 80.3835,5.3963 Z" style="stroke-width: 0.4140; stroke-linecap: round; stroke-linejoin: round; fill-rule: evenodd; fill: #000000; fill-opacity: 0.0000; "/>
      <path d="  M80.3835,5.3963 C80.3835,5.8350 80.0468,6.1905 79.6313,6.1905 C79.2158,6.1905 78.8790,5.8350 78.8790,5.3963 C78.8790,4.9575 79.2158,4.6020 79.6313,4.6020 C80.0468,4.6020 80.3835,4.9575 80.3835,5.3963 Z" style="stroke-width: 0.4140; stroke: #000000; stroke-dasharray: none; stroke-linecap: round; stroke-linejoin: round; fill: none; fill-opacity: 0.0000; "/>
    </g>
    <g xmlns="http://www.w3.org/2000/svg" id="Layer1016">
      <path d="  M80.1285,7.2788 C80.7960,7.0838 81.2798,6.5970 81.4718,5.9280 C81.5528,5.6460 81.5760,5.3648 81.5385,5.1158 C81.4358,4.4325 81.0465,3.8888 80.4510,3.5985 C80.1398,3.4463 79.9380,3.3998 79.5893,3.3990 C79.2413,3.3983 79.0433,3.4440 78.7268,3.5985 C78.3203,3.7965 78.0248,4.0950 77.8283,4.5053 C77.6753,4.8255 77.6303,5.0250 77.6310,5.3760 C77.6318,5.7285 77.6783,5.9318 77.8283,6.2460 C78.2445,7.1153 79.2083,7.5480 80.1285,7.2788 Z" style="stroke-width: 0.4140; stroke-linecap: butt; stroke-linejoin: miter; fill-rule: evenodd; fill: #000000; fill-opacity: 0.0000; "/>
      <path d="  M80.1285,7.2788 C80.7960,7.0838 81.2798,6.5970 81.4718,5.9280 C81.5528,5.6460 81.5760,5.3648 81.5385,5.1158 C81.4358,4.4325 81.0465,3.8888 80.4510,3.5985 C80.1398,3.4463 79.9380,3.3998 79.5893,3.3990 C79.2413,3.3983 79.0433,3.4440 78.7268,3.5985 C78.3203,3.7965 78.0248,4.0950 77.8283,4.5053 C77.6753,4.8255 77.6303,5.0250 77.6310,5.3760 C77.6318,5.7285 77.6783,5.9318 77.8283,6.2460 C78.2445,7.1153 79.2083,7.5480 80.1285,7.2788 Z" style="stroke-width: 0.4140; stroke: #000000; stroke-dasharray: none; stroke-linecap: butt; stroke-linejoin: miter; fill: none; fill-opacity: 0.0000; "/>
    </g>
    <text xmlns="http://www.w3.org/2000/svg" x="4.0000" y="17.0078">
      <tspan font-family="Arial" font-size="8.0000" fill="#000000" fill-opacity="1.0000" stroke-opacity="1.0000">
Course of</tspan>
      <tspan font-family="Arial" font-size="8.0000" fill="#000000" fill-opacity="1.0000" stroke-opacity="1.0000">
action</tspan>
    </text>
    <!--converted by libvisio2svg-->
  </g>
</svg>
