<svg xmlns:xlink="http://www.w3.org/1999/xlink" xmlns="http://www.w3.org/2000/svg" version="1.1" width="12.7298000000"
     height="9.4920000000">
    <title><![CDATA[Course of action 2]]></title>
    <g transform=" scale(1.000000) ">
        <g xmlns="http://www.w3.org/2000/svg" id="Layer1013">
            <path d="  M10.2803,6.3397 C11.4098,6.0210 12.2288,5.2260 12.5543,4.1332 C12.6908,3.6720 12.7298,3.2122 12.6668,2.8065 C12.4928,1.6897 11.8335,0.8010 10.8263,0.3270 C10.2998,0.0787 9.9585,0.0030 9.3675,0.0015 C8.7788,0.0000 8.4443,0.0742 7.9088,0.3270 C7.2195,0.6510 6.7200,1.1377 6.3878,1.8090 C6.1283,2.3310 6.0518,2.6572 6.0533,3.2310 C6.0548,3.8070 6.1328,4.1392 6.3878,4.6522 C7.0913,6.0720 8.7233,6.7792 10.2803,6.3397 Z"
                  style="stroke-width: 0.4140; stroke-linecap: butt; stroke-linejoin: miter; fill-rule: evenodd; fill: #000000; fill-opacity: 0.0000; "/>
            <path d="  M10.2803,6.3397 C11.4098,6.0210 12.2288,5.2260 12.5543,4.1332 C12.6908,3.6720 12.7298,3.2122 12.6668,2.8065 C12.4928,1.6897 11.8335,0.8010 10.8263,0.3270 C10.2998,0.0787 9.9585,0.0030 9.3675,0.0015 C8.7788,0.0000 8.4443,0.0742 7.9088,0.3270 C7.2195,0.6510 6.7200,1.1377 6.3878,1.8090 C6.1283,2.3310 6.0518,2.6572 6.0533,3.2310 C6.0548,3.8070 6.1328,4.1392 6.3878,4.6522 C7.0913,6.0720 8.7233,6.7792 10.2803,6.3397 Z"
                  style="stroke-width: 0.4140; stroke: #000000; stroke-dasharray: none; stroke-linecap: butt; stroke-linejoin: miter; fill: #f5deaa; fill-opacity: 1.0000; "/>
        </g>
        <path xmlns="http://www.w3.org/2000/svg"
              d="  M1.1333,8.9182 C1.6883,8.1465 2.3160,7.5120 2.9903,7.0410 C3.3233,6.8085 3.5273,6.6907 3.5505,6.7185 C3.5610,6.7297 3.5573,6.9555 3.5423,7.2630 C3.5288,7.5517 3.5228,7.8150 3.5288,7.8487 C3.5640,8.0347 3.7733,8.1367 3.9315,8.0452 C4.0170,7.9957 6.1110,5.4705 6.1590,5.3587 C6.2205,5.2170 6.1658,5.0505 6.0383,4.9882 C5.9565,4.9485 2.7420,4.4827 2.6745,4.5015 C2.6033,4.5210 2.5245,4.5847 2.4930,4.6500 C2.4585,4.7197 2.4570,4.8645 2.4893,4.9252 C2.5020,4.9492 2.6783,5.1517 2.8808,5.3745 C3.0825,5.5980 3.2483,5.7915 3.2483,5.8050 C3.2483,5.8192 3.1515,5.8815 3.0330,5.9452 C2.8178,6.0600 2.3858,6.3487 2.1690,6.5220 C1.5915,6.9840 0.9953,7.6072 0.5228,8.2432 C0.3615,8.4600 -0.0120,9.0277 0.0000,9.0367 C0.0038,9.0397 0.0503,9.0585 0.1028,9.0787 C0.3075,9.1575 0.5145,9.2835 0.6743,9.4260 L0.7485,9.4920 L0.8828,9.2857 C0.9563,9.1725 1.0688,9.0067 1.1333,8.9182 Z"
              style="fill-rule: evenodd; fill: #000000; "/>
        <g xmlns="http://www.w3.org/2000/svg" id="Layer1014">
            <path d="  M1.1333,8.9182 C1.6883,8.1465 2.3160,7.5120 2.9903,7.0410 C3.3233,6.8085 3.5273,6.6907 3.5505,6.7185 C3.5610,6.7297 3.5573,6.9555 3.5423,7.2630 C3.5288,7.5517 3.5228,7.8150 3.5288,7.8487 C3.5640,8.0347 3.7733,8.1367 3.9315,8.0452 C4.0170,7.9957 6.1110,5.4705 6.1590,5.3587 C6.2205,5.2170 6.1658,5.0505 6.0383,4.9882 C5.9565,4.9485 2.7420,4.4827 2.6745,4.5015 C2.6033,4.5210 2.5245,4.5847 2.4930,4.6500 C2.4585,4.7197 2.4570,4.8645 2.4893,4.9252 C2.5020,4.9492 2.6783,5.1517 2.8808,5.3745 C3.0825,5.5980 3.2483,5.7915 3.2483,5.8050 C3.2483,5.8192 3.1515,5.8815 3.0330,5.9452 C2.8178,6.0600 2.3858,6.3487 2.1690,6.5220 C1.5915,6.9840 0.9953,7.6072 0.5228,8.2432 C0.3615,8.4600 -0.0120,9.0277 0.0000,9.0367 C0.0038,9.0397 0.0503,9.0585 0.1028,9.0787 C0.3075,9.1575 0.5145,9.2835 0.6743,9.4260 L0.7485,9.4920 L0.8828,9.2857 C0.9563,9.1725 1.0688,9.0067 1.1333,8.9182 Z"
                  style="stroke-width: 0.4140; stroke-linecap: butt; stroke-linejoin: miter; fill-rule: evenodd; fill: #000000; fill-opacity: 0.0000; "/>
            <path d="  M1.1333,8.9182 C1.6883,8.1465 2.3160,7.5120 2.9903,7.0410 C3.3233,6.8085 3.5273,6.6907 3.5505,6.7185 C3.5610,6.7297 3.5573,6.9555 3.5423,7.2630 C3.5288,7.5517 3.5228,7.8150 3.5288,7.8487 C3.5640,8.0347 3.7733,8.1367 3.9315,8.0452 C4.0170,7.9957 6.1110,5.4705 6.1590,5.3587 C6.2205,5.2170 6.1658,5.0505 6.0383,4.9882 C5.9565,4.9485 2.7420,4.4827 2.6745,4.5015 C2.6033,4.5210 2.5245,4.5847 2.4930,4.6500 C2.4585,4.7197 2.4570,4.8645 2.4893,4.9252 C2.5020,4.9492 2.6783,5.1517 2.8808,5.3745 C3.0825,5.5980 3.2483,5.7915 3.2483,5.8050 C3.2483,5.8192 3.1515,5.8815 3.0330,5.9452 C2.8178,6.0600 2.3858,6.3487 2.1690,6.5220 C1.5915,6.9840 0.9953,7.6072 0.5228,8.2432 C0.3615,8.4600 -0.0120,9.0277 0.0000,9.0367 C0.0038,9.0397 0.0503,9.0585 0.1028,9.0787 C0.3075,9.1575 0.5145,9.2835 0.6743,9.4260 L0.7485,9.4920 L0.8828,9.2857 C0.9563,9.1725 1.0688,9.0067 1.1333,8.9182 Z"
                  style="stroke-width: 0.4140; stroke: #000000; stroke-dasharray: none; stroke-linecap: butt; stroke-linejoin: miter; fill: none; fill-opacity: 0.0000; "/>
        </g>
        <path xmlns="http://www.w3.org/2000/svg"
              d="  M10.1805,3.2355 C10.1805,3.6742 9.8438,4.0297 9.4283,4.0297 C9.0128,4.0297 8.6760,3.6742 8.6760,3.2355 C8.6760,2.7967 9.0128,2.4412 9.4283,2.4412 C9.8438,2.4412 10.1805,2.7967 10.1805,3.2355 Z"
              style="fill-rule: evenodd; fill: #000000; "/>
        <g xmlns="http://www.w3.org/2000/svg" id="Layer1015">
            <path d="  M10.1805,3.2355 C10.1805,3.6742 9.8438,4.0297 9.4283,4.0297 C9.0128,4.0297 8.6760,3.6742 8.6760,3.2355 C8.6760,2.7967 9.0128,2.4412 9.4283,2.4412 C9.8438,2.4412 10.1805,2.7967 10.1805,3.2355 Z"
                  style="stroke-width: 0.4140; stroke-linecap: round; stroke-linejoin: round; fill-rule: evenodd; fill: #000000; fill-opacity: 0.0000; "/>
            <path d="  M10.1805,3.2355 C10.1805,3.6742 9.8438,4.0297 9.4283,4.0297 C9.0128,4.0297 8.6760,3.6742 8.6760,3.2355 C8.6760,2.7967 9.0128,2.4412 9.4283,2.4412 C9.8438,2.4412 10.1805,2.7967 10.1805,3.2355 Z"
                  style="stroke-width: 0.4140; stroke: #000000; stroke-dasharray: none; stroke-linecap: round; stroke-linejoin: round; fill: none; fill-opacity: 0.0000; "/>
        </g>
        <g xmlns="http://www.w3.org/2000/svg" id="Layer1016">
            <path d="  M9.9255,5.1180 C10.5930,4.9230 11.0768,4.4362 11.2688,3.7672 C11.3498,3.4852 11.3730,3.2040 11.3355,2.9550 C11.2328,2.2717 10.8435,1.7280 10.2480,1.4377 C9.9368,1.2855 9.7350,1.2390 9.3863,1.2382 C9.0383,1.2375 8.8403,1.2832 8.5238,1.4377 C8.1173,1.6357 7.8218,1.9342 7.6253,2.3445 C7.4723,2.6647 7.4273,2.8642 7.4280,3.2152 C7.4288,3.5677 7.4753,3.7710 7.6253,4.0852 C8.0415,4.9545 9.0053,5.3872 9.9255,5.1180 Z"
                  style="stroke-width: 0.4140; stroke-linecap: butt; stroke-linejoin: miter; fill-rule: evenodd; fill: #000000; fill-opacity: 0.0000; "/>
            <path d="  M9.9255,5.1180 C10.5930,4.9230 11.0768,4.4362 11.2688,3.7672 C11.3498,3.4852 11.3730,3.2040 11.3355,2.9550 C11.2328,2.2717 10.8435,1.7280 10.2480,1.4377 C9.9368,1.2855 9.7350,1.2390 9.3863,1.2382 C9.0383,1.2375 8.8403,1.2832 8.5238,1.4377 C8.1173,1.6357 7.8218,1.9342 7.6253,2.3445 C7.4723,2.6647 7.4273,2.8642 7.4280,3.2152 C7.4288,3.5677 7.4753,3.7710 7.6253,4.0852 C8.0415,4.9545 9.0053,5.3872 9.9255,5.1180 Z"
                  style="stroke-width: 0.4140; stroke: #000000; stroke-dasharray: none; stroke-linecap: butt; stroke-linejoin: miter; fill: none; fill-opacity: 0.0000; "/>
        </g>
        <!--converted by libvisio2svg-->
    </g>
</svg>
