<svg xmlns:xlink="http://www.w3.org/1999/xlink" xmlns="http://www.w3.org/2000/svg" version="1.1" width="10.3763000000"
     height="6.1912000000">
    <title><![CDATA[Resource 2]]></title>
    <g transform=" scale(1.000000) ">
        <g xmlns="http://www.w3.org/2000/svg" id="Layer1001">
            <path d="  M0.5303,6.1132 C0.4035,6.0772 0.2318,5.9625 0.1493,5.8590 C0.0045,5.6775 0.0000,5.5890 0.0000,3.1117 C0.0000,0.6382 0.0053,0.5460 0.1493,0.3652 C0.2310,0.2625 0.4200,0.1455 0.5693,0.1057 C0.9668,0.0000 8.4510,0.0202 8.7735,0.1282 C9.2040,0.2715 9.3210,0.5145 9.3495,1.3260 L9.3743,2.0370 L9.7553,2.0370 C10.3290,2.0370 10.3763,2.1202 10.3763,3.1245 C10.3763,4.1085 10.3298,4.1865 9.7358,4.1865 L9.3608,4.1865 L9.3608,4.8135 C9.3600,5.5620 9.2318,5.8800 8.8523,6.0667 C8.6198,6.1815 8.2733,6.1912 4.6800,6.1860 C2.5253,6.1822 0.6578,6.1492 0.5303,6.1132 Z"
                  style="stroke-width: 0.4155; stroke-linecap: round; stroke-linejoin: round; fill-rule: evenodd; fill: #000000; fill-opacity: 0.0000; "/>
            <path d="  M0.5303,6.1132 C0.4035,6.0772 0.2318,5.9625 0.1493,5.8590 C0.0045,5.6775 0.0000,5.5890 0.0000,3.1117 C0.0000,0.6382 0.0053,0.5460 0.1493,0.3652 C0.2310,0.2625 0.4200,0.1455 0.5693,0.1057 C0.9668,0.0000 8.4510,0.0202 8.7735,0.1282 C9.2040,0.2715 9.3210,0.5145 9.3495,1.3260 L9.3743,2.0370 L9.7553,2.0370 C10.3290,2.0370 10.3763,2.1202 10.3763,3.1245 C10.3763,4.1085 10.3298,4.1865 9.7358,4.1865 L9.3608,4.1865 L9.3608,4.8135 C9.3600,5.5620 9.2318,5.8800 8.8523,6.0667 C8.6198,6.1815 8.2733,6.1912 4.6800,6.1860 C2.5253,6.1822 0.6578,6.1492 0.5303,6.1132 Z"
                  style="stroke-width: 0.4155; stroke: #000000; stroke-dasharray: none; stroke-linecap: round; stroke-linejoin: round; fill: #f5deaa; fill-opacity: 1.0000; "/>
        </g>
        <g xmlns="http://www.w3.org/2000/svg" id="Layer1002">
            <path d="  M9.4118,2.0400 L9.3915,4.1835 Z"
                  style="stroke-width: 0.4155; stroke-linecap: butt; stroke-linejoin: miter; fill-rule: evenodd; fill: #000000; fill-opacity: 0.0000; "/>
            <path d="  M9.4118,2.0400 L9.3915,4.1835"
                  style="stroke-width: 0.4155; stroke: #000000; stroke-dasharray: none; stroke-linecap: butt; stroke-linejoin: miter; fill: none; fill-opacity: 0.0000; "/>
        </g>
        <g xmlns="http://www.w3.org/2000/svg" id="Layer1003">
            <path d="  M1.9178,1.4715 L1.9178,4.7512 Z"
                  style="stroke-width: 0.4155; stroke-linecap: butt; stroke-linejoin: miter; fill-rule: evenodd; fill: #000000; fill-opacity: 0.0000; "/>
            <path d="  M1.9178,1.4715 L1.9178,4.7512"
                  style="stroke-width: 0.4155; stroke: #000000; stroke-dasharray: none; stroke-linecap: butt; stroke-linejoin: miter; fill: none; fill-opacity: 0.0000; "/>
        </g>
        <g xmlns="http://www.w3.org/2000/svg" id="Layer1004">
            <path d="  M3.5835,1.4715 L3.5835,4.7512 Z"
                  style="stroke-width: 0.4155; stroke-linecap: butt; stroke-linejoin: miter; fill-rule: evenodd; fill: #000000; fill-opacity: 0.0000; "/>
            <path d="  M3.5835,1.4715 L3.5835,4.7512"
                  style="stroke-width: 0.4155; stroke: #000000; stroke-dasharray: none; stroke-linecap: butt; stroke-linejoin: miter; fill: none; fill-opacity: 0.0000; "/>
        </g>
        <g xmlns="http://www.w3.org/2000/svg" id="Layer1005">
            <path d="  M5.2328,1.4715 L5.2328,4.7512 Z"
                  style="stroke-width: 0.4155; stroke-linecap: butt; stroke-linejoin: miter; fill-rule: evenodd; fill: #000000; fill-opacity: 0.0000; "/>
            <path d="  M5.2328,1.4715 L5.2328,4.7512"
                  style="stroke-width: 0.4155; stroke: #000000; stroke-dasharray: none; stroke-linecap: butt; stroke-linejoin: miter; fill: none; fill-opacity: 0.0000; "/>
        </g>
        <!--converted by libvisio2svg-->
    </g>
</svg>
