<svg xmlns="http://www.w3.org/2000/svg" xmlns:xlink="http://www.w3.org/1999/xlink" version="1.1" width="85.0388000000" height="34.0155000000">
  <title><![CDATA[Resource]]></title>
  <g transform=" scale(1.000000) ">
    <path xmlns="http://www.w3.org/2000/svg" d="  M0.0000,0.0000 L85.0388,0.0000 L85.0388,34.0155 L0.0000,34.0155 L0.0000,0.0000 Z" style="fill-rule: evenodd; fill: #f5deaa; "/>
    <g xmlns="http://www.w3.org/2000/svg" id="Layer1000">
      <path d="  M0.0000,0.0000 L85.0388,0.0000 L85.0388,34.0155 L0.0000,34.0155 L0.0000,0.0000 Z" style="stroke-width: 0.6375; stroke-linecap: butt; stroke-linejoin: miter; fill-rule: evenodd; fill: #000000; fill-opacity: 0.0000; "/>
      <path d="  M0.0000,0.0000 L85.0388,0.0000 L85.0388,34.0155 L0.0000,34.0155 L0.0000,0.0000 Z" style="stroke-width: 0.6375; stroke: #000000; stroke-dasharray: none; stroke-linecap: butt; stroke-linejoin: miter; fill: none; fill-opacity: 0.0000; "/>
    </g>
    <g xmlns="http://www.w3.org/2000/svg" id="Layer1001">
      <path d="  M72.9713,8.3475 C72.8445,8.3115 72.6728,8.1968 72.5903,8.0933 C72.4455,7.9118 72.4410,7.8233 72.4410,5.3460 C72.4410,2.8725 72.4463,2.7803 72.5903,2.5995 C72.6720,2.4968 72.8610,2.3798 73.0103,2.3400 C73.4078,2.2343 80.8920,2.2545 81.2145,2.3625 C81.6450,2.5058 81.7620,2.7488 81.7905,3.5603 L81.8153,4.2713 L82.1963,4.2713 C82.7700,4.2713 82.8173,4.3545 82.8173,5.3588 C82.8173,6.3428 82.7708,6.4208 82.1768,6.4208 L81.8018,6.4208 L81.8018,7.0478 C81.8010,7.7963 81.6728,8.1143 81.2933,8.3010 C81.0608,8.4158 80.7143,8.4255 77.1210,8.4203 C74.9663,8.4165 73.0988,8.3835 72.9713,8.3475 Z" style="stroke-width: 0.4155; stroke-linecap: round; stroke-linejoin: round; fill-rule: evenodd; fill: #000000; fill-opacity: 0.0000; "/>
      <path d="  M72.9713,8.3475 C72.8445,8.3115 72.6728,8.1968 72.5903,8.0933 C72.4455,7.9118 72.4410,7.8233 72.4410,5.3460 C72.4410,2.8725 72.4463,2.7803 72.5903,2.5995 C72.6720,2.4968 72.8610,2.3798 73.0103,2.3400 C73.4078,2.2343 80.8920,2.2545 81.2145,2.3625 C81.6450,2.5058 81.7620,2.7488 81.7905,3.5603 L81.8153,4.2713 L82.1963,4.2713 C82.7700,4.2713 82.8173,4.3545 82.8173,5.3588 C82.8173,6.3428 82.7708,6.4208 82.1768,6.4208 L81.8018,6.4208 L81.8018,7.0478 C81.8010,7.7963 81.6728,8.1143 81.2933,8.3010 C81.0608,8.4158 80.7143,8.4255 77.1210,8.4203 C74.9663,8.4165 73.0988,8.3835 72.9713,8.3475 Z" style="stroke-width: 0.4155; stroke: #000000; stroke-dasharray: none; stroke-linecap: round; stroke-linejoin: round; fill: none; fill-opacity: 0.0000; "/>
    </g>
    <g xmlns="http://www.w3.org/2000/svg" id="Layer1002">
      <path d="  M81.8528,4.2743 L81.8325,6.4178 Z" style="stroke-width: 0.4155; stroke-linecap: butt; stroke-linejoin: miter; fill-rule: evenodd; fill: #000000; fill-opacity: 0.0000; "/>
      <path d="  M81.8528,4.2743 L81.8325,6.4178" style="stroke-width: 0.4155; stroke: #000000; stroke-dasharray: none; stroke-linecap: butt; stroke-linejoin: miter; fill: none; fill-opacity: 0.0000; "/>
    </g>
    <g xmlns="http://www.w3.org/2000/svg" id="Layer1003">
      <path d="  M74.3588,3.7058 L74.3588,6.9855 Z" style="stroke-width: 0.4155; stroke-linecap: butt; stroke-linejoin: miter; fill-rule: evenodd; fill: #000000; fill-opacity: 0.0000; "/>
      <path d="  M74.3588,3.7058 L74.3588,6.9855" style="stroke-width: 0.4155; stroke: #000000; stroke-dasharray: none; stroke-linecap: butt; stroke-linejoin: miter; fill: none; fill-opacity: 0.0000; "/>
    </g>
    <g xmlns="http://www.w3.org/2000/svg" id="Layer1004">
      <path d="  M76.0245,3.7058 L76.0245,6.9855 Z" style="stroke-width: 0.4155; stroke-linecap: butt; stroke-linejoin: miter; fill-rule: evenodd; fill: #000000; fill-opacity: 0.0000; "/>
      <path d="  M76.0245,3.7058 L76.0245,6.9855" style="stroke-width: 0.4155; stroke: #000000; stroke-dasharray: none; stroke-linecap: butt; stroke-linejoin: miter; fill: none; fill-opacity: 0.0000; "/>
    </g>
    <g xmlns="http://www.w3.org/2000/svg" id="Layer1005">
      <path d="  M77.6738,3.7058 L77.6738,6.9855 Z" style="stroke-width: 0.4155; stroke-linecap: butt; stroke-linejoin: miter; fill-rule: evenodd; fill: #000000; fill-opacity: 0.0000; "/>
      <path d="  M77.6738,3.7058 L77.6738,6.9855" style="stroke-width: 0.4155; stroke: #000000; stroke-dasharray: none; stroke-linecap: butt; stroke-linejoin: miter; fill: none; fill-opacity: 0.0000; "/>
    </g>
    <text xmlns="http://www.w3.org/2000/svg" x="4.0000" y="17.0078">
      <tspan font-family="Arial" font-size="8.0000" fill="#000000" fill-opacity="1.0000" stroke-opacity="1.0000">
Resource</tspan>
    </text>
    <!--converted by libvisio2svg-->
  </g>
</svg>
