<svg xmlns:xlink="http://www.w3.org/1999/xlink" xmlns="http://www.w3.org/2000/svg" version="1.1" width="140.0000000000"
     height="75.0000000000">
    <title><![CDATA[Value Stream]]></title>
    <g transform=" scale(1.000000) ">
        <path xmlns="http://www.w3.org/2000/svg"
              d="  M20.0000,10.0000 L120.0000,10.0000 C125.5228,10.0000 130.0000,14.4772 130.0000,20.0000 L130.0000,56.0000 C130.0000,61.5228 125.5228,66.0000 120.0000,66.0000 L20.0000,66.0000 C14.4772,66.0000 10.0000,61.5228 10.0000,56.0000 L10.0000,20.0000 C10.0000,14.4772 14.4772,10.0000 20.0000,10.0000 Z"
              style="fill-rule: evenodd; fill: #f5deaa; "/>
        <g xmlns="http://www.w3.org/2000/svg" id="Layer1000">
            <path d="  M20.0000,10.0000 L120.0000,10.0000 C125.5228,10.0000 130.0000,14.4772 130.0000,20.0000 L130.0000,56.0000 C130.0000,61.5228 125.5228,66.0000 120.0000,66.0000 L20.0000,66.0000 C14.4772,66.0000 10.0000,61.5228 10.0000,56.0000 L10.0000,20.0000 C10.0000,14.4772 14.4772,10.0000 20.0000,10.0000 Z"
                  style="stroke-width: 0.6375; stroke-linecap: butt; stroke-linejoin: miter; fill-rule: evenodd; fill: #000000; fill-opacity: 0.0000; "/>
            <path d="  M20.0000,10.0000 L120.0000,10.0000 C125.5228,10.0000 130.0000,14.4772 130.0000,20.0000 L130.0000,56.0000 C130.0000,61.5228 125.5228,66.0000 120.0000,66.0000 L20.0000,66.0000 C14.4772,66.0000 10.0000,61.5228 10.0000,56.0000 L10.0000,20.0000 C10.0000,14.4772 14.4772,10.0000 20.0000,10.0000 Z"
                  style="stroke-width: 0.6375; stroke: #000000; stroke-dasharray: none; stroke-linecap: butt; stroke-linejoin: miter; fill: none; fill-opacity: 0.0000; "/>
        </g>
        <g xmlns="http://www.w3.org/2000/svg" id="Layer1001">
            <path d="  M111.0000,17.0000 L121.0000,17.0000 L126.0000,22.0000 L121.0000,27.0000 L111.0000,27.0000 L116.0000,22.0000 Z"
                  style="stroke-width: 0.4253; stroke-linecap: butt; stroke-linejoin: miter; fill-rule: evenodd; fill: #000000; fill-opacity: 0.0000; "/>
            <path d="  M111.0000,17.0000 L121.0000,17.0000 L126.0000,22.0000 L121.0000,27.0000 L111.0000,27.0000 L116.0000,22.0000 Z"
                  style="stroke-width: 0.4253; stroke: #000000; stroke-dasharray: none; stroke-linecap: butt; stroke-linejoin: miter; fill: none; fill-opacity: 0.0000; "/>
        </g>
        <!--converted by libvisio2svg-->
    </g>
</svg>
