<?xml version="1.0" encoding="UTF-8"?>
<svg xmlns="http://www.w3.org/2000/svg" xmlns:xlink="http://www.w3.org/1999/xlink" width="842" height="649" viewBox="0 0 842 649"><defs><marker id="arrowhead" markerWidth="8" markerHeight="8" refX="6" refY="4" orient="auto"><polygon points="0 0, 8 4, 0 8" fill="black" /></marker><marker id="arrow-filled" markerWidth="8" markerHeight="8" refX="6" refY="4" orient="auto"><polygon points="0 0, 8 4, 0 8" fill="black" /></marker><marker id="arrow-hollow" markerWidth="8" markerHeight="8" refX="6" refY="4" orient="auto"><polygon points="0 0, 8 4, 0 8" fill="none" stroke="black" stroke-width="1" /></marker><marker id="diamond-filled" markerWidth="8" markerHeight="8" refX="4" refY="4" orient="auto"><polygon points="4 0, 8 4, 4 8, 0 4" fill="black" /></marker><marker id="diamond-hollow" markerWidth="8" markerHeight="8" refX="4" refY="4" orient="auto"><polygon points="4 0, 8 4, 4 8, 0 4" fill="none" stroke="black" stroke-width="1" /></marker></defs><rect x="0" y="0" width="842" height="649" fill="white" stroke="none" /><g class="node"><rect x="127" y="70" width="120" height="55" fill="#fffbdb" stroke="none" /><rect x="127" y="70" width="120" height="55" fill="none" stroke="black" stroke-width="1" /><path d="M 232.5 76.5 L 232.5 83.2 M 228 78.8 L 237 78.8 M 228 87 L 232.5 83.2 L 237 87" fill="none" stroke="black" stroke-width="1" /><text x="187" y="97" text-anchor="middle" font-family="Arial, sans-serif" font-size="10" fill="black">Business Actor</text></g><g class="node"><rect x="304" y="65" width="120" height="55" fill="#fffbdb" stroke="none" /><rect x="304" y="65" width="120" height="55" fill="none" stroke="black" stroke-width="1" /><path d="M 412.5 72 C 415 72 417 74 417 76.5 C 417 79 415 81 412.5 81 L 406.5 81 C 404 81 402 79 402 76.5 C 402 74 404 72 406.5 72 Z" fill="none" stroke="black" stroke-width="1" /><text x="364" y="92" text-anchor="middle" font-family="Arial, sans-serif" font-size="10" fill="black">Business Service</text></g><g class="node"><rect x="448" y="70" width="120" height="55" fill="#fffbdb" stroke="none" /><rect x="448" y="70" width="120" height="55" fill="none" stroke="black" stroke-width="1" /><path d="M 553.5 76 L 561 79 L 561 91 L 553.5 88 L 546 91 L 546 79 Z" fill="none" stroke="black" stroke-width="1" /><text x="508" y="97" text-anchor="middle" font-family="Arial, sans-serif" font-size="10" fill="black">Business Function</text></g><g class="node"><rect x="611" y="70" width="120" height="55" fill="#fffbdb" stroke="none" /><rect x="611" y="70" width="120" height="55" fill="none" stroke="black" stroke-width="1" /><line x1="611" y1="81.0" x2="731" y2="81.0" stroke="black" stroke-width="1" /><text x="671" y="97" text-anchor="middle" font-family="Arial, sans-serif" font-size="10" fill="black">Business Object</text></g><g class="node"><rect x="314" y="180" width="120" height="55" fill="#daf0f8" stroke="none" /><rect x="314" y="180" width="120" height="55" fill="none" stroke="black" stroke-width="1" /><path d="M 416.2 186 L 426 186 L 426 201 L 416.2 201 Z M 413 189.8 L 419.5 189.8 L 419.5 192 L 413 192 Z M 413 195 L 419.5 195 L 419.5 197.2 L 413 197.2 Z" fill="none" stroke="black" stroke-width="1" /><text x="374" y="202" text-anchor="middle" font-family="Arial, sans-serif" font-size="10" fill="black">Application<tspan x="374" dy="11">Component</tspan></text></g><g class="node"><rect x="139" y="180" width="120" height="55" fill="#daf0f8" stroke="none" /><rect x="139" y="180" width="120" height="55" fill="none" stroke="black" stroke-width="1" /><path d="M 241.2 186 L 251 186 L 251 201 L 241.2 201 Z M 238 189.8 L 244.5 189.8 L 244.5 192 L 238 192 Z M 238 195 L 244.5 195 L 244.5 197.2 L 238 197.2 Z" fill="none" stroke="black" stroke-width="1" /><text x="199" y="202" text-anchor="middle" font-family="Arial, sans-serif" font-size="10" fill="black">Application<tspan x="199" dy="11">Component 2</tspan></text></g><g class="node"><rect x="467" y="279" width="120" height="55" fill="#f5dbfb" stroke="none" /><rect x="467" y="279" width="120" height="55" fill="none" stroke="black" stroke-width="1" /><text x="527" y="306" text-anchor="middle" font-family="Arial, sans-serif" font-size="10" fill="black">Capability</text></g><g class="node"><rect x="334" y="423" width="488" height="206" fill="none" stroke="black" stroke-width="1" stroke-dasharray="5,5" /><text x="339" y="442" text-anchor="start" font-family="Arial, sans-serif" font-size="10" fill="black">Grouping</text><g class="node"><rect x="382" y="459" width="385" height="157" fill="none" stroke="black" stroke-width="1" stroke-dasharray="5,5" /><text x="387" y="478" text-anchor="start" font-family="Arial, sans-serif" font-size="10" fill="black">Facility</text><g class="node"><rect x="418" y="507" width="120" height="55" fill="#daf0e0" stroke="none" /><rect x="418" y="507" width="120" height="55" fill="none" stroke="black" stroke-width="1" /><path d="M 516 516.8 L 519.8 513 L 531 513 L 531 524.2 L 527.2 528 L 516 528 Z M 516 516.8 L 527.2 516.8 L 527.2 528 M 531 513 L 527.2 516.8" fill="none" stroke="black" stroke-width="1" /><text x="478" y="534" text-anchor="middle" font-family="Arial, sans-serif" font-size="10" fill="black">Node</text></g><g class="node"><rect x="586" y="507" width="120" height="55" fill="#daf0e0" stroke="none" /><rect x="586" y="507" width="120" height="55" fill="none" stroke="black" stroke-width="1" /><path d="M 684 516.8 L 687.8 513 L 699 513 L 699 524.2 L 695.2 528 L 684 528 Z M 684 516.8 L 695.2 516.8 L 695.2 528 M 699 513 L 695.2 516.8" fill="none" stroke="black" stroke-width="1" /><text x="646" y="534" text-anchor="middle" font-family="Arial, sans-serif" font-size="10" fill="black">Node2</text></g></g></g><polyline points="186,69 186,61 186,60 187,60 282,60 282,146 364,146 363,146 363,119" fill="none" stroke="#9B59B6" stroke-width="1.0" opacity="0.8" stroke-dasharray="5,5" marker-end="url(#arrow-filled)" /><g class="connection-label"><rect x="204" y="54" width="60" height="12" fill="white" stroke="none" /><text x="234" y="64" text-anchor="middle" font-family="Arial, sans-serif" font-size="9" fill="black">Assignment</text></g><polyline points="363,119 363,127 363,152 364,152 282,152 282,257 527,257 526,257 526,278" fill="none" stroke="#4A4A4A" stroke-width="1.0" opacity="0.8" stroke-dasharray="2,2" marker-end="url(#arrow-hollow)" /><g class="connection-label"><rect x="371" y="251" width="66" height="12" fill="white" stroke="none" /><text x="404" y="261" text-anchor="middle" font-family="Arial, sans-serif" font-size="9" fill="black">Realization</text></g><polyline points="507,124 507,132 507,152 508,152 374,152 373,152 373,179" fill="none" stroke="#4ECDC4" stroke-width="1.0" opacity="0.8" marker-end="url(#arrow-filled)" /><g class="connection-label"><rect x="420" y="146" width="42" height="12" fill="white" stroke="none" /><text x="441" y="156" text-anchor="middle" font-family="Arial, sans-serif" font-size="9" fill="black">Serving</text></g><polyline points="567,109 575,109 590,109 590,110 590,98 590,97 610,97" fill="none" stroke="#FF6B6B" stroke-width="1.0" opacity="0.8" stroke-dasharray="2,4" marker-end="url(#arrow-filled)" /><g class="connection-label"><rect x="582" y="91" width="36" height="12" fill="white" stroke="none" /><text x="600" y="101" text-anchor="middle" font-family="Arial, sans-serif" font-size="9" fill="black">Access</text></g><polyline points="507,69 507,61 507,60 508,60 282,60 282,158 364,158 363,158 363,119" fill="none" stroke="#4A4A4A" stroke-width="1.0" opacity="0.8" stroke-dasharray="2,2" marker-end="url(#arrow-hollow)" /><g class="connection-label"><rect x="362" y="54" width="66" height="12" fill="white" stroke="none" /><text x="395" y="64" text-anchor="middle" font-family="Arial, sans-serif" font-size="9" fill="black">Realization</text></g><polyline points="313,207 305,207 286,207 286,208 286,208 286,207 258,207" fill="none" stroke="#2980B9" stroke-width="1.0" opacity="0.8" stroke-dasharray="2,4" marker-end="url(#arrow-filled)" /><g class="connection-label"><rect x="260" y="201" width="24" height="12" fill="white" stroke="none" /><text x="272" y="211" text-anchor="middle" font-family="Arial, sans-serif" font-size="9" fill="black">Flow</text></g><polyline points="198,234 198,242 198,257 199,257 282,257 282,378 472,378 471,378 471,506" fill="none" stroke="#16A085" stroke-width="1.0" opacity="0.8" marker-end="url(#arrow-filled)" /><g class="connection-label"><rect x="347" y="372" width="60" height="12" fill="white" stroke="none" /><text x="377" y="382" text-anchor="middle" font-family="Arial, sans-serif" font-size="9" fill="black">Triggering</text></g></svg>