<svg xmlns="http://www.w3.org/2000/svg" xmlns:xlink="http://www.w3.org/1999/xlink" version="1.1" width="72.2835000000" height="29.7637000000">
  <title><![CDATA[Application collaboration]]></title>
  <g transform=" scale(1.000000) ">
    <path xmlns="http://www.w3.org/2000/svg" d="  M0.0000,0.0000 L72.2835,0.0000 L72.2835,29.7637 L0.0000,29.7637 L0.0000,0.0000 Z" style="fill-rule: evenodd; fill: #afffff; "/>
    <g xmlns="http://www.w3.org/2000/svg" id="Layer1008">
      <path d="  M0.0000,0.0000 L72.2835,0.0000 L72.2835,29.7637 L0.0000,29.7637 L0.0000,0.0000 Z" style="stroke-width: 0.6375; stroke-linecap: butt; stroke-linejoin: miter; fill-rule: evenodd; fill: #000000; fill-opacity: 0.0000; "/>
      <path d="  M0.0000,0.0000 L72.2835,0.0000 L72.2835,29.7637 L0.0000,29.7637 L0.0000,0.0000 Z" style="stroke-width: 0.6375; stroke: #000000; stroke-dasharray: none; stroke-linecap: butt; stroke-linejoin: miter; fill: none; fill-opacity: 0.0000; "/>
    </g>
    <g xmlns="http://www.w3.org/2000/svg" id="Layer1009">
      <path d="  M67.3222,4.7857 C67.3222,6.2377 66.0622,7.4145 64.5082,7.4145 C62.9535,7.4145 61.6935,6.2377 61.6935,4.7857 C61.6935,3.3338 62.9535,2.1563 64.5082,2.1563 C66.0622,2.1563 67.3222,3.3338 67.3222,4.7857 Z" style="stroke-width: 0.4395; stroke-linecap: butt; stroke-linejoin: miter; fill-rule: evenodd; fill: #000000; fill-opacity: 0.0000; "/>
      <path d="  M67.3222,4.7857 C67.3222,6.2377 66.0622,7.4145 64.5082,7.4145 C62.9535,7.4145 61.6935,6.2377 61.6935,4.7857 C61.6935,3.3338 62.9535,2.1563 64.5082,2.1563 C66.0622,2.1563 67.3222,3.3338 67.3222,4.7857 Z" style="stroke-width: 0.4395; stroke: #000000; stroke-dasharray: none; stroke-linecap: butt; stroke-linejoin: miter; fill: none; fill-opacity: 0.0000; "/>
    </g>
    <g xmlns="http://www.w3.org/2000/svg" id="Layer1010">
      <path d="  M70.1370,4.7857 C70.1370,6.2377 68.8770,7.4145 67.3230,7.4145 C65.7682,7.4145 64.5082,6.2377 64.5082,4.7857 C64.5082,3.3338 65.7682,2.1563 67.3230,2.1563 C68.8770,2.1563 70.1370,3.3338 70.1370,4.7857 Z" style="stroke-width: 0.4395; stroke-linecap: butt; stroke-linejoin: miter; fill-rule: evenodd; fill: #000000; fill-opacity: 0.0000; "/>
      <path d="  M70.1370,4.7857 C70.1370,6.2377 68.8770,7.4145 67.3230,7.4145 C65.7682,7.4145 64.5082,6.2377 64.5082,4.7857 C64.5082,3.3338 65.7682,2.1563 67.3230,2.1563 C68.8770,2.1563 70.1370,3.3338 70.1370,4.7857 Z" style="stroke-width: 0.4395; stroke: #000000; stroke-dasharray: none; stroke-linecap: butt; stroke-linejoin: miter; fill: none; fill-opacity: 0.0000; "/>
    </g>
    <g xmlns="http://www.w3.org/2000/svg" id="Layer1011">
      <path d="  M65.9182,2.5110 C65.0505,2.9812 64.5157,3.8482 64.5157,4.7857 C64.5157,5.7232 65.0497,6.5895 65.9175,7.0605 C66.7890,6.5917 67.3260,5.7247 67.3275,4.7857 C67.3260,3.8467 66.7890,2.9797 65.9182,2.5110 Z" style="stroke-width: 0.4395; stroke-linecap: butt; stroke-linejoin: miter; fill-rule: evenodd; fill: #000000; fill-opacity: 0.0000; "/>
      <path d="  M65.9182,2.5110 C65.0505,2.9812 64.5157,3.8482 64.5157,4.7857 C64.5157,5.7232 65.0497,6.5895 65.9175,7.0605 C66.7890,6.5917 67.3260,5.7247 67.3275,4.7857 C67.3260,3.8467 66.7890,2.9797 65.9182,2.5110 Z" style="stroke-width: 0.4395; stroke: #000000; stroke-dasharray: none; stroke-linecap: butt; stroke-linejoin: miter; fill: none; fill-opacity: 0.0000; "/>
    </g>
    <text xmlns="http://www.w3.org/2000/svg" x="4.0000" y="14.8819">
      <tspan font-family="Arial" font-size="8.0000" fill="#000000" fill-opacity="1.0000" stroke-opacity="1.0000">
Application</tspan>
      <tspan font-family="Arial" font-size="8.0000" fill="#000000" fill-opacity="1.0000" stroke-opacity="1.0000">
collaboration</tspan>
    </text>
    <!--converted by libvisio2svg-->
  </g>
</svg>
