<svg xmlns="http://www.w3.org/2000/svg" xmlns:xlink="http://www.w3.org/1999/xlink" version="1.1" width="55.2750000000" height="29.7637000000">
  <title><![CDATA[Application component 2]]></title>
  <g transform=" scale(1.000000) ">
    <path xmlns="http://www.w3.org/2000/svg" d="  M6.3772,0.0000 L55.2750,0.0000 L55.2750,29.7638 L6.3772,29.7638 L6.3772,0.0000 Z" style="fill-rule: evenodd; fill: #afffff; "/>
    <g xmlns="http://www.w3.org/2000/svg" id="Layer1005">
      <path d="  M6.3772,0.0000 L55.2750,0.0000 L55.2750,29.7638 L6.3772,29.7638 L6.3772,0.0000 Z" style="stroke-width: 0.6375; stroke-linecap: butt; stroke-linejoin: miter; fill-rule: evenodd; fill: #000000; fill-opacity: 0.0000; "/>
      <path d="  M6.3772,0.0000 L55.2750,0.0000 L55.2750,29.7638 L6.3772,29.7638 L6.3772,0.0000 Z" style="stroke-width: 0.6375; stroke: #000000; stroke-dasharray: none; stroke-linecap: butt; stroke-linejoin: miter; fill: none; fill-opacity: 0.0000; "/>
    </g>
    <path xmlns="http://www.w3.org/2000/svg" d="  M0.0000,5.9528 L12.7552,5.9528 L12.7552,11.9055 L0.0000,11.9055 L0.0000,5.9528 Z" style="fill-rule: evenodd; fill: #afffff; "/>
    <g xmlns="http://www.w3.org/2000/svg" id="Layer1006">
      <path d="  M0.0000,5.9528 L12.7552,5.9528 L12.7552,11.9055 L0.0000,11.9055 L0.0000,5.9528 Z" style="stroke-width: 0.6375; stroke-linecap: butt; stroke-linejoin: miter; fill-rule: evenodd; fill: #000000; fill-opacity: 0.0000; "/>
      <path d="  M0.0000,5.9528 L12.7552,5.9528 L12.7552,11.9055 L0.0000,11.9055 L0.0000,5.9528 Z" style="stroke-width: 0.6375; stroke: #000000; stroke-dasharray: none; stroke-linecap: butt; stroke-linejoin: miter; fill: none; fill-opacity: 0.0000; "/>
    </g>
    <path xmlns="http://www.w3.org/2000/svg" d="  M0.0000,17.8583 L12.7552,17.8583 L12.7552,23.8110 L0.0000,23.8110 L0.0000,17.8583 Z" style="fill-rule: evenodd; fill: #afffff; "/>
    <g xmlns="http://www.w3.org/2000/svg" id="Layer1007">
      <path d="  M0.0000,17.8583 L12.7552,17.8583 L12.7552,23.8110 L0.0000,23.8110 L0.0000,17.8583 Z" style="stroke-width: 0.6375; stroke-linecap: butt; stroke-linejoin: miter; fill-rule: evenodd; fill: #000000; fill-opacity: 0.0000; "/>
      <path d="  M0.0000,17.8583 L12.7552,17.8583 L12.7552,23.8110 L0.0000,23.8110 L0.0000,17.8583 Z" style="stroke-width: 0.6375; stroke: #000000; stroke-dasharray: none; stroke-linecap: butt; stroke-linejoin: miter; fill: none; fill-opacity: 0.0000; "/>
    </g>
    <!--converted by libvisio2svg-->
  </g>
</svg>
