<svg xmlns="http://www.w3.org/2000/svg" xmlns:xlink="http://www.w3.org/1999/xlink" version="1.1" width="72.2835000000" height="29.7637000000">
  <title><![CDATA[Application event]]></title>
  <g transform=" scale(1.000000) ">
    <path xmlns="http://www.w3.org/2000/svg" d="  M5.3145,0.0000 L66.9682,0.0000 C69.9037,0.0000 72.2835,2.3797 72.2835,5.3152 L72.2835,24.4492 C72.2835,27.3847 69.9037,29.7637 66.9682,29.7637 L5.3145,29.7637 C2.3790,29.7637 0.0000,27.3847 0.0000,24.4492 L0.0000,5.3152 C0.0000,2.3797 2.3790,0.0000 5.3145,0.0000 Z" style="fill-rule: evenodd; fill: #afffff; "/>
    <g xmlns="http://www.w3.org/2000/svg" id="Layer1034">
      <path d="  M5.3145,0.0000 L66.9682,0.0000 C69.9037,0.0000 72.2835,2.3797 72.2835,5.3152 L72.2835,24.4492 C72.2835,27.3847 69.9037,29.7637 66.9682,29.7637 L5.3145,29.7637 C2.3790,29.7637 0.0000,27.3847 0.0000,24.4492 L0.0000,5.3152 C0.0000,2.3797 2.3790,0.0000 5.3145,0.0000 Z" style="stroke-width: 0.6375; stroke-linecap: butt; stroke-linejoin: miter; fill-rule: evenodd; fill: #000000; fill-opacity: 0.0000; "/>
      <path d="  M5.3145,0.0000 L66.9682,0.0000 C69.9037,0.0000 72.2835,2.3797 72.2835,5.3152 L72.2835,24.4492 C72.2835,27.3847 69.9037,29.7637 66.9682,29.7637 L5.3145,29.7637 C2.3790,29.7637 0.0000,27.3847 0.0000,24.4492 L0.0000,5.3152 C0.0000,2.3797 2.3790,0.0000 5.3145,0.0000 Z" style="stroke-width: 0.6375; stroke: #000000; stroke-dasharray: none; stroke-linecap: butt; stroke-linejoin: miter; fill: none; fill-opacity: 0.0000; "/>
    </g>
    <g xmlns="http://www.w3.org/2000/svg" id="Layer1035">
      <path d="  M62.0257,7.4078 C62.0257,7.4078 64.5090,7.4078 64.5090,4.8270 C64.5090,2.2470 62.0257,2.2470 62.0257,2.2470 L67.6125,2.2470 C67.6125,2.2470 70.0950,2.2470 70.0950,4.8270 C70.0950,7.4078 67.6125,7.4078 67.6125,7.4078 L62.0257,7.4078 Z" style="stroke-width: 0.4642; stroke-linecap: butt; stroke-linejoin: miter; fill-rule: evenodd; fill: #000000; fill-opacity: 0.0000; "/>
      <path d="  M62.0257,7.4078 C62.0257,7.4078 64.5090,7.4078 64.5090,4.8270 C64.5090,2.2470 62.0257,2.2470 62.0257,2.2470 L67.6125,2.2470 C67.6125,2.2470 70.0950,2.2470 70.0950,4.8270 C70.0950,7.4078 67.6125,7.4078 67.6125,7.4078 L62.0257,7.4078 Z" style="stroke-width: 0.4642; stroke: #000000; stroke-dasharray: none; stroke-linecap: butt; stroke-linejoin: miter; fill: none; fill-opacity: 0.0000; "/>
    </g>
    <text xmlns="http://www.w3.org/2000/svg" x="4.0000" y="14.8819">
      <tspan font-family="Arial" font-size="8.0000" fill="#000000" fill-opacity="1.0000" stroke-opacity="1.0000">
Application</tspan>
      <tspan font-family="Arial" font-size="8.0000" fill="#000000" fill-opacity="1.0000" stroke-opacity="1.0000">
event</tspan>
    </text>
    <!--converted by libvisio2svg-->
  </g>
</svg>
