<svg xmlns="http://www.w3.org/2000/svg" xmlns:xlink="http://www.w3.org/1999/xlink" version="1.1" width="85.0395000000" height="34.0155000000">
  <title><![CDATA[Assessment]]></title>
  <g transform=" scale(1.000000) ">
    <path xmlns="http://www.w3.org/2000/svg" d="  M4.2518,0.0000 L80.7870,0.0000 L85.0395,4.2517 L85.0395,29.7637 L80.7870,34.0155 L4.2518,34.0155 L0.0000,29.7637 L0.0000,4.2517 L4.2518,0.0000 Z" style="fill-rule: evenodd; fill: #ccccff; "/>
    <g xmlns="http://www.w3.org/2000/svg" id="Layer1010">
      <path d="  M4.2518,0.0000 L80.7870,0.0000 L85.0395,4.2517 L85.0395,29.7637 L80.7870,34.0155 L4.2518,34.0155 L0.0000,29.7637 L0.0000,4.2517 L4.2518,0.0000 Z" style="stroke-width: 0.6375; stroke-linecap: butt; stroke-linejoin: miter; fill-rule: evenodd; fill: #000000; fill-opacity: 0.0000; "/>
      <path d="  M4.2518,0.0000 L80.7870,0.0000 L85.0395,4.2517 L85.0395,29.7637 L80.7870,34.0155 L4.2518,34.0155 L0.0000,29.7637 L0.0000,4.2517 L4.2518,0.0000 Z" style="stroke-width: 0.6375; stroke: #000000; stroke-dasharray: none; stroke-linecap: butt; stroke-linejoin: miter; fill: none; fill-opacity: 0.0000; "/>
    </g>
    <g xmlns="http://www.w3.org/2000/svg" id="Layer1011">
      <path d="  M82.8578,4.8502 C82.8578,6.2872 81.6053,7.4520 80.0603,7.4520 C78.5153,7.4520 77.2628,6.2872 77.2628,4.8502 C77.2628,3.4132 78.5153,2.2485 80.0603,2.2485 C81.6053,2.2485 82.8578,3.4132 82.8578,4.8502 Z" style="stroke-width: 0.4410; stroke-linecap: butt; stroke-linejoin: miter; fill-rule: evenodd; fill: #000000; fill-opacity: 0.0000; "/>
      <path d="  M82.8578,4.8502 C82.8578,6.2872 81.6053,7.4520 80.0603,7.4520 C78.5153,7.4520 77.2628,6.2872 77.2628,4.8502 C77.2628,3.4132 78.5153,2.2485 80.0603,2.2485 C81.6053,2.2485 82.8578,3.4132 82.8578,4.8502 Z" style="stroke-width: 0.4410; stroke: #000000; stroke-dasharray: none; stroke-linecap: butt; stroke-linejoin: miter; fill: none; fill-opacity: 0.0000; "/>
    </g>
    <g xmlns="http://www.w3.org/2000/svg" id="Layer1012">
      <path d="  M78.1575,6.7237 C75.5843,9.5332 75.5843,9.5332 75.5843,9.5332 Z" style="stroke-width: 0.4410; stroke-linecap: butt; stroke-linejoin: miter; fill-rule: evenodd; fill: #000000; fill-opacity: 0.0000; "/>
      <path d="  M78.1575,6.7237 C75.5843,9.5332 75.5843,9.5332 75.5843,9.5332" style="stroke-width: 0.4410; stroke: #000000; stroke-dasharray: none; stroke-linecap: butt; stroke-linejoin: miter; fill: none; fill-opacity: 0.0000; "/>
    </g>
    <text xmlns="http://www.w3.org/2000/svg" x="4.0000" y="17.0077">
      <tspan font-family="Arial" font-size="8.0000" fill="#000000" fill-opacity="1.0000" stroke-opacity="1.0000">
Assessment</tspan>
    </text>
    <!--converted by libvisio2svg-->
  </g>
</svg>
