<svg xmlns:xlink="http://www.w3.org/1999/xlink" xmlns="http://www.w3.org/2000/svg" version="1.1" width="7.2735000000"
     height="7.2847000000">
    <title><![CDATA[Assessment 2]]></title>
    <g transform=" scale(1.000000) ">
        <g xmlns="http://www.w3.org/2000/svg" id="Layer1000">
            <path d="  M7.2735,2.6017 C7.2735,4.0387 6.0210,5.2035 4.4760,5.2035 C2.9310,5.2035 1.6785,4.0387 1.6785,2.6017 C1.6785,1.1647 2.9310,0.0000 4.4760,0.0000 C6.0210,0.0000 7.2735,1.1647 7.2735,2.6017 Z"
                  style="stroke-width: 0.6375; stroke-linecap: butt; stroke-linejoin: miter; fill-rule: evenodd; fill: #000000; fill-opacity: 0.0000; "/>
            <path d="  M7.2735,2.6017 C7.2735,4.0387 6.0210,5.2035 4.4760,5.2035 C2.9310,5.2035 1.6785,4.0387 1.6785,2.6017 C1.6785,1.1647 2.9310,0.0000 4.4760,0.0000 C6.0210,0.0000 7.2735,1.1647 7.2735,2.6017 Z"
                  style="stroke-width: 0.6375; stroke: #000000; stroke-dasharray: none; stroke-linecap: butt; stroke-linejoin: miter; fill: none; fill-opacity: 0.0000; "/>
        </g>
        <g xmlns="http://www.w3.org/2000/svg" id="Layer1001">
            <path d="  M2.5732,4.4752 C0.0000,7.2847 0.0000,7.2847 0.0000,7.2847"
                  style="stroke-width: 0.6375; stroke-linecap: butt; stroke-linejoin: miter; fill-rule: evenodd; fill: #000000; fill-opacity: 0.0000; "/>
            <path d="  M2.5732,4.4752 C0.0000,7.2847 0.0000,7.2847 0.0000,7.2847"
                  style="stroke-width: 0.6375; stroke: #000000; stroke-dasharray: none; stroke-linecap: butt; stroke-linejoin: miter; fill: none; fill-opacity: 0.0000; "/>
        </g>
        <!--converted by libvisio2svg-->
    </g>
</svg>
