<svg xmlns:xlink="http://www.w3.org/1999/xlink" xmlns="http://www.w3.org/2000/svg" version="1.1" width="6.9578000000"
     height="6.9577000000">
    <title><![CDATA[Driver 2]]></title>
    <g transform=" scale(1.000000) ">
        <g xmlns="http://www.w3.org/2000/svg" id="Layer1000">
            <path d="  M6.9578,3.4785 C6.9578,5.4000 5.4008,6.9578 3.4793,6.9578 C1.5578,6.9578 0.0000,5.4000 0.0000,3.4785 C0.0000,1.5570 1.5578,0.0000 3.4793,0.0000 C5.4008,0.0000 6.9578,1.5570 6.9578,3.4785 Z"
                  style="stroke-width: 0.6375; stroke-linecap: butt; stroke-linejoin: miter; fill-rule: evenodd; fill: #000000; fill-opacity: 0.0000; "/>
            <path d="  M6.9578,3.4785 C6.9578,5.4000 5.4008,6.9578 3.4793,6.9578 C1.5578,6.9578 0.0000,5.4000 0.0000,3.4785 C0.0000,1.5570 1.5578,0.0000 3.4793,0.0000 C5.4008,0.0000 6.9578,1.5570 6.9578,3.4785 Z"
                  style="stroke-width: 0.6375; stroke: #000000; stroke-dasharray: none; stroke-linecap: butt; stroke-linejoin: miter; fill: none; fill-opacity: 0.0000; "/>
        </g>
        <g xmlns="http://www.w3.org/2000/svg" id="Layer1001">
            <path d="  M4.3493,3.4785 C4.3493,3.9585 3.9593,4.3485 3.4793,4.3485 C2.9993,4.3485 2.6093,3.9585 2.6093,3.4785 C2.6093,2.9985 2.9993,2.6085 3.4793,2.6085 C3.9593,2.6085 4.3493,2.9985 4.3493,3.4785 Z"
                  style="stroke-width: 0.6375; stroke-linecap: butt; stroke-linejoin: miter; fill-rule: evenodd; fill: #000000; fill-opacity: 0.0000; "/>
            <path d="  M4.3493,3.4785 C4.3493,3.9585 3.9593,4.3485 3.4793,4.3485 C2.9993,4.3485 2.6093,3.9585 2.6093,3.4785 C2.6093,2.9985 2.9993,2.6085 3.4793,2.6085 C3.9593,2.6085 4.3493,2.9985 4.3493,3.4785 Z"
                  style="stroke-width: 0.6375; stroke: #000000; stroke-dasharray: none; stroke-linecap: butt; stroke-linejoin: miter; fill: none; fill-opacity: 0.0000; "/>
        </g>
        <!--converted by libvisio2svg-->
    </g>
</svg>
