<svg xmlns="http://www.w3.org/2000/svg" xmlns:xlink="http://www.w3.org/1999/xlink" version="1.1" width="85.0395000000" height="34.0155000000">
  <title><![CDATA[Driver]]></title>
  <g transform=" scale(1.000000) ">
    <path xmlns="http://www.w3.org/2000/svg" d="  M4.2518,0.0000 L80.7870,0.0000 L85.0395,4.2518 L85.0395,29.7637 L80.7870,34.0155 L4.2518,34.0155 L0.0000,29.7637 L0.0000,4.2518 L4.2518,0.0000 Z" style="fill-rule: evenodd; fill: #ccccff; "/>
    <g xmlns="http://www.w3.org/2000/svg" id="Layer1003">
      <path d="  M4.2518,0.0000 L80.7870,0.0000 L85.0395,4.2518 L85.0395,29.7637 L80.7870,34.0155 L4.2518,34.0155 L0.0000,29.7637 L0.0000,4.2518 L4.2518,0.0000 Z" style="stroke-width: 0.6375; stroke-linecap: butt; stroke-linejoin: miter; fill-rule: evenodd; fill: #000000; fill-opacity: 0.0000; "/>
      <path d="  M4.2518,0.0000 L80.7870,0.0000 L85.0395,4.2518 L85.0395,29.7637 L80.7870,34.0155 L4.2518,34.0155 L0.0000,29.7637 L0.0000,4.2518 L4.2518,0.0000 Z" style="stroke-width: 0.6375; stroke: #000000; stroke-dasharray: none; stroke-linecap: butt; stroke-linejoin: miter; fill: none; fill-opacity: 0.0000; "/>
    </g>
    <g xmlns="http://www.w3.org/2000/svg" id="Layer1004">
      <path d="  M82.0433,7.3440 C82.0433,9.2655 80.4863,10.8232 78.5648,10.8232 C76.6433,10.8232 75.0855,9.2655 75.0855,7.3440 C75.0855,5.4225 76.6433,3.8655 78.5648,3.8655 C80.4863,3.8655 82.0433,5.4225 82.0433,7.3440 Z" style="stroke-width: 0.9135; stroke-linecap: butt; stroke-linejoin: miter; fill-rule: evenodd; fill: #000000; fill-opacity: 0.0000; "/>
      <path d="  M82.0433,7.3440 C82.0433,9.2655 80.4863,10.8232 78.5648,10.8232 C76.6433,10.8232 75.0855,9.2655 75.0855,7.3440 C75.0855,5.4225 76.6433,3.8655 78.5648,3.8655 C80.4863,3.8655 82.0433,5.4225 82.0433,7.3440 Z" style="stroke-width: 0.9135; stroke: #000000; stroke-dasharray: none; stroke-linecap: butt; stroke-linejoin: miter; fill: none; fill-opacity: 0.0000; "/>
    </g>
    <path xmlns="http://www.w3.org/2000/svg" d="  M79.4348,7.3440 C79.4348,7.8247 79.0448,8.2140 78.5648,8.2140 C78.0848,8.2140 77.6948,7.8247 77.6948,7.3440 C77.6948,6.8640 78.0848,6.4747 78.5648,6.4747 C79.0448,6.4747 79.4348,6.8640 79.4348,7.3440 Z" style="fill-rule: evenodd; fill: #000000; "/>
    <g xmlns="http://www.w3.org/2000/svg" id="Layer1005">
      <path d="  M79.4348,7.3440 C79.4348,7.8247 79.0448,8.2140 78.5648,8.2140 C78.0848,8.2140 77.6948,7.8247 77.6948,7.3440 C77.6948,6.8640 78.0848,6.4747 78.5648,6.4747 C79.0448,6.4747 79.4348,6.8640 79.4348,7.3440 Z" style="stroke-width: 0.4260; stroke-linecap: butt; stroke-linejoin: miter; fill-rule: evenodd; fill: #000000; fill-opacity: 0.0000; "/>
      <path d="  M79.4348,7.3440 C79.4348,7.8247 79.0448,8.2140 78.5648,8.2140 C78.0848,8.2140 77.6948,7.8247 77.6948,7.3440 C77.6948,6.8640 78.0848,6.4747 78.5648,6.4747 C79.0448,6.4747 79.4348,6.8640 79.4348,7.3440 Z" style="stroke-width: 0.4260; stroke: #000000; stroke-dasharray: none; stroke-linecap: butt; stroke-linejoin: miter; fill: none; fill-opacity: 0.0000; "/>
    </g>
    <g xmlns="http://www.w3.org/2000/svg" id="Layer1006">
      <path d="  M75.0855,3.8655 L82.0433,10.8232 Z" style="stroke-width: 0.4260; stroke-linecap: butt; stroke-linejoin: miter; fill-rule: evenodd; fill: #000000; fill-opacity: 0.0000; "/>
      <path d="  M75.0855,3.8655 L82.0433,10.8232" style="stroke-width: 0.4260; stroke: #000000; stroke-dasharray: none; stroke-linecap: butt; stroke-linejoin: miter; fill: none; fill-opacity: 0.0000; "/>
    </g>
    <g xmlns="http://www.w3.org/2000/svg" id="Layer1007">
      <path d="  M75.0855,10.8232 L82.0433,3.8655 Z" style="stroke-width: 0.4260; stroke-linecap: butt; stroke-linejoin: miter; fill-rule: evenodd; fill: #000000; fill-opacity: 0.0000; "/>
      <path d="  M75.0855,10.8232 L82.0433,3.8655" style="stroke-width: 0.4260; stroke: #000000; stroke-dasharray: none; stroke-linecap: butt; stroke-linejoin: miter; fill: none; fill-opacity: 0.0000; "/>
    </g>
    <g xmlns="http://www.w3.org/2000/svg" id="Layer1008">
      <path d="  M73.7813,7.3440 L83.3483,7.3440 Z" style="stroke-width: 0.4260; stroke-linecap: butt; stroke-linejoin: miter; fill-rule: evenodd; fill: #000000; fill-opacity: 0.0000; "/>
      <path d="  M73.7813,7.3440 L83.3483,7.3440" style="stroke-width: 0.4260; stroke: #000000; stroke-dasharray: none; stroke-linecap: butt; stroke-linejoin: miter; fill: none; fill-opacity: 0.0000; "/>
    </g>
    <g xmlns="http://www.w3.org/2000/svg" id="Layer1009">
      <path d="  M78.5648,2.5605 L78.5648,12.1275 Z" style="stroke-width: 0.4260; stroke-linecap: butt; stroke-linejoin: miter; fill-rule: evenodd; fill: #000000; fill-opacity: 0.0000; "/>
      <path d="  M78.5648,2.5605 L78.5648,12.1275" style="stroke-width: 0.4260; stroke: #000000; stroke-dasharray: none; stroke-linecap: butt; stroke-linejoin: miter; fill: none; fill-opacity: 0.0000; "/>
    </g>
    <text xmlns="http://www.w3.org/2000/svg" x="4.0000" y="17.0077">
      <tspan font-family="Arial" font-size="8.0000" fill="#000000" fill-opacity="1.0000" stroke-opacity="1.0000">
Driver</tspan>
    </text>
    <!--converted by libvisio2svg-->
  </g>
</svg>
