<svg xmlns="http://www.w3.org/2000/svg" xmlns:xlink="http://www.w3.org/1999/xlink" version="1.1" width="85.0395000000" height="34.0162000000">
  <title><![CDATA[Goal]]></title>
  <g transform=" scale(1.000000) ">
    <path xmlns="http://www.w3.org/2000/svg" d="  M4.2518,0.0000 L80.7870,0.0000 L85.0395,4.2525 L85.0395,29.7645 L80.7870,34.0162 L4.2518,34.0162 L0.0000,29.7645 L0.0000,4.2525 L4.2518,0.0000 Z" style="fill-rule: evenodd; fill: #ccccff; "/>
    <g xmlns="http://www.w3.org/2000/svg" id="Layer1015">
      <path d="  M4.2518,0.0000 L80.7870,0.0000 L85.0395,4.2525 L85.0395,29.7645 L80.7870,34.0162 L4.2518,34.0162 L0.0000,29.7645 L0.0000,4.2525 L4.2518,0.0000 Z" style="stroke-width: 0.6375; stroke-linecap: butt; stroke-linejoin: miter; fill-rule: evenodd; fill: #000000; fill-opacity: 0.0000; "/>
      <path d="  M4.2518,0.0000 L80.7870,0.0000 L85.0395,4.2525 L85.0395,29.7645 L80.7870,34.0162 L4.2518,34.0162 L0.0000,29.7645 L0.0000,4.2525 L4.2518,0.0000 Z" style="stroke-width: 0.6375; stroke: #000000; stroke-dasharray: none; stroke-linecap: butt; stroke-linejoin: miter; fill: none; fill-opacity: 0.0000; "/>
    </g>
    <g xmlns="http://www.w3.org/2000/svg" id="Layer1016">
      <path d="  M82.8525,5.8987 C82.8525,7.9035 81.2288,9.5280 79.2240,9.5287 C77.2200,9.5295 75.5948,7.9057 75.5933,5.9010 C75.5918,3.8970 77.2155,2.2710 79.2195,2.2695 C81.2235,2.2672 82.8503,3.8902 82.8525,5.8942 Z" style="stroke-width: 0.4253; stroke-linecap: butt; stroke-linejoin: miter; fill-rule: evenodd; fill: #000000; fill-opacity: 0.0000; "/>
      <path d="  M82.8525,5.8987 C82.8525,7.9035 81.2288,9.5280 79.2240,9.5287 C77.2200,9.5295 75.5948,7.9057 75.5933,5.9010 C75.5918,3.8970 77.2155,2.2710 79.2195,2.2695 C81.2235,2.2672 82.8503,3.8902 82.8525,5.8942" style="stroke-width: 0.4253; stroke: #000000; stroke-dasharray: none; stroke-linecap: butt; stroke-linejoin: miter; fill: none; fill-opacity: 0.0000; "/>
    </g>
    <g xmlns="http://www.w3.org/2000/svg" id="Layer1017">
      <path d="  M81.6428,5.8987 C81.6428,7.2352 80.5598,8.3182 79.2240,8.3190 C77.8875,8.3190 76.8038,7.2360 76.8030,5.9002 C76.8023,4.5637 77.8845,3.4800 79.2210,3.4792 C80.5568,3.4777 81.6413,4.5600 81.6428,5.8957 Z" style="stroke-width: 0.4253; stroke-linecap: butt; stroke-linejoin: miter; fill-rule: evenodd; fill: #000000; fill-opacity: 0.0000; "/>
      <path d="  M81.6428,5.8987 C81.6428,7.2352 80.5598,8.3182 79.2240,8.3190 C77.8875,8.3190 76.8038,7.2360 76.8030,5.9002 C76.8023,4.5637 77.8845,3.4800 79.2210,3.4792 C80.5568,3.4777 81.6413,4.5600 81.6428,5.8957" style="stroke-width: 0.4253; stroke: #000000; stroke-dasharray: none; stroke-linecap: butt; stroke-linejoin: miter; fill: none; fill-opacity: 0.0000; "/>
    </g>
    <path xmlns="http://www.w3.org/2000/svg" d="  M80.4330,5.8987 C80.4330,6.5670 79.8915,7.1085 79.2240,7.1092 C78.5558,7.1092 78.0135,6.5685 78.0135,5.9002 C78.0128,5.2320 78.5535,4.6897 79.2218,4.6890 C79.8900,4.6882 80.4323,5.2290 80.4330,5.8972 Z" style="fill-rule: evenodd; fill: #000000; "/>
    <g xmlns="http://www.w3.org/2000/svg" id="Layer1018">
      <path d="  M80.4330,5.8987 C80.4330,6.5670 79.8915,7.1085 79.2240,7.1092 C78.5558,7.1092 78.0135,6.5685 78.0135,5.9002 C78.0128,5.2320 78.5535,4.6897 79.2218,4.6890 C79.8900,4.6882 80.4323,5.2290 80.4330,5.8972 Z" style="stroke-width: 0.4253; stroke-linecap: butt; stroke-linejoin: miter; fill-rule: evenodd; fill: #000000; fill-opacity: 0.0000; "/>
      <path d="  M80.4330,5.8987 C80.4330,6.5670 79.8915,7.1085 79.2240,7.1092 C78.5558,7.1092 78.0135,6.5685 78.0135,5.9002 C78.0128,5.2320 78.5535,4.6897 79.2218,4.6890 C79.8900,4.6882 80.4323,5.2290 80.4330,5.8972" style="stroke-width: 0.4253; stroke: #000000; stroke-dasharray: none; stroke-linecap: butt; stroke-linejoin: miter; fill: none; fill-opacity: 0.0000; "/>
    </g>
    <text xmlns="http://www.w3.org/2000/svg" x="4.0000" y="17.0081">
      <tspan font-family="Arial" font-size="8.0000" fill="#000000" fill-opacity="1.0000" stroke-opacity="1.0000">
Goal</tspan>
    </text>
    <!--converted by libvisio2svg-->
  </g>
</svg>
