<svg xmlns:xlink="http://www.w3.org/1999/xlink" xmlns="http://www.w3.org/2000/svg" version="1.1" width="7.2592000000"
     height="7.2592000000">
    <title><![CDATA[Goal 2]]></title>
    <g transform=" scale(1.000000) ">
        <g xmlns="http://www.w3.org/2000/svg" id="Layer1000">
            <path d="  M7.2592,3.6292 C7.2607,5.6332 5.6370,7.2592 3.6330,7.2592 C1.6290,7.2592 0.0038,5.6362 0.0000,3.6315 C-0.0015,1.6275 1.6222,0.0015 3.6262,0.0000 C5.6302,-0.0023 7.2570,1.6207 7.2592,3.6247 Z"
                  style="stroke-width: 0.6375; stroke-linecap: butt; stroke-linejoin: miter; fill-rule: evenodd; fill: #000000; fill-opacity: 0.0000; "/>
            <path d="  M7.2592,3.6292 C7.2607,5.6332 5.6370,7.2592 3.6330,7.2592 C1.6290,7.2592 0.0038,5.6362 0.0000,3.6315 C-0.0015,1.6275 1.6222,0.0015 3.6262,0.0000 C5.6302,-0.0023 7.2570,1.6207 7.2592,3.6247 Z"
                  style="stroke-width: 0.6375; stroke: #000000; stroke-dasharray: none; stroke-linecap: butt; stroke-linejoin: miter; fill: none; fill-opacity: 0.0000; "/>
        </g>
        <g xmlns="http://www.w3.org/2000/svg" id="Layer1001">
            <path d="  M6.0495,3.6292 C6.0495,4.9657 4.9665,6.0487 3.6307,6.0495 C2.2942,6.0495 1.2105,4.9665 1.2097,3.6307 C1.2090,2.2942 2.2912,1.2105 3.6277,1.2097 C4.9635,1.2082 6.0480,2.2905 6.0495,3.6262 Z"
                  style="stroke-width: 0.6375; stroke-linecap: butt; stroke-linejoin: miter; fill-rule: evenodd; fill: #000000; fill-opacity: 0.0000; "/>
            <path d="  M6.0495,3.6292 C6.0495,4.9657 4.9665,6.0487 3.6307,6.0495 C2.2942,6.0495 1.2105,4.9665 1.2097,3.6307 C1.2090,2.2942 2.2912,1.2105 3.6277,1.2097 C4.9635,1.2082 6.0480,2.2905 6.0495,3.6262 Z"
                  style="stroke-width: 0.6375; stroke: #000000; stroke-dasharray: none; stroke-linecap: butt; stroke-linejoin: miter; fill: none; fill-opacity: 0.0000; "/>
        </g>
        <!--converted by libvisio2svg-->
    </g>
</svg>
