<svg xmlns="http://www.w3.org/2000/svg" xmlns:xlink="http://www.w3.org/1999/xlink" version="1.1" width="94.7580000000" height="37.9515000000">
  <title><![CDATA[Meaning]]></title>
  <g transform=" scale(1.000000) ">
    <path xmlns="http://www.w3.org/2000/svg" d="  M12.1485,12.6510 C0.0000,4.2173 17.0078,0.0000 26.7263,4.2173 C29.1563,0.0000 43.7348,1.4055 46.1640,4.2173 C53.4533,1.4055 75.3203,1.4055 75.3203,4.2173 C89.8988,1.4055 94.7580,12.6510 85.0395,15.4620 C94.7580,15.4620 90.0615,23.2800 85.0395,26.7068 C85.0395,37.9515 65.6018,35.1405 55.8833,32.3295 C46.1640,35.1405 7.2893,37.9515 17.0078,29.5178 C2.4293,29.5178 4.8593,12.6510 12.1485,12.6510 Z" style="fill-rule: evenodd; fill: #ccccff; "/>
    <g xmlns="http://www.w3.org/2000/svg" id="Layer1014">
      <path d="  M12.1485,12.6510 C0.0000,4.2173 17.0078,0.0000 26.7263,4.2173 C29.1563,0.0000 43.7348,1.4055 46.1640,4.2173 C53.4533,1.4055 75.3203,1.4055 75.3203,4.2173 C89.8988,1.4055 94.7580,12.6510 85.0395,15.4620 C94.7580,15.4620 90.0615,23.2800 85.0395,26.7068 C85.0395,37.9515 65.6018,35.1405 55.8833,32.3295 C46.1640,35.1405 7.2893,37.9515 17.0078,29.5178 C2.4293,29.5178 4.8593,12.6510 12.1485,12.6510 Z" style="stroke-width: 0.8092; stroke-linecap: butt; stroke-linejoin: miter; fill-rule: evenodd; fill: #000000; fill-opacity: 0.0000; "/>
      <path d="  M12.1485,12.6510 C0.0000,4.2173 17.0078,0.0000 26.7263,4.2173 C29.1563,0.0000 43.7348,1.4055 46.1640,4.2173 C53.4533,1.4055 75.3203,1.4055 75.3203,4.2173 C89.8988,1.4055 94.7580,12.6510 85.0395,15.4620 C94.7580,15.4620 90.0615,23.2800 85.0395,26.7068 C85.0395,37.9515 65.6018,35.1405 55.8833,32.3295 C46.1640,35.1405 7.2893,37.9515 17.0078,29.5178 C2.4293,29.5178 4.8593,12.6510 12.1485,12.6510 Z" style="stroke-width: 0.8092; stroke: #000000; stroke-dasharray: none; stroke-linecap: butt; stroke-linejoin: miter; fill: none; fill-opacity: 0.0000; "/>
    </g>
    <text xmlns="http://www.w3.org/2000/svg" x="0.0000" y="18.9758">
      <tspan font-family="Arial" font-size="8.0000" fill="#000000" fill-opacity="1.0000" stroke-opacity="1.0000">
Meaning</tspan>
    </text>
    <!--converted by libvisio2svg-->
  </g>
</svg>
