<svg xmlns="http://www.w3.org/2000/svg" xmlns:xlink="http://www.w3.org/1999/xlink" version="1.1" width="85.0395000000" height="34.0162000000">
  <title><![CDATA[Outcome]]></title>
  <g transform=" scale(1.000000) ">
    <path xmlns="http://www.w3.org/2000/svg" d="  M4.2518,0.0000 L80.7870,0.0000 L85.0395,4.2525 L85.0395,29.7637 L80.7870,34.0162 L4.2518,34.0162 L0.0000,29.7637 L0.0000,4.2525 L4.2518,0.0000 Z" style="fill-rule: evenodd; fill: #ccccff; "/>
    <g xmlns="http://www.w3.org/2000/svg" id="Layer1019">
      <path d="  M4.2518,0.0000 L80.7870,0.0000 L85.0395,4.2525 L85.0395,29.7637 L80.7870,34.0162 L4.2518,34.0162 L0.0000,29.7637 L0.0000,4.2525 L4.2518,0.0000 Z" style="stroke-width: 0.6375; stroke-linecap: butt; stroke-linejoin: miter; fill-rule: evenodd; fill: #000000; fill-opacity: 0.0000; "/>
      <path d="  M4.2518,0.0000 L80.7870,0.0000 L85.0395,4.2525 L85.0395,29.7637 L80.7870,34.0162 L4.2518,34.0162 L0.0000,29.7637 L0.0000,4.2525 L4.2518,0.0000 Z" style="stroke-width: 0.6375; stroke: #000000; stroke-dasharray: none; stroke-linecap: butt; stroke-linejoin: miter; fill: none; fill-opacity: 0.0000; "/>
    </g>
    <g xmlns="http://www.w3.org/2000/svg" id="Layer1020">
      <path d="  M80.5845,7.5427 C80.5845,9.2295 79.2255,10.5975 77.5485,10.5975 C75.8715,10.5982 74.5118,9.2317 74.5110,7.5442 C74.5095,5.8575 75.8678,4.4888 77.5448,4.4873 C79.2218,4.4858 80.5830,5.8515 80.5845,7.5382 Z" style="stroke-width: 0.4237; stroke-linecap: butt; stroke-linejoin: miter; fill-rule: evenodd; fill: #000000; fill-opacity: 0.0000; "/>
      <path d="  M80.5845,7.5427 C80.5845,9.2295 79.2255,10.5975 77.5485,10.5975 C75.8715,10.5982 74.5118,9.2317 74.5110,7.5442 C74.5095,5.8575 75.8678,4.4888 77.5448,4.4873 C79.2218,4.4858 80.5830,5.8515 80.5845,7.5382" style="stroke-width: 0.4237; stroke: #000000; stroke-dasharray: none; stroke-linecap: butt; stroke-linejoin: miter; fill: none; fill-opacity: 0.0000; "/>
    </g>
    <g xmlns="http://www.w3.org/2000/svg" id="Layer1021">
      <path d="  M79.5728,7.5427 C79.5728,8.6670 78.6660,9.5790 77.5485,9.5790 C76.4303,9.5797 75.5235,8.6685 75.5228,7.5435 C75.5220,6.4185 76.4280,5.5065 77.5463,5.5058 C78.6638,5.5043 79.5713,6.4155 79.5728,7.5397 Z" style="stroke-width: 0.4237; stroke-linecap: butt; stroke-linejoin: miter; fill-rule: evenodd; fill: #000000; fill-opacity: 0.0000; "/>
      <path d="  M79.5728,7.5427 C79.5728,8.6670 78.6660,9.5790 77.5485,9.5790 C76.4303,9.5797 75.5235,8.6685 75.5228,7.5435 C75.5220,6.4185 76.4280,5.5065 77.5463,5.5058 C78.6638,5.5043 79.5713,6.4155 79.5728,7.5397" style="stroke-width: 0.4237; stroke: #000000; stroke-dasharray: none; stroke-linecap: butt; stroke-linejoin: miter; fill: none; fill-opacity: 0.0000; "/>
    </g>
    <g xmlns="http://www.w3.org/2000/svg" id="Layer1022">
      <path d="  M78.5603,7.5427 C78.5603,8.1045 78.1073,8.5605 77.5485,8.5612 C76.9890,8.5612 76.5360,8.1060 76.5353,7.5435 C76.5353,6.9810 76.9875,6.5250 77.5470,6.5243 C78.1058,6.5235 78.5595,6.9787 78.5603,7.5412 Z" style="stroke-width: 0.4237; stroke-linecap: butt; stroke-linejoin: miter; fill-rule: evenodd; fill: #000000; fill-opacity: 0.0000; "/>
      <path d="  M78.5603,7.5427 C78.5603,8.1045 78.1073,8.5605 77.5485,8.5612 C76.9890,8.5612 76.5360,8.1060 76.5353,7.5435 C76.5353,6.9810 76.9875,6.5250 77.5470,6.5243 C78.1058,6.5235 78.5595,6.9787 78.5603,7.5412" style="stroke-width: 0.4237; stroke: #000000; stroke-dasharray: none; stroke-linecap: butt; stroke-linejoin: miter; fill: none; fill-opacity: 0.0000; "/>
    </g>
    <g xmlns="http://www.w3.org/2000/svg" id="Layer1023">
      <path d="  M81.5168,3.5198 L77.9565,7.2315 Z" style="stroke-width: 0.7590; stroke-linecap: round; stroke-linejoin: round; fill-rule: evenodd; fill: #000000; fill-opacity: 0.0000; "/>
      <path d="  M81.5168,3.5198 L77.9565,7.2315" style="stroke-width: 0.7590; stroke: #000000; stroke-dasharray: none; stroke-linecap: round; stroke-linejoin: round; fill: none; fill-opacity: 0.0000; "/>
    </g>
    <g xmlns="http://www.w3.org/2000/svg" id="Layer1024">
      <path d="  M82.6643,3.9735 L80.1548,4.8675 L80.7180,2.3955 Z" style="stroke-width: 0.5018; stroke-linecap: round; stroke-linejoin: round; fill-rule: evenodd; fill: #000000; fill-opacity: 0.0000; "/>
      <path d="  M82.6643,3.9735 L80.1548,4.8675 L80.7180,2.3955" style="stroke-width: 0.5018; stroke: #000000; stroke-dasharray: none; stroke-linecap: round; stroke-linejoin: round; fill: none; fill-opacity: 0.0000; "/>
    </g>
    <path xmlns="http://www.w3.org/2000/svg" d="  M77.4150,7.5742 L79.2795,7.2390 L77.8073,5.8035 L77.4150,7.5742 Z" style="fill-rule: evenodd; fill: #000000; "/>
    <g xmlns="http://www.w3.org/2000/svg" id="Layer1025">
      <path d="  M77.4150,7.5742 L79.2795,7.2390 L77.8073,5.8035 L77.4150,7.5742 Z" style="stroke-width: 0.4687; stroke-linecap: round; stroke-linejoin: round; fill-rule: evenodd; fill: #000000; fill-opacity: 0.0000; "/>
      <path d="  M77.4150,7.5742 L79.2795,7.2390 L77.8073,5.8035 L77.4150,7.5742 Z" style="stroke-width: 0.4687; stroke: #000000; stroke-dasharray: none; stroke-linecap: round; stroke-linejoin: round; fill: none; fill-opacity: 0.0000; "/>
    </g>
    <text xmlns="http://www.w3.org/2000/svg" x="4.0000" y="17.0081">
      <tspan font-family="Arial" font-size="8.0000" fill="#000000" fill-opacity="1.0000" stroke-opacity="1.0000">
Outcome</tspan>
    </text>
    <!--converted by libvisio2svg-->
  </g>
</svg>
