<svg xmlns:xlink="http://www.w3.org/1999/xlink" xmlns="http://www.w3.org/2000/svg" version="1.1" width="6.0750000000"
     height="6.1109000000">
    <title><![CDATA[Outcome 2]]></title>
    <g transform=" scale(1.000000) ">
        <g xmlns="http://www.w3.org/2000/svg" id="Layer1000">
            <path d="  M6.0735,3.0554 C6.0750,4.7422 4.7160,6.1102 3.0390,6.1102 C1.3620,6.1109 0.0023,4.7444 0.0015,3.0569 C0.0000,1.3702 1.3583,0.0015 3.0353,0.0000 C4.7123,-0.0015 6.0720,1.3642 6.0735,3.0509 Z"
                  style="stroke-width: 0.6375; stroke-linecap: butt; stroke-linejoin: miter; fill-rule: evenodd; fill: #000000; fill-opacity: 0.0000; "/>
            <path d="  M6.0735,3.0554 C6.0750,4.7422 4.7160,6.1102 3.0390,6.1102 C1.3620,6.1109 0.0023,4.7444 0.0015,3.0569 C0.0000,1.3702 1.3583,0.0015 3.0353,0.0000 C4.7123,-0.0015 6.0720,1.3642 6.0735,3.0509 Z"
                  style="stroke-width: 0.6375; stroke: #000000; stroke-dasharray: none; stroke-linecap: butt; stroke-linejoin: miter; fill: none; fill-opacity: 0.0000; "/>
        </g>
        <g xmlns="http://www.w3.org/2000/svg" id="Layer1001">
            <path d="  M5.0618,3.0554 C5.0618,4.1797 4.1550,5.0917 3.0375,5.0917 C1.9193,5.0924 1.0125,4.1812 1.0118,3.0562 C1.0110,1.9312 1.9170,1.0192 3.0353,1.0185 C4.1528,1.0170 5.0603,1.9282 5.0618,3.0524 Z"
                  style="stroke-width: 0.6375; stroke-linecap: butt; stroke-linejoin: miter; fill-rule: evenodd; fill: #000000; fill-opacity: 0.0000; "/>
            <path d="  M5.0618,3.0554 C5.0618,4.1797 4.1550,5.0917 3.0375,5.0917 C1.9193,5.0924 1.0125,4.1812 1.0118,3.0562 C1.0110,1.9312 1.9170,1.0192 3.0353,1.0185 C4.1528,1.0170 5.0603,1.9282 5.0618,3.0524 Z"
                  style="stroke-width: 0.6375; stroke: #000000; stroke-dasharray: none; stroke-linecap: butt; stroke-linejoin: miter; fill: none; fill-opacity: 0.0000; "/>
        </g>
        <!--converted by libvisio2svg-->
    </g>
</svg>
