<svg xmlns:xlink="http://www.w3.org/1999/xlink" xmlns="http://www.w3.org/2000/svg" version="1.1" width="8.3782000000"
     height="4.1482000000">
    <title><![CDATA[Stakeholder 2]]></title>
    <g transform=" scale(1.000000) ">
        <g xmlns="http://www.w3.org/2000/svg" id="Layer1000">
            <path d="  M7.1220,0.0000 L1.2570,0.0000 C0.5625,0.0000 0.0000,0.9285 0.0000,2.0737 C0.0000,3.2197 0.5625,4.1482 1.2570,4.1482 L7.1220,4.1482"
                  style="stroke-width: 0.6375; stroke-linecap: butt; stroke-linejoin: miter; fill-rule: evenodd; fill: #000000; fill-opacity: 0.0000; "/>
            <path d="  M7.1220,0.0000 L1.2570,0.0000 C0.5625,0.0000 0.0000,0.9285 0.0000,2.0737 C0.0000,3.2197 0.5625,4.1482 1.2570,4.1482 L7.1220,4.1482"
                  style="stroke-width: 0.6375; stroke: #000000; stroke-dasharray: none; stroke-linecap: butt; stroke-linejoin: miter; fill: none; fill-opacity: 0.0000; "/>
        </g>
        <g xmlns="http://www.w3.org/2000/svg" id="Layer1001">
            <path d="  M8.3782,2.0737 C8.3782,3.2197 7.8157,4.1482 7.1220,4.1482 C6.4275,4.1482 5.8650,3.2197 5.8650,2.0737 C5.8650,0.9285 6.4275,0.0000 7.1220,0.0000 C7.8157,0.0000 8.3782,0.9285 8.3782,2.0737 Z"
                  style="stroke-width: 0.6375; stroke-linecap: butt; stroke-linejoin: miter; fill-rule: evenodd; fill: #000000; fill-opacity: 0.0000; "/>
            <path d="  M8.3782,2.0737 C8.3782,3.2197 7.8157,4.1482 7.1220,4.1482 C6.4275,4.1482 5.8650,3.2197 5.8650,2.0737 C5.8650,0.9285 6.4275,0.0000 7.1220,0.0000 C7.8157,0.0000 8.3782,0.9285 8.3782,2.0737 Z"
                  style="stroke-width: 0.6375; stroke: #000000; stroke-dasharray: none; stroke-linecap: butt; stroke-linejoin: miter; fill: none; fill-opacity: 0.0000; "/>
        </g>
        <!--converted by libvisio2svg-->
    </g>
</svg>
