<svg xmlns="http://www.w3.org/2000/svg" xmlns:xlink="http://www.w3.org/1999/xlink" version="1.1" width="85.0395000000" height="34.0155000000">
  <title><![CDATA[Value]]></title>
  <g transform=" scale(1.000000) ">
    <path xmlns="http://www.w3.org/2000/svg" d="  M85.0395,17.0078 C85.0395,26.4007 66.0023,34.0155 42.5198,34.0155 C19.0365,34.0155 0.0000,26.4007 0.0000,17.0078 C0.0000,7.6148 19.0365,0.0000 42.5198,0.0000 C66.0023,0.0000 85.0395,7.6148 85.0395,17.0078 Z" style="fill-rule: evenodd; fill: #ccccff; "/>
    <g xmlns="http://www.w3.org/2000/svg" id="Layer1013">
      <path d="  M85.0395,17.0078 C85.0395,26.4007 66.0023,34.0155 42.5198,34.0155 C19.0365,34.0155 0.0000,26.4007 0.0000,17.0078 C0.0000,7.6148 19.0365,0.0000 42.5198,0.0000 C66.0023,0.0000 85.0395,7.6148 85.0395,17.0078 Z" style="stroke-width: 0.6375; stroke-linecap: butt; stroke-linejoin: miter; fill-rule: evenodd; fill: #000000; fill-opacity: 0.0000; "/>
      <path d="  M85.0395,17.0078 C85.0395,26.4007 66.0023,34.0155 42.5198,34.0155 C19.0365,34.0155 0.0000,26.4007 0.0000,17.0078 C0.0000,7.6148 19.0365,0.0000 42.5198,0.0000 C66.0023,0.0000 85.0395,7.6148 85.0395,17.0078 Z" style="stroke-width: 0.6375; stroke: #000000; stroke-dasharray: none; stroke-linecap: butt; stroke-linejoin: miter; fill: none; fill-opacity: 0.0000; "/>
    </g>
    <text xmlns="http://www.w3.org/2000/svg" x="0.0000" y="17.0078">
      <tspan font-family="Arial" font-size="8.0000" fill="#000000" fill-opacity="1.0000" stroke-opacity="1.0000">
Value</tspan>
    </text>
    <!--converted by libvisio2svg-->
  </g>
</svg>
